<svg id="Layer_1" data-name="Layer 1" xmlns="http://www.w3.org/2000/svg" viewBox="0 0 84.25 144.7"><path d="M30,70.23c-1.44-.79-2.55-1.8-4-2a22.11,22.11,0,0,0-4.07-2.38,9.24,9.24,0,0,0-4-1.52,10.63,10.63,0,0,1-5.16-1.89,14.27,14.27,0,0,0-4-1.56c-1.4-.38-2.83-.63-4.22-1.05A7.1,7.1,0,0,1,.32,56.92a3.32,3.32,0,0,1,.09-3A1.52,1.52,0,0,1,1,53.44a17.29,17.29,0,0,1,8.23-.6,53.64,53.64,0,0,0,6.32.61,3.1,3.1,0,0,1,1.54.24c1.33.87,2.8.67,4.24.69q4.95.07,9.92.12a3.53,3.53,0,0,0,3.59-2.6A35.68,35.68,0,0,0,36,47.28a17.31,17.31,0,0,1,.83-3.85,6.42,6.42,0,0,0,.38-2.32,74.94,74.94,0,0,1,.45-7.92,16.09,16.09,0,0,0-.06-2.77,10.16,10.16,0,0,1,.5-3.9,7.61,7.61,0,0,0,.36-2.33c.11-4,.15-7.93.25-11.89a11.12,11.12,0,0,0-.53-4.68,12.93,12.93,0,0,1-.47-2.29c.61-3.08,2.27-5,5.54-5.33a3.4,3.4,0,0,1,2.36,1.88A23.89,23.89,0,0,0,47,4.26a7,7,0,0,1,1.15,2c.27,1.58,1.38,2.85,1.48,4.49a8.93,8.93,0,0,0,.65,2.26c.76,2.24,1.14,4.6,2.23,6.73.4,2.88,1.15,5.68,1.52,8.57.71,5.5,1.23,11,2.12,16.51.35,2.21.39,4.47.56,6.59.23.33.4.54.53.77a4.84,4.84,0,0,0,3.9,2.36,48.64,48.64,0,0,1,5.42,1.1c.16,0,.25.4.34.63,0,0-.21.14-.3.23-.64.58-.58.66-.35,1.25.32.8,1.11,1.12,1.52,1.78a.81.81,0,0,1,.09.73c-.52.75-1.12,1.46-1.72,2.23-1.22.57-2.57.27-3.87.41a14.23,14.23,0,0,0-1.95.24,2.22,2.22,0,0,0-1.5,2.11,23.24,23.24,0,0,0,1.08,5.43A16.91,16.91,0,0,1,60.69,75a32.12,32.12,0,0,0,2.39,9.56A25,25,0,0,1,64.56,89a13.71,13.71,0,0,0,1,3,31,31,0,0,1,2.07,6,22.63,22.63,0,0,0,1.82,5.2c1.28,2.61,2.19,5.36,3.2,8.07a15.34,15.34,0,0,0,1.83,3.94,10.34,10.34,0,0,1,1.21,2.88c1.11,3.24,1.89,6.63,3.92,9.49a1.37,1.37,0,0,1,.33.7c0,1.53.92,2.71,1.53,4s1.15,2.67,1.77,4a12.17,12.17,0,0,1,1,5.8,3,3,0,0,1-2.56,2.58c-.66,0-1.32,0-2,.07a3.62,3.62,0,0,1-3.47-1.46,2.92,2.92,0,0,0-1.16-1,5.31,5.31,0,0,1-3-3,7.52,7.52,0,0,0-1.15-1.61,35,35,0,0,1-5.4-9.17,12.65,12.65,0,0,0-2-3.37A5.5,5.5,0,0,1,62,121.93a3.54,3.54,0,0,0-1-2.1,7.35,7.35,0,0,1-1.74-3.06,27.94,27.94,0,0,0-1.66-3.56c-1-2.14-2-4.29-3-6.43-.68-1.42-1.34-2.86-2.09-4.24-.63-1.14-1.51-2.13-1.68-3.51a4.45,4.45,0,0,0-.69-1.4,40,40,0,0,1-3.26-6.26c-1.38-1.47-2-3.4-2.95-5.1a18.75,18.75,0,0,0-4.13-4.75.81.81,0,0,0-1,.33,9.46,9.46,0,0,0-.52,2.29c0,2.42-1.11,4.62-1.28,7-.88,2-2,3.7-4.11,4.53a1.72,1.72,0,0,1-.77.13,3.77,3.77,0,0,1-3.16-3.1c0-2.38,0-4.76,0-7.14a5.11,5.11,0,0,1,.37-1.94c1.25-2.86.93-6,1.57-9C31.18,73.24,30.55,71.81,30,70.23Zm13.4-7.17c-.84.74-1.73,1.2-2,2.16a32,32,0,0,0-.73,3.88,3.33,3.33,0,0,0,.66,2.62c1.13,1.27,1.7,3,3.21,4a1.77,1.77,0,0,1,.58,1,5.65,5.65,0,0,0,1,1.66,26,26,0,0,1,3.63,6.09c1,2.78,3.07,4.9,4.51,7.4a.49.49,0,0,0,.32.18,3.84,3.84,0,0,0,1.17,0c.17,0,.33-.36.4-.58a1.71,1.71,0,0,0,0-.78A42.49,42.49,0,0,1,55,84.47a5.16,5.16,0,0,0-.42-1.1A17.64,17.64,0,0,1,54,81.11,4.52,4.52,0,0,0,53.09,79a3.06,3.06,0,0,1-.49-1.46c-.13-1-.16-2.11-.24-3.16a3.5,3.5,0,0,0-.21-1.55c-1.26-1.88-1-4-1.24-6.11a18.1,18.1,0,0,0-.25-2,2.33,2.33,0,0,0-2.28-1.84C46.67,62.9,45,63,43.41,63.06ZM46.64,33a1,1,0,0,0-1.12.9,28.38,28.38,0,0,1-.58,3.48,24.47,24.47,0,0,0-.95,7,9.82,9.82,0,0,1-.68,3.46,10.48,10.48,0,0,0-.61,4.65,1.64,1.64,0,0,0,1.23,1.37c1.17.07,2.35.12,3.53.11A1.89,1.89,0,0,0,49,52a1.81,1.81,0,0,0,0-.4,30.8,30.8,0,0,1-.68-6.64A6.75,6.75,0,0,0,48,42.6a13.86,13.86,0,0,1-.59-3.47c-.2-1-.21-2.08-.34-3.12S46.79,34,46.64,33Z"/></svg>