<svg id="Layer_1" data-name="Layer 1" xmlns="http://www.w3.org/2000/svg" viewBox="0 0 161.8 178.47"><path d="M.47,2.87A14.43,14.43,0,0,0,3.12,1.26C4.92-.51,6.86-.19,8.7.86c3,1.7,6.33,2.76,8.6,5.52,1.95,1,3.52,2.74,5.75,3.36A6.24,6.24,0,0,1,25.14,11a29.7,29.7,0,0,0,3.22,2.68,20.65,20.65,0,0,0,4,1.39A39.06,39.06,0,0,1,38.11,17c1.68.87,3.52,1,5.19,1.63,4,1.57,8.3,1.93,12.2,3.78a12.46,12.46,0,0,0,4.18.66,23.09,23.09,0,0,1,7.74,1.46c1.27.56,2.8.46,4.15.87,1.74.51,3.37,1.39,5.11,1.84s3.61.55,5.41.87c.8.15,1.55.52,2.34.71,4.7,1.14,9.13,3.4,14.12,3.46a14,14,0,0,1,2.94.77c1.57.39,3.14.77,4.72,1.12a23.11,23.11,0,0,1,2.4.43c1.53.5,3,1.29,4.55,1.64a23.71,23.71,0,0,0,4.84.46c2,0,3.3,1.57,5.12,1.86s3.74.31,5.36,1A20.31,20.31,0,0,0,133.7,41a13.94,13.94,0,0,1,6.67,2.79,8.55,8.55,0,0,0,2,1.3A6.84,6.84,0,0,1,146.1,49c.34.73.69,1.46,1.11,2.35-.33,1.05-.77,2.18-1,3.36-.65,3.05-2.64,4.92-5.3,6.24-2.17,1.07-4.25,2.37-6.8,2.49a8.7,8.7,0,0,0-2.23.9,18.23,18.23,0,0,1-3.45,1.11c-2.2.35-4.47.38-6.42,1.68a2.72,2.72,0,0,1-1.16.36c-5.06.63-9.84,2.33-14.7,3.75a35.24,35.24,0,0,1-4.8.87,25.28,25.28,0,0,0-3,.23C90,74.44,81.38,74.61,73.06,76.5c-.79.18-1.55.48-2.33.71a.67.67,0,0,0-.48,1c0,.14.16.35.27.37,1.81.3,3.62.56,5.42.87a5.41,5.41,0,0,1,2.33.57c2,1.56,4.2,1.34,6.42,1.42,1.83.06,3.67.07,5.49.23a16.75,16.75,0,0,1,4.19.67,38.22,38.22,0,0,0,7.17,1.41,80.57,80.57,0,0,1,13.61,3.2c1.35.44,2.75.74,4.13,1.08,1.55.38,3.14.48,4.53,1.56a6.4,6.4,0,0,0,2.91.67,5.94,5.94,0,0,1,3.35,1.29c.3.26.67.66,1,.65,2.62-.08,4.45,1.88,6.74,2.52s3.66,2.63,6,2.83a52.67,52.67,0,0,1,6,4.2c1.64,1.5,3.6,2.62,5.09,4.24a32.83,32.83,0,0,0,4.72,4.71,3.72,3.72,0,0,1,1,1.47A13,13,0,0,1,158,126.74a5,5,0,0,1-.85.87c-3,1.7-5.94,3.41-9,5a27.12,27.12,0,0,1-5,2.17,25.06,25.06,0,0,0-5.12,1.84c-1.41.77-3.07,1-4.37,2.1a3.08,3.08,0,0,1-1.67.68,12.64,12.64,0,0,0-7.16,3,6.61,6.61,0,0,1-4,1.46,7.72,7.72,0,0,0-4.44,1.64,24,24,0,0,1-5.93,2.94c-2.24.79-4,2.72-6.63,2.64-1.1,0-2.22.91-3.33,1.4l-11.08,5a5.65,5.65,0,0,0-1.13.44,42.47,42.47,0,0,1-4.87,3.57c-1.57.84-3.6.6-5.13,1.78a2.62,2.62,0,0,1-1.08.54c-3.88.67-7,3-10.53,4.53-4.06,1.78-7.92,4.08-12.35,5a12.77,12.77,0,0,0-2.17,1.06,8.38,8.38,0,0,1-2.82,1,14.37,14.37,0,0,0-6.33,1.8,8.47,8.47,0,0,1-8.89,0l-.9-3.39a22.37,22.37,0,0,1,5.44-7.28,5.06,5.06,0,0,0,1.63-4.4,17.18,17.18,0,0,0-.72-4.18,9.83,9.83,0,0,1-.82-3.51c.08-2.84-.71-5.61-.73-8.44,0-3.46-.06-6.92,0-10.37.07-3.25.24-6.5.42-9.74a6.64,6.64,0,0,1,.5-3c1.38-2.25,1.17-4.68,1.25-7.09.21-6.5.44-13,.53-19.51,0-3-.4-6.09-.32-9.13.07-2.84-1.33-4.52-3.59-5.83a18.88,18.88,0,0,1-2.49-1.7,4.33,4.33,0,0,1-1.73-4.28A9.73,9.73,0,0,0,32.83,73a3.26,3.26,0,0,1,1-2.73c.56-.59,1-1.44,1.71-1.7,2.28-.85,2.21-2.67,2.18-4.54a4.44,4.44,0,0,0-.1-1.21c-1.79-5.6-3-11.38-5.17-16.88a69.64,69.64,0,0,0-3.84-7.56,14.21,14.21,0,0,1-2-4.35,4.81,4.81,0,0,0-1.24-2c-3.71-4.27-7.31-8.64-11.68-12.31A6.54,6.54,0,0,0,11.36,18a3.38,3.38,0,0,1-2.2-2,3.37,3.37,0,0,0-2.72-2.14A4.45,4.45,0,0,1,3.9,12.28,26,26,0,0,0,1.42,9.63,4,4,0,0,1,0,5.83C.11,4.83.32,3.83.47,2.87ZM58.73,134.74c-.21,5.23-.46,10.71-.63,16.19-.05,1.81.1,3.64.22,5.46a2,2,0,0,0,2.09,1.77,15.41,15.41,0,0,0,8-2.68,48.45,48.45,0,0,1,10.73-5.59c1.89-.68,3.63-1.75,5.46-2.61,6.23-2.93,12.24-6.32,18.62-8.93a63.21,63.21,0,0,0,8.64-4.4,4.7,4.7,0,0,1,2.22-.85,12.25,12.25,0,0,0,4.55-1.52c2.4-1.1,4.65-2.46,7-3.72,2.68-1.47,11.11-5.66,13.22-6,1.77-.32,2.88-1.39,4.11-2.43a3.19,3.19,0,0,0,.5-4.33,26.57,26.57,0,0,0-5.4-4.86c-3.08-1.95-6-4.24-9.2-5.86-2.85-1.44-5.63-3.08-8.86-3.88-6.48-1.62-12.88-3.6-19.43-5a25.41,25.41,0,0,0-5.41-.72,26.57,26.57,0,0,1-8.39-1.37,20.72,20.72,0,0,0-6-.9c-1.62,0-3.25,0-4.88-.12-2.83-.16-5.69-.22-8.33-1.55a3.09,3.09,0,0,0-1.75-.37c-2.67.38-5.25-.43-7.89-.42-1.69,0-3.8,1.61-3.82,3.26,0,3.8-.82,7.71,1.53,11.23a8.12,8.12,0,0,1,.59,2.34,10,10,0,0,0,.88,2.88,9.4,9.4,0,0,1,1.2,5.26C58.39,121.49,58.56,128,58.73,134.74ZM45.54,43.55a10.74,10.74,0,0,0,4.53.11c1.77-.31,3.11.63,4.5,1.48a3.93,3.93,0,0,1,1.68,3.07,8.6,8.6,0,0,0,.91,2.21,8.41,8.41,0,0,1,.15,7.64,11.75,11.75,0,0,0-1,4.72c-.07,1.65,1.76,3.69,3.4,3.67,1,0,2-.31,3-.35,4.67-.21,9.34-.35,14-.57A5.72,5.72,0,0,0,79.71,65c2.15-1.54,4.58-1.47,7-1.7a17.63,17.63,0,0,0,4.81-.67c2.48-1,5.21-1.14,7.57-2.21,2.69-1.22,5.51-1.31,8.26-2,1-.23,1.92-.66,2.89-1a8.13,8.13,0,0,1,2.34-.62c3.38.08,6.3-1.44,9.38-2.44a2.52,2.52,0,0,0,1.65-2.31,1.78,1.78,0,0,0-1.38-2.28c-2-.29-4.1-.21-6-1.11-2.41-1.16-5.14-1.22-7.56-2.22a27,27,0,0,0-7.7-1.64,14.31,14.31,0,0,1-2.31-.72c-1.55-.44-3.12-.85-4.68-1.28a12.94,12.94,0,0,1-2.9-.82A11.55,11.55,0,0,0,87,40.9c-2.21-.31-4.44-.47-6.43-1.71a4.84,4.84,0,0,0-2.35-.49,15.47,15.47,0,0,1-5.9-1.36,10.46,10.46,0,0,0-4.11-1,24.29,24.29,0,0,1-6.52-1.21c-2.33-.68-4.74-1-6.92-2.21a9.23,9.23,0,0,0-4.67-1.17,12.24,12.24,0,0,1-7-1.63,4.87,4.87,0,0,0-3.55-.49,1.83,1.83,0,0,0-1.33,1.79,5.08,5.08,0,0,0,.46,1.72C41,36.68,43.33,40.21,45.54,43.55Z"/></svg>