<svg id="Layer_1" data-name="Layer 1" xmlns="http://www.w3.org/2000/svg" viewBox="0 0 70.68 121.65"><path d="M68.75,36.39a5.45,5.45,0,0,1-3.21.72c-.81,0-1.61-.2-2.41-.29s-1.63-.1-2.41-.25S59.58,35.48,59,35a17.91,17.91,0,0,0-4-2.64c-2.17-1.08-4.36-2.11-6.55-3.17-1.6-1.6-4.08-2-5.47-3.92a1.6,1.6,0,0,0-1-.56,2.63,2.63,0,0,1-2.35-1.28,29.94,29.94,0,0,1-5.09-3.19c-.68-.59-1.76-.47-2.6-1C30.08,18,28,17.24,26.31,15.89a8.92,8.92,0,0,0-2.18-1,2,2,0,0,0-2.48,1.88,6.49,6.49,0,0,0,.2,1.6,29.15,29.15,0,0,1,1,8.81q0,6.87,0,13.76c0,5.67-.08,11.33-.12,17a16,16,0,0,1-.54,4.39,17.93,17.93,0,0,0-.56,4.4c-.17,5.26-.28,10.52-.36,15.78A81.83,81.83,0,0,1,20.6,95a13.92,13.92,0,0,0-.13,2.42,25.22,25.22,0,0,1-.28,4.83,4.14,4.14,0,0,0,.2,1.58,1.43,1.43,0,0,0,1.12,1c1.21,0,2.44,0,3.47-.83s2.63-.71,3.47-2a1,1,0,0,1,.73-.29c1.83-.06,3.3-1.07,4.87-1.79s2.71-1.7,4.42-1.75a2.49,2.49,0,0,0,1.39-.75A15.57,15.57,0,0,1,46.18,94a4.79,4.79,0,0,0,2.43-1.37C50,91,52,90.43,53.76,89.58a10.58,10.58,0,0,0,2.46-1.31,13.75,13.75,0,0,1,2.64-1.81,12.36,12.36,0,0,0,2.49-1.31A4,4,0,0,1,64,84.44a3.49,3.49,0,0,1,2.21.83,4.32,4.32,0,0,1,1.82,3.82,21.4,21.4,0,0,1-.31,2.39,2.52,2.52,0,0,1-1,1.68,38.31,38.31,0,0,1-4.66,3.13c-1.57.75-3,1.77-4.47,2.66a25.34,25.34,0,0,1-5.86,2.59,5.51,5.51,0,0,0-1.81.82A41.41,41.41,0,0,1,38.84,108a13.75,13.75,0,0,0-4.39,2,1.91,1.91,0,0,1-1.1.45c-1.56.07-2.76,1-4.14,1.53-1.63.6-3,1.77-4.82,2-.72.1-1.35.83-2.07,1.16a10.76,10.76,0,0,0-2.23.86,5.49,5.49,0,0,1-3,1,4,4,0,0,0-2.16.94,17.27,17.27,0,0,1-3,2,15.88,15.88,0,0,1-10.63,1.38A1.49,1.49,0,0,1,0,119.54c0-.67,0-1.34,0-2a5.82,5.82,0,0,1,2.32-2.27,9.42,9.42,0,0,1,2.75-1.57,28.71,28.71,0,0,0,7.59-4.43c2.37-2.17,3.24-1.71,1.56-5.72a4.3,4.3,0,0,1-.41-1.55c-.12-4.58-1-9.1-1.21-13.68q-.12-3.23-.15-6.47c0-4.73.43-9.43.84-14.13.55-6.32.69-12.66.68-19,0-4,0-8.08-.44-12.12a42.75,42.75,0,0,1,0-5.66,66.49,66.49,0,0,0-.85-13.29c-.76-4.41-.57-8.88-.48-13.33A7.15,7.15,0,0,1,13.77.71,1.77,1.77,0,0,1,14.83.2a12.68,12.68,0,0,1,4.43,0,3.37,3.37,0,0,1,1.49.56,40.73,40.73,0,0,0,5.16,3.16,6,6,0,0,1,1.5,1.31c.38.41.74.86,1.3.87a6,6,0,0,1,2.91,1.31c.34.21.71.39,1,.63,1,.7,2,1.38,2.88,2.14,1.55,1.28,3.53,1.94,4.9,3.46a20.86,20.86,0,0,1,4,1.83,15,15,0,0,1,2,1.25c2,1.33,4.09,2.58,6.09,3.94a5.55,5.55,0,0,0,2.21.94,5.17,5.17,0,0,1,2.18,1,15.88,15.88,0,0,0,2.65,1.8A9.66,9.66,0,0,1,62,25.68c.91.74,2.31.61,3.16,1.66.26.33,1,.4,1.51.39,1.76,0,2.67,1.2,3.45,2.43a3.62,3.62,0,0,1,.14,3.51A30.31,30.31,0,0,1,68.75,36.39Z"/></svg>