<svg id="Layer_1" data-name="Layer 1" xmlns="http://www.w3.org/2000/svg" viewBox="0 0 121.77 131.58"><path d="M102.28,79.29c-.4.53-.73,1-1.08,1.44A6.93,6.93,0,0,1,98,83.21a7,7,0,0,0-2.18,1.05,18.11,18.11,0,0,1-5.38,2.81,40.41,40.41,0,0,0-4.79,2.06,17.54,17.54,0,0,1-3.72,1.52,4.17,4.17,0,0,0-1.82.8c-1.26,1.19-3.07,1-4.25,2.35-.3.37-1,.41-1.5.44-1.6.09-3.18.24-4.34,1.76-1.91,1-3.71,2.36-5.88,2.55a4.74,4.74,0,0,0-2.19,1A27.57,27.57,0,0,1,55.46,103,8.19,8.19,0,0,0,53,104.37a8.21,8.21,0,0,1-3.58,1.8c-1.25.24-1.92,1.53-2.88,2.31a1.65,1.65,0,0,0-.38,1.22c.34,3.77,0,7.57.58,11.32a9.9,9.9,0,0,1-.86,5.26A2.84,2.84,0,0,1,43.65,128a1,1,0,0,1-.76-.07A6.54,6.54,0,0,1,41,126.39,10.16,10.16,0,0,1,39.07,121a41.31,41.31,0,0,0-.94-5.79.88.88,0,0,0-1.25-.67c-1.05.62-2.1,1.25-3.14,1.9a6.6,6.6,0,0,1-1.35.92c-2.34.68-4.3,2.27-6.45,3.38a14.28,14.28,0,0,1-1.84.81,4.62,4.62,0,0,0-1.66,1.14c-1.12,1-2.08,2.31-3.48,2.94-.47.22-.81.78-1.27,1.08-.92.61-1.22,2-2.34,2.36s-1.74,1.34-2.62,2a4.84,4.84,0,0,1-.71.38,1.7,1.7,0,0,1-2-.89,8.28,8.28,0,0,1-.68-3.92A7.07,7.07,0,0,1,11.44,122c.77-.8,1.62-1.51,2.45-2.23a20.87,20.87,0,0,0,2.51-2.18,12.14,12.14,0,0,1,5-3.59,8.57,8.57,0,0,0,2.4-1.55c1.15-1,2.07-2.34,3.56-2.8.43-.14.7-.87,1.11-1.22.84-.71,1.36-1.86,2.46-2.2s1.44-1.83,2.63-1.88a26.61,26.61,0,0,0,3.89-3.77A3.08,3.08,0,0,0,38,99a8.08,8.08,0,0,0-.15-2.25,53.75,53.75,0,0,1-1-10.37A25.6,25.6,0,0,0,36.29,81a11.37,11.37,0,0,1-.35-2.23c-.11-4.57-1.31-9-1.69-13.47-.88-2.85-.73-6-1.71-8.81a14.51,14.51,0,0,1-.49-3.12,45.46,45.46,0,0,0-1.79-7.86c-.68-2.43-1.73-4.75-1.78-7.39a2,2,0,0,0-.43-1.22,7.07,7.07,0,0,1-1.52-3.15C26,31.6,24.88,30,24,28.1a5,5,0,0,0-2.57-2.66,10.38,10.38,0,0,1-3.26-2.37c-1-.92-2-2-3.45-2.07-1.73-1.33-3.81-2-5.37-3.69A6.62,6.62,0,0,0,6.49,15c-.59-1.24-1.76-1.78-2.57-2.76S2,10.2,1.08,9.11A5.17,5.17,0,0,1,0,5.34,17.67,17.67,0,0,1,1.11,1,1.27,1.27,0,0,1,2.32,0C4,0,5.75,0,7.47.05A2.1,2.1,0,0,1,9.21.93c.25.33.59.74.93.78,1.59.2,2.55,1.51,3.57,2.65a4.62,4.62,0,0,0,2.35,1.51,2.28,2.28,0,0,1,1.29.93c1,1.64,2.47,2.68,3.68,4s2.23,2.5,3.39,3.68c.29.29.58.73.91.79,1,.2,1.54,1.1,2.29,1.68a1.22,1.22,0,0,0,.37.16c1.5.38,3.25-.17,4.43,1.49,1.35.59,2.69,1.2,4,1.77a13.45,13.45,0,0,0,2.27.76,6.71,6.71,0,0,1,2.6,1,5.82,5.82,0,0,0,3,.95,43.55,43.55,0,0,1,8.18,1.62,22.49,22.49,0,0,0,7.82,1,5.5,5.5,0,0,1,2.34.29,20.26,20.26,0,0,0,7,1,59.74,59.74,0,0,1,10.68.64l4.68.87c.91.18,1.81.46,2.72.58a7.43,7.43,0,0,1,3,.91,5,5,0,0,0,1.88.65,8.4,8.4,0,0,1,3.72,1.35,6.76,6.76,0,0,0,2.67.69c1.18.19,2.35.24,3.28,1.34.33.39,1,.44,1.43.7a26.19,26.19,0,0,1,2.48,1.39c1.47,1,2.71,2.44,4.45,2.87a33.92,33.92,0,0,1,3,2.87c.75,1,1.26,2.34,2.57,2.7.31.08.58.56.79.93,1,1.74,2.12,3.44,3,5.27a17.62,17.62,0,0,1,1.14,11.45c-.06.29-.18.57-.25.85A27.91,27.91,0,0,1,120,67a17.66,17.66,0,0,1-2,3.32,19.77,19.77,0,0,1-3.14,3.38c-.85.72-1.51,1.66-2.69,1.62a1.45,1.45,0,0,0-.76.21c-.9.59-1.59,1.61-2.76,1.62a5,5,0,0,0-2.53,1.2,5.14,5.14,0,0,1-1.51.49C103.81,79,103,79.13,102.28,79.29ZM36,37.83a9.14,9.14,0,0,0,.66,6,.58.58,0,0,0,.24.29.57.57,0,0,0,.38.07.45.45,0,0,0,.29-.21,1.72,1.72,0,0,0,.22-.79,18.36,18.36,0,0,0-1.87-5.25c-.26-1.46-.8-2.88-.39-4.44a5.53,5.53,0,0,0,0-1.35,1.89,1.89,0,0,0-1.43-1.87.76.76,0,0,0-.69.23,2.07,2.07,0,0,0-.48,1.65c.24,2,1.34,3.53,2,5.3C35.05,37.69,35.64,37.7,36,37.83Zm68.7,6.82-2.7-.72c-1.16-1.39-2.9-1.39-4.24-2.32a6.2,6.2,0,0,0-3-1.08A24.92,24.92,0,0,1,89,39c-2.39-.87-4.92-1.11-7.26-2.18a3,3,0,0,0-1.17-.25A46.86,46.86,0,0,1,72,35.06a30,30,0,0,0-3.14-.41c-4.85-.64-9.76-.49-14.6-1.29-1.3-.22-2.61-.41-3.93-.51-1.58-.12-3.16-.16-4.74-.17a1.73,1.73,0,0,0-1.64,1.64,10.63,10.63,0,0,0,.43,5.78,14.06,14.06,0,0,1,.86,5.27c.09,8.77.16,17.54.3,26.3.06,4.09-.12,8.17-.1,12.24,0,4.24.23,8.47,0,12.7a4.57,4.57,0,0,0,.22,1.77,3.66,3.66,0,0,0,.91,1.43c.46.43.9,0,1.4-.22a34.1,34.1,0,0,0,6.29-3.74,6.69,6.69,0,0,1,2.17-1c2.68-.78,5.39-1.44,8.08-2.2a4.14,4.14,0,0,0,1.77-.93,25.8,25.8,0,0,1,4-2.92,11.15,11.15,0,0,1,4.41-1.82A6.84,6.84,0,0,0,76.4,86c2.23-1.3,4.39-2.78,6.95-3.17a6.38,6.38,0,0,0,1.8-.88c.71-.39,1.4-.82,2.11-1.21,1.06-.58,2.18-1,3.2-1.72a27.68,27.68,0,0,0,2.88-2.33A4.49,4.49,0,0,1,95,75.49c1.55-.42,2.72-1.85,4.33-2.14a17.39,17.39,0,0,1,4-2.76,14.64,14.64,0,0,0,2.55-2.13c1.77-1.73,2.8-4.41,5.15-5.41.63-1,1.27-1.91,1.9-2.88a5.78,5.78,0,0,0,.45-5.56c-.9-2.13-1.67-4.52-4.06-5.2-.22-.07-.36-.45-.59-.58C107.1,47.81,106.06,46,104.69,44.65Z"/></svg>