<svg id="Layer_1" data-name="Layer 1" xmlns="http://www.w3.org/2000/svg" viewBox="0 0 98.07 93.02"><path d="M39.63,93c-1-.29-1.85-.53-2.69-.8a2.08,2.08,0,0,1-1.44-1.65,20.84,20.84,0,0,0-.86-2.92,6.73,6.73,0,0,1-.34-2.12,9,9,0,0,0-.53-3,10.06,10.06,0,0,1-.61-3.32,9,9,0,0,0-.55-3.32,5.94,5.94,0,0,1-.35-1.81c-.16-2.17-.35-4.34-.41-6.51a17,17,0,0,0-.52-4.3,23.78,23.78,0,0,1-.71-5.51c0-.62-.05-1.24-.05-1.87A13.26,13.26,0,0,0,30,51.61a13,13,0,0,1-.48-4,15.46,15.46,0,0,0-.55-4,16.9,16.9,0,0,1-.68-5.2,6.86,6.86,0,0,0-.59-3,6.65,6.65,0,0,1-.55-1.74,9.21,9.21,0,0,0-1-4.1.58.58,0,0,1-.09-.29,13.31,13.31,0,0,0-1.21-5,6.08,6.08,0,0,0-.92-2.85c-.45-.74-.44-1.78-1.17-2.38A1.84,1.84,0,0,1,22.24,18a2.52,2.52,0,0,0-1.33-1.79,4.39,4.39,0,0,0-2.48-.78,48.08,48.08,0,0,1-5.22-.41,3.56,3.56,0,0,1-1.49-.53,4.73,4.73,0,0,0-2.51-.77,4.68,4.68,0,0,1-2.27-.7,10.11,10.11,0,0,0-1.45-.69c-1.12-.37-1.89-1.45-3-1.92A9,9,0,0,1,0,3.91,1.44,1.44,0,0,1,.24,3c.86-1,1.59-2.24,3-2.27A2.32,2.32,0,0,0,4,.64,13.92,13.92,0,0,1,8.39,0,7.27,7.27,0,0,1,12,.56,7.52,7.52,0,0,0,14.3.91a2.36,2.36,0,0,1,1.85,1,1.38,1.38,0,0,0,1.19.52,1.46,1.46,0,0,1,1.33.81c.24.46.73.51,1.15.62A4.75,4.75,0,0,1,22.57,6c.32.5.61,1,1,1.48a1.15,1.15,0,0,0,.67.42c.69.1,1.39.13,2.09.19a13.75,13.75,0,0,1,4.62,1,6,6,0,0,0,2.32.41c1,0,1.93.06,2.88.15a3.59,3.59,0,0,1,1.52.41,6.35,6.35,0,0,0,3.56.88,18.16,18.16,0,0,1,5.7.85,16.63,16.63,0,0,0,4.43.58,5.57,5.57,0,0,1,3.25,1,2.56,2.56,0,0,0,1.24.37,18.42,18.42,0,0,0,2.1.07,8.75,8.75,0,0,1,4.35.93.77.77,0,0,0,.25.1,31.55,31.55,0,0,1,3.33.78,15.7,15.7,0,0,0,3,1,19.49,19.49,0,0,1,4.35,1.13,5,5,0,0,0,1.27.39,2.22,2.22,0,0,1,2,2,1.23,1.23,0,0,0,.95,1,25.89,25.89,0,0,1,3.24,1.22,3.42,3.42,0,0,1,1.22.52,4.12,4.12,0,0,0,3.25.86,5.18,5.18,0,0,0,.79,0c2.85-.51,5.32.68,7.7,2.34.52.37,1.07.69,1.61,1,.11.3.22.58.32.86a1.92,1.92,0,0,0,1,1.29,4.54,4.54,0,0,1,1.18.65,1,1,0,0,1,.24.79,1.26,1.26,0,0,1-.52.63.8.8,0,0,1-.51.11c-1.83-.18-3.66-.34-5.48-.58a2.08,2.08,0,0,1-1.2-.55,7.8,7.8,0,0,0-3.75-2.06c-.34-.1-.66-.29-1-.38s-.33-.73-.66-.86a2.86,2.86,0,0,0-1-.24,7.08,7.08,0,0,1-2.81-.62,7.94,7.94,0,0,0-1.77-.51c-1.21-.28-2.43-.42-3.61-.8a33.56,33.56,0,0,1-4.21-1.68,6.16,6.16,0,0,0-2-.62,14.18,14.18,0,0,1-4.36-1,6.77,6.77,0,0,0-2.33-.37c-3-.2-5.94-.34-8.9-.55-1.66-.11-3.31-.29-5-.51a17.92,17.92,0,0,0-5,.17,3,3,0,0,0-2.5,3c-.09,2.38-.09,4.77-.15,7.15-.07,3.21-.16,6.43-.23,9.64,0,1.65,0,3.3,0,4.94s.18,3.1.28,4.65a5.51,5.51,0,0,0,.13.92,1.38,1.38,0,0,0,.86,1.08,25.86,25.86,0,0,0,6,1,11.73,11.73,0,0,1,3.61.65,6.8,6.8,0,0,0,2.6.36c1.22,0,2.45,0,3.67,0a3.18,3.18,0,0,1,2.65,1.06,1.86,1.86,0,0,0,.95.47,4,4,0,0,1,2.79,2.54c.15.37.41.67.56,1a.61.61,0,0,1-.18.51c-.75.26-1.51.46-2.26.69a19.05,19.05,0,0,1-2.27.69,14.29,14.29,0,0,1-2.36.08c-3.23,0-6.47,0-9.7,0-2,0-4,.15-6,.24a.86.86,0,0,0-.75.73,15.54,15.54,0,0,0-.24,2.15c0,4.67.07,9.33.11,14a11.14,11.14,0,0,0,.69,4.55A5.25,5.25,0,0,1,42.47,84a38.74,38.74,0,0,1,.16,5.9,2.61,2.61,0,0,1-1.43,2.38C40.72,92.51,40.23,92.73,39.63,93ZM33.9,24.09a17.84,17.84,0,0,0-1.1-5.21.76.76,0,0,0-.8-.6.9.9,0,0,0-.91.46,2.32,2.32,0,0,0-.16,2.32,8,8,0,0,1,.92,3.2,2.71,2.71,0,0,0,.25.87c.25.53.49,1.11,1.07,1.25.31.07.65-.67.69-1.5C33.87,24.78,33.87,24.67,33.9,24.09Z"/></svg>