<svg id="Layer_1" data-name="Layer 1" xmlns="http://www.w3.org/2000/svg" viewBox="0 0 94.27 89.89"><path d="M34.83,19.38a6.86,6.86,0,0,1-.26,1.29c-.16.4-.53.71-.7,1.11-.45,1-.75,2.09-1.29,3s-1.44,1.63-2,2.62A16.91,16.91,0,0,1,27,32.07a42.61,42.61,0,0,0-3.26,3.71,28.29,28.29,0,0,0-2.47,3.9A20.68,20.68,0,0,1,20,41.62a25.91,25.91,0,0,0-3.29,6.05,37.84,37.84,0,0,1-2.09,4.86,9.85,9.85,0,0,0-1,2.46c-.62,2.35-1.54,4.6-2.29,6.9a5.55,5.55,0,0,0-.31,1C10.77,65,9.68,67,9.57,69.26a1.37,1.37,0,0,1-.14.64c-1.3,2.3-1.13,4.93-1.61,7.41-.37,1.87.61,3.41,2.13,4.54a2.12,2.12,0,0,0,.93.33,16.22,16.22,0,0,0,3.62.16,17,17,0,0,0,6.67-1.72c1.68-.82,3.53-1.24,5.23-2a29.83,29.83,0,0,0,3.82-2A11.15,11.15,0,0,1,31.71,76a7.44,7.44,0,0,0,1.45-.77c.5-.41.83-1.05,1.36-1.42a12.72,12.72,0,0,1,2.08-1c1.33-.56,2.36-1.58,3.63-2.24s2.32-1.28,3.46-1.93c.48-.28,1-.56,1.4-.88a17.45,17.45,0,0,1,3.31-2.16,11.85,11.85,0,0,0,1.85-1.38,3.06,3.06,0,0,1,1.11-.64A5.11,5.11,0,0,0,54.3,62.2a21,21,0,0,0,5.29-3.29,5.12,5.12,0,0,1,1.46-.73,16.1,16.1,0,0,0,5.07-2.33,8.59,8.59,0,0,1,1.75-.93c2.28-1.11,4.59-2.16,6.85-3.32,1.56-.8,3.08-1.71,4.58-2.64a4.58,4.58,0,0,0,1.14-1.18.78.78,0,0,0,0-.92,2.56,2.56,0,0,0-1.54-1.18,12.64,12.64,0,0,1-3.15-1,3.91,3.91,0,0,0-1.6-.32,85.9,85.9,0,0,1-8.92-.8,16.7,16.7,0,0,0-4.29.11c-1.76.2-3.52.33-5.29.37a24.22,24.22,0,0,0-6.19,1,32.73,32.73,0,0,1-8.22,1.38c.09-.55.13-1.09.26-1.6a2.36,2.36,0,0,1,2.16-1.74,2,2,0,0,1,.65.07,3.27,3.27,0,0,0,2.26-.24c.91-.41,1.8-.86,2.72-1.22a12.69,12.69,0,0,1,2.52-.79,6.69,6.69,0,0,0,2.49-.81,2.93,2.93,0,0,1,1.26-.31c1-.1,2-.17,3-.2,3.76-.09,7.52-.13,11.28-.26,2.44-.08,4.84.32,7.27.42A7.33,7.33,0,0,1,79,40.2c2.1.67,4.22,1.32,6.3,2.06a26.24,26.24,0,0,0,3.5,1c1.61.33,3.12,1.09,4.77,1.33.16,0,.35.3.39.49a8.26,8.26,0,0,1,.27,2c0,1-.2,2-.32,3-1.58.63-3.08,1.33-4.64,1.81a21.51,21.51,0,0,0-2.45,1,23.8,23.8,0,0,1-4.3,1.67A16.32,16.32,0,0,0,79,56.17a20.16,20.16,0,0,1-4.14,2,1.64,1.64,0,0,0-.73.61,5.84,5.84,0,0,1-2.37,1.71,12.13,12.13,0,0,0-2.26,1.34A24.38,24.38,0,0,1,65.81,64a26,26,0,0,0-5,3.2,13.09,13.09,0,0,1-3.93,2.34,5.33,5.33,0,0,0-3.26,2.1c-1.06.57-2.09,1.19-3.17,1.7a8.41,8.41,0,0,0-3.13,2.32,4.6,4.6,0,0,1-2.49,1.5,9.56,9.56,0,0,0-3.24,1.57c-2.29,1.75-5,2.85-7.37,4.38a19.18,19.18,0,0,1-2.28,1.31,6.27,6.27,0,0,0-2,1.11c-1.73.38-3.08,1.65-4.86,2-1.5.29-2.87,1.12-4.47,1.08a3,3,0,0,0-.95.27C16,90.33,12.27,90,8.57,89.13c-.65-.16-1.25-.47-1.9-.6a5.06,5.06,0,0,1-3.52-2.22C1,85.25.65,83.09.06,81.1a2.87,2.87,0,0,1,0-1.3q.48-2.61,1-5.21a20.28,20.28,0,0,1,.78-2.87,42.37,42.37,0,0,1,2.33-6.16,6,6,0,0,0,.36-1.27A22.62,22.62,0,0,1,7,58.15a9.32,9.32,0,0,0,1.23-2.33C8.9,53,10.64,50.65,11.65,48c.59-1.56,1.84-2.72,2.45-4.28a34,34,0,0,1,2-4.17C17,38,18,36.52,19,35.06a21.2,21.2,0,0,0,2.29-4,15.76,15.76,0,0,1,2.87-4c1.5-.82,2.32-2.33,3.54-3.44a2.43,2.43,0,0,1,1.08-.7,5.27,5.27,0,0,0,2.36-1.12c1.24-.89,2.68-1.48,3.87-2.46Z"/><path d="M65.26,0c1,0,2,0,3,0,1.84,0,3.31,1.08,4.92,1.76a1.68,1.68,0,0,1,.54.37,35.23,35.23,0,0,1,3,3.49,23.64,23.64,0,0,1,1.68,3.6,1.63,1.63,0,0,1,.11.31,5.3,5.3,0,0,1,.13,2.62c-.49,2.37-1.43,3.09-3.9,3.08-.33,0-.67,0-1-.05A2.1,2.1,0,0,1,71.84,14c-.51-1.21-1.5-2.2-1.62-3.59A2.73,2.73,0,0,0,69.41,9a22,22,0,0,0-3-2.54,5.87,5.87,0,0,0-4.61-1.43c-.88.1-1.77,0-2.65.09a7.25,7.25,0,0,0-2.24.53c-1.76.66-3.32,1.7-5,2.44a4.73,4.73,0,0,0-1.36.94c-1.73,1.63-3.93,2.38-6,3.31a.31.31,0,0,1-.29-.09c-.06-.18-.16-.43-.08-.56a3.64,3.64,0,0,1,.78-1.06c1.4-1,2.5-2.51,4.32-3a2.9,2.9,0,0,0,1.28-1A11.12,11.12,0,0,1,54.93,3.9a16.82,16.82,0,0,0,2.94-1.47c.37-.24.72-.51,1.1-.75a7.85,7.85,0,0,1,5-1.5A8.47,8.47,0,0,0,65.26.11Z"/></svg>