<svg id="Layer_1" data-name="Layer 1" xmlns="http://www.w3.org/2000/svg" viewBox="0 0 75.96 122.68"><path d="M63.29,88.94c-.25-1.13-.38-1.75-.52-2.41-.8.41-.56,1.24-.93,1.78s-.54,1-.84,1.54-.82,1.15-1.11,1.78a6.44,6.44,0,0,0-.46,1.68c-.08.46,0,.94-.07,1.39a.66.66,0,0,1-.47.4c-.17,0-.5-.18-.51-.31-.16-1.51-.28-3-.41-4.55l-.66-8c0-.23-.11-.45-.15-.68a1.19,1.19,0,0,0-1.37-.77,18.76,18.76,0,0,0-3.41,2.37c-.41.65-1.08.81-1.66,1.18-1.37.86-2.95,1.36-4.2,2.43a4.47,4.47,0,0,1-2.18,1.09,5.23,5.23,0,0,0-2.53,1.12c-1.64.28-2.92,1.39-4.44,2a16,16,0,0,1-3,1,5.66,5.66,0,0,0-3.83,2.26,1,1,0,0,0-.07,1.27A2.7,2.7,0,0,1,31,97.07c.07,1.05.1,2.1.22,3.15a4.77,4.77,0,0,0,.46,1.67,10.91,10.91,0,0,1,1.05,3.69c.63,3.82,1.24,7.63,1.64,11.48a6.64,6.64,0,0,1-1.16,4.3,3,3,0,0,1-3.74,1c-.84-.4-1.7-.79-2.5-1.24a3.76,3.76,0,0,1-2-2.35c-.44-1.94-1.27-3.78-1.27-5.82a6.08,6.08,0,0,0-.35-2.07,13.8,13.8,0,0,1-.64-4.85c0-1,0-2.11,0-3.16a10.75,10.75,0,0,0-.86-4.09c-.64-1.64-1.56-3.12-2.23-4.73-.75-1.81-2.43-2.79-4.08-3.64a21.87,21.87,0,0,0-3.51-1.59,8.68,8.68,0,0,1-3.5-2.23C7.19,85.24,5.68,84,4.34,82.5a4.37,4.37,0,0,1-1-1.4,16.13,16.13,0,0,0-2.15-4,4.84,4.84,0,0,1-.82-2.28C.26,74,.12,73.18,0,72.37a2.55,2.55,0,0,1,1.53-2.86c2.69-1.32,2.72-1.28,5.64-.27A11.68,11.68,0,0,1,10,70.69a29,29,0,0,1,5.71,5.06,4.08,4.08,0,0,1,.63.82c1.3,2.82,3.75,4.77,5.55,7.21.18.24.6.32.92.45a.79.79,0,0,0,.84-.45,7.13,7.13,0,0,0,.23-1.37c0-7.38.07-14.77.05-22.15,0-7-.08-14.07-.15-21.1a8.33,8.33,0,0,0-.42-3.46,1.75,1.75,0,0,1-.13-1,17.45,17.45,0,0,0,.05-3.15,15.15,15.15,0,0,1,.4-2.41,2.82,2.82,0,0,1,3-2,16.78,16.78,0,0,1,2.07.4,3.14,3.14,0,0,1,2.46,2.63,9.3,9.3,0,0,1,.09,1,22.25,22.25,0,0,1,0,3.16c-.31,2.59.76,5.11.25,7.7a30.3,30.3,0,0,0-.16,7.37,137.17,137.17,0,0,1-.11,14c-.18,3.39-.11,6.8-.15,10.2a5,5,0,0,1-.06,1.74c-.58,1.42-.23,2.76,0,4.15A3.15,3.15,0,0,1,30.62,82c-.49.71-.14,1.33.28,1.92a1.31,1.31,0,0,0,1.18.63,15.9,15.9,0,0,0,4.46-.88c1.61-.69,3.32-1.14,5-1.75,1.08-.41,2-1.14,3-1.65A28.37,28.37,0,0,0,48,77.89c1.15-.79,2-2,3.23-2.65a41.84,41.84,0,0,0,6-7.29,8.1,8.1,0,0,1,1.67-2.22,1.55,1.55,0,0,0,.52-.88A13.48,13.48,0,0,1,61.31,60a8.77,8.77,0,0,0,1-4.36c0-3.75,0-7.5,0-11.26a23.25,23.25,0,0,1,1-8,2.24,2.24,0,0,0,.15-.68c.26-4.2,1.34-8.31,1.3-12.56a20.32,20.32,0,0,1,.89-6.59,8.26,8.26,0,0,0,.21-2.44,43.49,43.49,0,0,1,.71-6.64c.26-1.5.47-3,.64-4.52A2.76,2.76,0,0,1,68.75.72,4.8,4.8,0,0,1,72.81.28a2.17,2.17,0,0,1,1.44,1.4,28,28,0,0,1,1.4,8.64c0,3.88.06,7.74.29,11.61.1,1.62-.15,3.27-.21,4.91-.07,2.34-.1,4.68-.16,7a3.34,3.34,0,0,1-.79,2.6,2.36,2.36,0,0,0-.4,1.31c-.36,2.91-.68,5.82-1,8.73A12,12,0,0,1,73,48.58c-.51,1.69-.84,3.4-1.19,5.12A23.62,23.62,0,0,1,70,59a98.21,98.21,0,0,0-3.79,10.19,8.87,8.87,0,0,0-.34,2.07,15,15,0,0,1-.92,4.81,7,7,0,0,0-.35,2.07c-.13,1.63-.22,3.27-.32,4.91a8.63,8.63,0,0,1-.52,2.73A14.86,14.86,0,0,0,63.29,88.94Z"/></svg>