<svg id="Layer_1" data-name="Layer 1" xmlns="http://www.w3.org/2000/svg" viewBox="0 0 46.63 112.92"><path d="M39.66,35c1,.31,2.26.64,3.46,1.06a22,22,0,0,1,2.55,1.09,2,2,0,0,1,.95,1.39.7.7,0,0,1-.51.76l-5.21.22a1.75,1.75,0,0,0-1.74,1.42A4.21,4.21,0,0,0,39,43a27.8,27.8,0,0,1,.12,5.91c-.1,2.31,0,4.63,0,6.94a17.91,17.91,0,0,1,0,2.43c-.53,3.58-.27,7.19-.44,10.78-.1,2-.15,3.94-.22,5.92,0,.46,0,.93-.08,1.39a73.06,73.06,0,0,0-.92,9,33.87,33.87,0,0,0-.93,5.83C35.3,93.93,35.09,97,33.58,99.7a7.64,7.64,0,0,0-.49,1.29,30,30,0,0,1-3.91,7.35,9.69,9.69,0,0,1-6.57,4.16,12.26,12.26,0,0,0-1.37.25,3.88,3.88,0,0,1-3.6-.74,10.69,10.69,0,0,1-3-2.9,30.8,30.8,0,0,1-3.07-5.82c-.14-.43-.35-.85-.53-1.28A46.6,46.6,0,0,1,9,96.85c-.46-1.67-.92-3.34-1.43-5s-.57-3.42-1.28-5a5.87,5.87,0,0,1-.2-2.07,9.77,9.77,0,0,0-.48-3.08,8,8,0,0,1-.22-4.12c.42-2.34,2.84-2.87,4.62-1.79a1.46,1.46,0,0,1,.58.83A17.7,17.7,0,0,1,11,79c.2,1.73.25,3.48.53,5.19a38.7,38.7,0,0,0,1.2,4.71,11.34,11.34,0,0,1,.66,2.7,2.73,2.73,0,0,0,.2,1c1.14,2.53,1.62,5.32,2.94,7.79a10.51,10.51,0,0,1,.93,1.87,12,12,0,0,0,2.68,4,2.38,2.38,0,0,0,3.17.11c1.23-1.23,2.55-2.39,2.9-4.23a1.5,1.5,0,0,1,.32-.61c1.38-1.64,1.86-3.71,2.63-5.63.68-1.72,1.19-3.51,1.78-5.27a2.66,2.66,0,0,0,.18-.67c.14-2.8,1.17-5.41,1.8-8.1a2,2,0,0,0-.05-.69c-.06-.42-.77-.8-1-.52-1.46,1.42-3.17,1.13-4.88.75a1.45,1.45,0,0,1-.77-.66,4,4,0,0,1-.53-1.28A34.84,34.84,0,0,1,25,75.69a82.52,82.52,0,0,1-.24-10.43,19.36,19.36,0,0,0-.36-5.53,9,9,0,0,1-.24-2.07c0-2.58-.9-5-1.33-7.52a29.12,29.12,0,0,0-1.27-3.6,18.6,18.6,0,0,0-3.95-6.48A11.11,11.11,0,0,0,14.88,38a3.5,3.5,0,0,0-1.69-.31c-1.74,0-3.48,0-5.22,0A14,14,0,0,1,3.86,37,5.71,5.71,0,0,1,.09,33.67a1.27,1.27,0,0,1,.22-1.3c.4-.41.83-.81,1.25-1.2a2.88,2.88,0,0,1,1.54-.76,15.67,15.67,0,0,1,9.53,1.15,22.13,22.13,0,0,0,9,2.22c2,0,3.93.35,5.9.51.69.06,1.39.07,2.08.07a1.82,1.82,0,0,0,1.56-1.21,8.72,8.72,0,0,0,.24-1,46.38,46.38,0,0,0,.78-10,25.82,25.82,0,0,1,0-2.78,1.56,1.56,0,0,1,1.16-1.55c.33-.1.66-.23,1-.32a3,3,0,0,1,2.94,1.35,7.93,7.93,0,0,1,.89,4,55.41,55.41,0,0,0,.45,9.37A4.66,4.66,0,0,0,39.66,35ZM29.4,52.65a7.49,7.49,0,0,0,1-4,26.49,26.49,0,0,1,.43-5.89A15,15,0,0,0,31,40a1.63,1.63,0,0,0-1.25-1.49A18.44,18.44,0,0,0,24.56,38a2.18,2.18,0,0,0-.91.48.68.68,0,0,0-.3.88c.52,1,1,2.08,1.63,3.06a19.47,19.47,0,0,1,2.72,7.1,8.76,8.76,0,0,0,1.08,2.9C28.86,52.59,29.18,52.59,29.4,52.65Z"/><path d="M42,2.71a15.69,15.69,0,0,1-2,6.93,2.5,2.5,0,0,1-1.36,1,5.63,5.63,0,0,1-2,.28c-2.77-.1-3.23-.44-4.2-3.23a2.79,2.79,0,0,1,1.16-3,2.72,2.72,0,0,1,.63-.27A2.33,2.33,0,0,0,35.65,3a4.86,4.86,0,0,1,.44-.95c1.34-1.77,1.35-2.17,4-2,1.25.06,1.84.7,1.89,2C42,2.25,42,2.48,42,2.71Z"/></svg>