<svg id="Layer_1" data-name="Layer 1" xmlns="http://www.w3.org/2000/svg" viewBox="0 0 83.69 95.7"><path d="M20.57,56.53c.22.48.48,1,.67,1.51a1.39,1.39,0,0,1-.59,1.77,3.72,3.72,0,0,1-.83.57,10,10,0,0,0-3.38,1.52,2.34,2.34,0,0,1-1.3.26c-1.58,0-3.17,0-4.76.06a4.16,4.16,0,0,0-1.94.54,3.64,3.64,0,0,0-1.86,4.62A45.8,45.8,0,0,0,8.5,72.45a.85.85,0,0,0,.17.29c1.63,1.9,2.62,4.21,4,6.26A41.54,41.54,0,0,0,16,82.87a2.69,2.69,0,0,0,.55.38c1.62,1,3.26,2,4.87,3A4.58,4.58,0,0,0,23.6,87c1.13.09,2.25.3,3.38.28a12.17,12.17,0,0,0,6.2-1.48c2.07-.9,4.13-1.82,5.6-3.65a3.84,3.84,0,0,1,.83-.58c3-2.12,5.34-4.84,7.89-7.38a8.48,8.48,0,0,0,1.39-1.92c1.41-2.57,2.8-5.15,4.11-7.77a20,20,0,0,0,1-2.89c.32-1,.64-1.93.93-2.9a6,6,0,0,0,.3-1.32A33.73,33.73,0,0,0,55.11,49a12.7,12.7,0,0,0-1.52-4.46,30.52,30.52,0,0,0-1.82-2.85,62.76,62.76,0,0,0-6-7.37c-1.26-1.27-2.16-2.89-3.63-4a1.82,1.82,0,0,1-.42-.53c-1.83-2.85-3.86-5.62-5-8.83a17.65,17.65,0,0,1-1.27-5.58c0-.91,0-1.82-.08-2.72s-.49-1.4-1.51-1.41a10.38,10.38,0,0,0-4.36.4c-3.49.11-7,.84-10.46-.3a9.61,9.61,0,0,0-1.34-.23,2.12,2.12,0,0,1-1.4-.88,11.16,11.16,0,0,1-1.75-2.88A5.08,5.08,0,0,1,15.51,2a5.74,5.74,0,0,1,1.33-1A8.4,8.4,0,0,1,21.11,0,3.2,3.2,0,0,1,23,.64c.82.59,1.67,1.13,2.52,1.69,1.24.06,2.48.15,3.73.15,2.26,0,4.53,0,6.79-.16a25.76,25.76,0,0,0,3.71-.46,36.15,36.15,0,0,1,6.05-.68c2.26-.06,4.53-.12,6.79-.2,3-.09,6.11.18,9.17.31a2.16,2.16,0,0,1,1,.19c1.65,1,3.48.88,5.28,1,.34,0,.68,0,1,0a3.19,3.19,0,0,1,1.91.6,3.1,3.1,0,0,0,1.89.66,9.75,9.75,0,0,1,3.26.88c1.36.55,2.8.92,4.18,1.4a7.23,7.23,0,0,1,3.29,2.31.88.88,0,0,1-.34,1.15A10,10,0,0,1,82,9.9a14.67,14.67,0,0,0-2,.25,7.46,7.46,0,0,1-4.34,0,11.63,11.63,0,0,0-2.36-.29,22.17,22.17,0,0,1-5.73-.56,3.08,3.08,0,0,0-1,0,56.49,56.49,0,0,1-8.12-.4,16.29,16.29,0,0,0-6.07.35,18.39,18.39,0,0,1-4.7.58c-.79,0-1.59.06-2.38.11-1.26.08-1.44.42-1.95,1.56A4,4,0,0,0,43,12.83c-.05.9,0,1.82-.05,2.72a7.28,7.28,0,0,0,1.6,5.05c1.22,1.61,2.1,3.45,3.54,4.94S50.62,28.69,52,30.2s2.77,3.27,4.24,4.83a9.14,9.14,0,0,1,2.07,3.08,3.16,3.16,0,0,0,.63,1.19c1.32,1.23,1.66,2.91,2.22,4.49a20.7,20.7,0,0,1,1.49,8.63c-.06.79,0,1.58,0,2.38,0,3.5,0,3.5-1.17,6.94a10,10,0,0,0-.63,1.92,7.24,7.24,0,0,1-1.37,3.77,4.45,4.45,0,0,0-.7,2.25,5.55,5.55,0,0,1-1,2.49c-.64.92-1.17,1.93-1.76,2.9s-1.34,2.08-1.92,3.18A13.31,13.31,0,0,1,51.54,81a21.17,21.17,0,0,1-2.2,2.55c-1,.76-1.78,1.73-2.69,2.58s-1.77,1.42-2.51,2.26A8.83,8.83,0,0,1,42,90c-.85.54-1.71,1.09-2.52,1.7A14.68,14.68,0,0,1,33,94.44a4.91,4.91,0,0,0-1.65.37,9.22,9.22,0,0,1-4.62.86c-.79,0-1.59-.07-2.38,0A9.28,9.28,0,0,1,18.59,94a30.61,30.61,0,0,1-4.9-3.63,4,4,0,0,0-1.31-1,2.09,2.09,0,0,1-1-.89c-1.79-2.74-3.81-5.31-5.71-8a23,23,0,0,1-4.11-8.44c-.94-1.85-1-3.92-1.41-5.91a12.4,12.4,0,0,1,1.31-7.56,7,7,0,0,1,3.25-3.32,4.08,4.08,0,0,1,2-.54l9.52,0a4.77,4.77,0,0,1,2.88.87C19.52,56,20,56.21,20.57,56.53Z"/></svg>