<svg id="Layer_1" data-name="Layer 1" xmlns="http://www.w3.org/2000/svg" viewBox="0 0 51.13 174"><path d="M14.92,67.75a5.79,5.79,0,0,0,.87-.78C18,64,20.34,61.12,22.51,58.09a53.82,53.82,0,0,0,3.23-5.42c.88-1.6,1.74-3.23,2.56-4.87C30,44.51,31.77,41.34,33.4,38s3.11-6.38,4.73-9.53c.39-.75.67-1.58,1-2.38a41.11,41.11,0,0,1,3.1-6.52,40.12,40.12,0,0,0,3.08-7.06c.16-.4.2-.86.37-1.25.69-1.56,1.5-3.06,2.09-4.67S48.6,3.53,49.09,2a7.22,7.22,0,0,1,1-1.82A.62.62,0,0,1,50.77,0a.91.91,0,0,1,.36.66,16.17,16.17,0,0,1-.27,3.51,15,15,0,0,0-.38,5.25A10.74,10.74,0,0,1,50,13.81a28.94,28.94,0,0,0-1.42,6.87A3.12,3.12,0,0,1,48.3,22c-1.74,2.77-2.21,6.22-3.58,9.19C42.93,35,41.3,39,39.59,42.93c-.85,2-1.76,3.87-2.71,5.77-2.61,5.19-5.45,10.2-8.08,15.37a45.65,45.65,0,0,1-2.64,4.29c-1,1.5-2.05,2.93-3.06,4.42a1.9,1.9,0,0,0,.14,2.39c.87,1,1.78,2,2.63,3.11a18.75,18.75,0,0,1,3.45,5.18,19.05,19.05,0,0,0,1.78,2.82,29.13,29.13,0,0,1,3,7.06c1,3.5,1.91,7,2.63,10.61a29.37,29.37,0,0,1,.72,4.77A6.42,6.42,0,0,0,37.6,110c1,4.29,1,8.77,1.74,13.12a34.2,34.2,0,0,1,.36,3.51c.46,6.34.55,12.7.72,19,.11,4.13.1,8.27.23,12.41a74.35,74.35,0,0,1-.89,10.56c-.13,1.17-.36,2.32-.56,3.48A2.2,2.2,0,0,1,37.31,174a1.33,1.33,0,0,1-1.21-.83c-.27-1.59-.53-3.18-.81-4.76a8.43,8.43,0,0,0-.51-2.12c-1.7-3.47-2-7.25-1.73-11.13.14-2.37.05-4.72,0-7.08a87.52,87.52,0,0,1,.08-10.62,20.39,20.39,0,0,0-.26-5.72c-.37-2.31-.43-4.7-.63-7a7.6,7.6,0,0,0-.26-2.17c-.77-1.92-.76-4-1.19-6-.79-3.56-1.18-7.24-2.31-10.7a16.81,16.81,0,0,1-.4-2.16,4.46,4.46,0,0,0-.29-1.27c-1.23-2.12-1.56-4.65-2.27-7S23.83,91.13,23,89a7.48,7.48,0,0,0-1.3-2.14c-1.23-1.44-2.54-2.8-3.83-4.18a2.8,2.8,0,0,0-.64-.44,1.81,1.81,0,0,0-2.1.33,4.78,4.78,0,0,0-1.4,3,46,46,0,0,0-.09,8,24.72,24.72,0,0,1,.17,3.09,75.08,75.08,0,0,0,.38,7.51A53.33,53.33,0,0,0,16,113.62a12.2,12.2,0,0,0,.83,2,12.14,12.14,0,0,1,.53,1.16c.72,2.11-.28,4.67-2.1,5.41a3.37,3.37,0,0,1-2.57.13,9,9,0,0,1-4.65-4.17c-.67-1.24-1.27-2.53-1.88-3.82a8.51,8.51,0,0,1-.81-2,38.77,38.77,0,0,0-1.68-5.39A43.26,43.26,0,0,1,1.56,98a16.94,16.94,0,0,0-.31-1.73C.13,91.22.06,86.05,0,80.88a3.61,3.61,0,0,1,1-2.73A4,4,0,0,0,2,75c-.14-5.76-.22-11.52-.37-17.28-.12-5,0-10-.33-15.05-.11-1.47-.08-3-.06-4.43A4.23,4.23,0,0,1,2,35.75a13.49,13.49,0,0,0,1.81-3.83,3.05,3.05,0,0,1,.67-1,4.61,4.61,0,0,1,6.22.06c.45.51.87,1.06,1.3,1.59a3.81,3.81,0,0,1,.8,2c.28,2,.65,4.07.83,6.12s.2,4.12.27,6.18A29.73,29.73,0,0,0,14,50.33a69,69,0,0,1,.29,11.94c0,1.33-.1,2.66-.08,4a3.78,3.78,0,0,0,.39,1.19C14.65,67.57,14.79,67.63,14.92,67.75Z"/></svg>