<svg id="Layer_1" data-name="Layer 1" xmlns="http://www.w3.org/2000/svg" viewBox="0 0 52.74 94.43"><path d="M52.5,67.12a2.34,2.34,0,0,1-.79,3c-1.05.71-1.64,1.9-2.73,2.5A13.82,13.82,0,0,0,46.09,75a4.57,4.57,0,0,1-2.5,1.19,11.42,11.42,0,0,0-4.79,2.11c-.85.58-1.78,1.06-2.68,1.55a2.66,2.66,0,0,1-1.15.45c-1.22,0-2.13.74-3.2,1.09s-1.7,1.15-2.75,1.4a5.58,5.58,0,0,0-2.36,1.46c-1.35.27-2.32,1.28-3.58,1.75-2.9,1.08-5.48,2.81-8.26,4.15-.27.14-.51.49-.77.49-1.33,0-2.23,1.09-3.45,1.35A11.09,11.09,0,0,0,6.06,93.9a2.48,2.48,0,0,1-2.65.27,7.94,7.94,0,0,0-1.21-.31c-1-.25-1.46-1.11-2-1.83a1.41,1.41,0,0,1-.16-.9,7,7,0,0,1,.34-1.51,53.49,53.49,0,0,1,2.34-5.39C3.3,83,4.36,81.88,4.38,80.3c0-.56.53-1.1.75-1.68a22.35,22.35,0,0,0,1.22-3.17,17.14,17.14,0,0,1,1.51-3.37,21.31,21.31,0,0,0,1.2-2.51c.82-2.68,2.1-5.17,2.92-7.84.46-1.48,1.34-2.77,1.7-4.31a25.94,25.94,0,0,1,1.57-4,5.19,5.19,0,0,1,1-1.93,1.76,1.76,0,0,0,.34-.85,6.13,6.13,0,0,1,.36-1.81c.71-1.17.93-2.52,1.59-3.7a50.62,50.62,0,0,0,2.3-5.42,21.26,21.26,0,0,1,1.72-4,1.07,1.07,0,0,0,.22-.57c-.08-1.44.86-2.51,1.37-3.72a6.23,6.23,0,0,0,.78-2.34,1.37,1.37,0,0,1,.31-.86,7.4,7.4,0,0,0,1.08-2.56c.5-1.24,1.12-2.44,1.57-3.7s1.37-2.09,1.54-3.37C30,18,30,17,30.46,16.39a5.58,5.58,0,0,0,.76-2.31,3.74,3.74,0,0,1,.36-.85,18.37,18.37,0,0,0,2.09-4.46c.43-1.48,1.1-2.89,1.67-4.33a4.9,4.9,0,0,1,.35-.85A23.66,23.66,0,0,1,39.27.19a1.48,1.48,0,0,1,2.17,1,33.14,33.14,0,0,1-.13,6.22A24.9,24.9,0,0,0,40,10.85a55.09,55.09,0,0,0-1.67,5.63,1.93,1.93,0,0,1-.24.89c-.86,1-.82,2.32-1.37,3.44A30.12,30.12,0,0,1,35.48,24a5.46,5.46,0,0,0-.3,1.19,3.8,3.8,0,0,1-.53,1.11,7.44,7.44,0,0,0-1.53,2.66c-.22.89-1,1.56-1,2.56a1.63,1.63,0,0,1-.33.86,26.57,26.57,0,0,0-1.9,3.86c-.56,1.09-.75,2.4-1.77,3.24-.28,1-1.05,1.77-1.14,2.85a3.9,3.9,0,0,1-.39,1.18,16.91,16.91,0,0,0-1.61,3.32c-.28,1.23-.85,2.33-1.13,3.54a8.11,8.11,0,0,1-.89,2,23,23,0,0,0-2.16,5.44,4.91,4.91,0,0,1-.52,1.45c-.54.78-.64,1.73-1.23,2.5a9.67,9.67,0,0,0-.85,2.3A19.8,19.8,0,0,0,17,66.56c-.41,1.71-1.48,3.18-1.66,5A7.5,7.5,0,0,1,14.86,73c-.69,2-1.4,3.9-2.07,5.86A1,1,0,0,0,13.07,80a1,1,0,0,0,1.15.28,20.49,20.49,0,0,1,3.21-1.07c1-.34,1.82-1,2.76-1.37a20.93,20.93,0,0,1,3.18-1.24,51.23,51.23,0,0,0,8.87-3.65c.37-.17.73-.56,1.09-.55,1.35,0,2.26-.95,3.43-1.33a11.88,11.88,0,0,0,3.05-1.51,2.87,2.87,0,0,1,1.15-.4,39.44,39.44,0,0,0,8.17-1.91A6.23,6.23,0,0,1,52.5,67.12Z"/></svg>