<svg id="Layer_1" data-name="Layer 1" xmlns="http://www.w3.org/2000/svg" viewBox="0 0 37.38 113"><path d="M10,93.12c-.62.57-1.18,1.13-1.78,1.64a1.9,1.9,0,0,1-.87.49,7.19,7.19,0,0,1-3.71-.17A2.31,2.31,0,0,1,2,92.78a31.35,31.35,0,0,1,.69-6.4,8,8,0,0,0,.28-1.67c.15-3.86.31-7.72.4-11.58,0-1.59-.08-3.18-.13-4.77-.09-2.84-.17-5.68-.27-8.52a7.39,7.39,0,0,0-.21-2.37,8.65,8.65,0,0,1-.17-4,33.26,33.26,0,0,0,0-5.09c-.14-2-.1-4.08-.08-6.12a56.77,56.77,0,0,0-.41-8.83,54.35,54.35,0,0,0-1.09-7,9.08,9.08,0,0,1-.19-2,20.64,20.64,0,0,0-.66-5.4A7.45,7.45,0,0,1,0,16.54C.1,13.25.17,10,.34,6.66A21,21,0,0,1,.93,3,3.6,3.6,0,0,1,3.6.15a2.81,2.81,0,0,1,2,.06A8.68,8.68,0,0,1,6.8.82,2.51,2.51,0,0,1,8.09,2.73c.15,1.58.28,3.17.3,4.75a33,33,0,0,0,.27,6.12,15.39,15.39,0,0,1,.06,2.72A17.29,17.29,0,0,0,9,20.05a11,11,0,0,1,.14,2.38c0,2,0,4.09,0,6.13a19,19,0,0,0,.38,3.37c.37,1.66.77,3.32,1.14,5,.31,1.44.56,2.89.88,4.32.39,1.76,1.12,3.45,1.64,5.18a14,14,0,0,0,2.5,4.41,1.27,1.27,0,0,0,2.23-.17,9,9,0,0,0,1.3-2.75,9.86,9.86,0,0,1,.87-2.21,19.2,19.2,0,0,0,1.23-3.51A29.49,29.49,0,0,1,22.77,38a4.21,4.21,0,0,0,.43-1.28c.06-2,.89-3.74,1.25-5.63.23-1.23,1-2.27,1.08-3.57a10.53,10.53,0,0,1,.78-3.29,9.53,9.53,0,0,0,.36-2.35,4.53,4.53,0,0,1,.62-2.27,1.34,1.34,0,0,0,.25-.62c.09-2.52,1.24-4.84,1.39-7.34A3.61,3.61,0,0,1,29,11a26.08,26.08,0,0,0,.86-7.09,3.18,3.18,0,0,1,1.92-3,4.2,4.2,0,0,1,3.93,0,2.68,2.68,0,0,1,1.5,2.16,13.57,13.57,0,0,1,.11,3.05c-.24,2.25-.1,4.55-1,6.72a4.89,4.89,0,0,0-.14,1.68,48.18,48.18,0,0,1-1,8.8c-.46,2-.7,4-1,6.05a24.7,24.7,0,0,0-.2,2.72c-.09,2-.18,4.09-.21,6.13a11,11,0,0,1-.56,3.68A8,8,0,0,0,33,44.25c-.09,2.28-.1,4.55-.21,6.82a13.64,13.64,0,0,1-.39,2.69,15.44,15.44,0,0,0-.45,3.71c-.09,4-.22,8-.28,11.93,0,1.7.09,3.41.11,5.11.05,3.52,0,7,.36,10.56a13.59,13.59,0,0,0,.14,1.69,41.54,41.54,0,0,1,.66,7.12,6.81,6.81,0,0,0,.23,2c1,2.51.84,5.13,1,7.73a50.61,50.61,0,0,0,.41,5.09,5.66,5.66,0,0,1-1.12,4.14c-.14.22-.71.15-.91-.11-.73-1-1.05-2.27-2.17-3-.14-.1-.15-.41-.22-.62-.36-1.07-.66-2.17-1.09-3.22a22.08,22.08,0,0,1-1.36-9,8.21,8.21,0,0,0-.41-4,37.06,37.06,0,0,0-1.25-7,9.59,9.59,0,0,1,0-1.7c-.48-5.67-.36-11.35-.49-17-.1-4.43.09-8.86,0-13.29a5.06,5.06,0,0,0-.34-1.28.42.42,0,0,0-.31,0,1.07,1.07,0,0,0-.37.49,5.56,5.56,0,0,1-2.68,3.75,8.12,8.12,0,0,1-5.41,1.68,5.07,5.07,0,0,0-1,0,5.62,5.62,0,0,1-3.83-1.15,6.83,6.83,0,0,0-1.14-.72c-.15-.07-.4,0-.59.1s-.11.19-.14.3a.74.74,0,0,0,0,.33,40,40,0,0,1,.71,8.8c0,7.84,0,15.68-.09,23.53C10.26,90.84,10.11,92,10,93.12Z"/></svg>