<svg id="Layer_1" data-name="Layer 1" xmlns="http://www.w3.org/2000/svg" viewBox="0 0 49.46 139.98"><path d="M39.54,126.37c-.14.22-.71.16-.9-.1"/><path d="M4.45,108.38c.09-1.44.2-3.19.3-4.95.13-2.33.24-4.67.36-7,0-.59,0-1.18.09-1.76.47-3.72.51-7.46.61-11.21.06-2.1.21-4.21.36-6.31C6.55,72,7,66.87,7.29,61.72c.15-2.92-.07-5.85-.13-8.78,0-1-.13-2.11-.06-3.16a69.67,69.67,0,0,0-.39-10.51c-.26-2.92-.47-5.83-.87-8.74-.33-2.43-.63-4.88-1-7.3a67.45,67.45,0,0,0-2.37-9.89C1.62,10.9,1,8.39.25,5.94A6.34,6.34,0,0,1,0,3.52C.21,1.06,1.65,0,4.35,0A11.73,11.73,0,0,0,8.18.28,2.32,2.32,0,0,1,10,1.11,12.27,12.27,0,0,1,12,4a39.15,39.15,0,0,0,4.37,8c1.13,1.49,2.36,2.92,3.41,4.46s1.85,3.26,2.91,4.81c2.24,3.28,4.59,6.49,6.57,10a37.21,37.21,0,0,0,3.14,4.22.67.67,0,0,0,.62.19.74.74,0,0,0,.39-.51,13.79,13.79,0,0,0,.2-4.2,91,91,0,0,1-.37-10.18,32.73,32.73,0,0,1,.2-4.2,26.29,26.29,0,0,0,.24-5.61,9.15,9.15,0,0,1,1.37-5.36,4.35,4.35,0,0,1,4.44-2.19,10.42,10.42,0,0,1,2,.51c3.47,1.33,3.6,1.86,4,5a16.36,16.36,0,0,1,.11,2.8c-.11,2.35-.32,4.68-.41,7-.08,2.11-.17,4.22-.07,6.32.2,4.21.53,8.42.8,12.63q.54,8.24,1.09,16.48c.08,1.28.12,2.57.17,3.86a10.86,10.86,0,0,0,0,1.4c.72,4.52.86,9.09,1.39,13.62.07.58.22,1.15.34,1.73a33.37,33.37,0,0,1,.37,8,4.48,4.48,0,0,1-1.62,3,2.25,2.25,0,0,1-1.26.54c-1.62.2-3.26.35-4.89.45a2.89,2.89,0,0,1-2.23-.88,7.51,7.51,0,0,1-2.48-4.53,5.21,5.21,0,0,0-.44-1.69c-1-2.12-1.34-4.48-2.24-6.64A7,7,0,0,1,34,72q-1.12-5.15-2.6-10.2c-.32-1.12-.68-2.24-1.05-3.35-.62-1.89-1.24-3.78-1.9-5.65s-1.31-3.76-2.09-5.58c-.87-2-1.88-4-2.85-6a8.73,8.73,0,0,0-.91-1.49,21.5,21.5,0,0,1-2.89-4.8c0-.13-.41-.23-.59-.19a.73.73,0,0,0-.45.44,16.69,16.69,0,0,0-.26,2.44c0,2.46,0,4.92,0,7.38a92.22,92.22,0,0,0,.41,9.83,28.34,28.34,0,0,1-.09,6.31,34.08,34.08,0,0,0-.23,3.5c-.1,3.28-.24,6.55-.6,9.82a72.15,72.15,0,0,1-1.28,9,12.23,12.23,0,0,0-.18,2.1A64,64,0,0,1,15.5,94a28.61,28.61,0,0,0-.28,5.25,45.54,45.54,0,0,1-.43,6,32.11,32.11,0,0,0-.34,4.9,13.14,13.14,0,0,1-.39,3.48,20.58,20.58,0,0,0-.48,3.82c-.1,1.63-.29,3.26-.42,4.89-.1,1.28-.22,2.57-.24,3.85-.1,6.12-.33,7.47-2.35,13a5.17,5.17,0,0,1-.36.59.68.68,0,0,1-.91.11,5.76,5.76,0,0,1-1.63-3.41c-.14-1.4-.25-2.8-.36-4.2a33.56,33.56,0,0,0-.72-5.57,3,3,0,0,0-1-1.78,2.5,2.5,0,0,1-1-2.14c0-2,0-4,0-6C4.56,114.08,4.5,111.39,4.45,108.38Z"/></svg>