<svg id="Layer_1" data-name="Layer 1" xmlns="http://www.w3.org/2000/svg" viewBox="0 0 67.25 102.61"><path d="M48.53,102.48c-.14.21-.72.15-.91-.11"/><path d="M0,85c.12-.69.24-1.86.5-3,.45-1.85,1-3.68,1.5-5.5.32-1.09.72-2.14,1.08-3.22s.7-2.15,1.06-3.22a10.88,10.88,0,0,1,.47-1.43,38.45,38.45,0,0,0,2-5.66c.54-2,1.25-3.82,1.68-5.83a31,31,0,0,1,1.81-5.36,39.17,39.17,0,0,0,1.91-5.72,29,29,0,0,1,1.29-3.95,32.75,32.75,0,0,0,1.88-6.52c.25-1.39,1-2.49,1.19-4a21,21,0,0,1,1.29-3.93,12.53,12.53,0,0,0,.41-1.45,1.34,1.34,0,0,0-.92-1.7c-.73-.06-1.47-.06-2.2-.14a.7.7,0,0,1-.46-.46,4,4,0,0,1,.7-4.19c.31-.34.57-.92.93-1,1.08-.29,1.69-1.45,2.67-2A13.83,13.83,0,0,1,22.6,15a15.22,15.22,0,0,0,4.22-1.58,7.53,7.53,0,0,1,2.9-1.35.74.74,0,0,0,.56-.31c.61-1.22,1.62-1.08,2.55-1.15a3,3,0,0,0,2.26-1.06c.58-.67,1.54-.76,2.12-1.58a.83.83,0,0,1,.56-.33c1.94-.07,3.5-1.77,5.44-1.86a1.8,1.8,0,0,0,.89-.35,7.89,7.89,0,0,1,3.63-1.22,2.71,2.71,0,0,0,1.49-.52,4.54,4.54,0,0,1,2.63-1.14,4.14,4.14,0,0,0,1.22-.39A10.92,10.92,0,0,1,58.32,1a7.07,7.07,0,0,0,3-.86C62.48-.3,63.48.25,64,1.57a9.56,9.56,0,0,1,.77,5.61,21.25,21.25,0,0,0-.15,6.17,60.15,60.15,0,0,1-.11,12c-.19,1.66-.24,3.35-.32,5a27.7,27.7,0,0,1-.58,5.75,6.46,6.46,0,0,0-.16,1.53c-.08,3.11-.16,6.21-.2,9.31-.06,3.5-.07,7-.12,10.48a22,22,0,0,0,.42,5,15.93,15.93,0,0,1,.4,2.67c.19,4.26.95,8.45,1.11,12.72.06,1.4,0,2.89.91,4,.36,1.34.73,2.68,1.09,4,.57,2.19-.31,3.36-1.39,4.76a4.25,4.25,0,0,1-1.3,1.06.89.89,0,0,1-.89,0,3.32,3.32,0,0,0-1.7-.92,1.68,1.68,0,0,1-.92-.22c-1.9-1.5-4-1.27-6.14-1.35l-8.2-.3c-.42,0-.85,0-1.27,0-7.47.43-14.95.19-22.42.12-2.74,0-5.47.15-8.21.25-.31,0-.72,0-.91.24-1.3,1.52-3.28.85-4.62,2.25a2,2,0,0,1-1.2.43c-.94.11-1.89.11-2.84.21a4,4,0,0,1-3.6-2A6.66,6.66,0,0,1,0,85.83C0,85.7,0,85.57,0,85Zm37.31-5.14c6.48.14,13.21-.47,20,0a4.32,4.32,0,0,0,.94-.08,1.12,1.12,0,0,0,.85-1c0-1.42.08-2.85,0-4.25-.43-4.63-.37-9.3-.84-13.93a6.6,6.6,0,0,1,0-.77c.16-2.71.07-5.42,0-8.13-.11-4.27,0-8.54.1-12.81a8.31,8.31,0,0,1,.18-2.31c.8-2.48.7-5.07.73-7.65q.07-5.43.06-10.87c0-2.07-.06-4.14-.11-6.2,0-.69-.46-1.29-1-1.31-1.15,0-2.31,0-3.47,0a6.39,6.39,0,0,0-3.68.85,9.46,9.46,0,0,1-2.12.72,7,7,0,0,0-1.78.7,4,4,0,0,1-2.41.78,5.89,5.89,0,0,0-3.32,1,5.07,5.07,0,0,1-2.15.51,34.35,34.35,0,0,0-4.37.73,62.14,62.14,0,0,0-7.27,2.56,1.85,1.85,0,0,0-1.17,1.66,9.57,9.57,0,0,1-.84,3.69c-.09,1.58-.95,2.88-1.1,4.42a10.55,10.55,0,0,1-1.32,3.89,3.73,3.73,0,0,0-.62,1.74,10.51,10.51,0,0,1-1.28,4.32,10.73,10.73,0,0,0-1,3.22,30.28,30.28,0,0,1-1.72,6.22c-1.09,1.5-1.34,3.49-2,5.24-.48,1.28-.63,2.76-1.35,3.9-.83,1.3-.74,2.94-1.19,4.38-.11.36-.33.67-.45,1a27.6,27.6,0,0,0-1.1,3.21A60.88,60.88,0,0,1,10,73.27c-.73,1.86-.82,4-1.82,5.73a2.86,2.86,0,0,0,0,1.15,1.09,1.09,0,0,0,1,1.21,20.68,20.68,0,0,0,5.27-.87,5.82,5.82,0,0,1,2.46-.57c1.58,0,3.16-.07,4.74-.08C26.76,79.83,31.92,79.84,37.33,79.84Z"/><path d="M40.83,49c0,1.16,0,1.81,0,2.45a23.26,23.26,0,0,1-1.25,8.28A8.75,8.75,0,0,1,38.37,62a1.55,1.55,0,0,1-2,0,1.41,1.41,0,0,1-.37-.59c-.41-2-.83-4-1.17-6a11.94,11.94,0,0,1-.06-2.32c0-1.54.15-3.09.11-4.63A12.6,12.6,0,0,1,36,43.28,1.85,1.85,0,0,1,37.5,42a11.82,11.82,0,0,1,1.88,0,1.62,1.62,0,0,1,1.35,1.4A21.87,21.87,0,0,1,41,46.05C41,47.2,40.86,48.36,40.83,49Z"/></svg>