<svg id="Layer_1" data-name="Layer 1" xmlns="http://www.w3.org/2000/svg" viewBox="0 0 87.55 149.77"><path d="M12.57,65.36c1.18-1.53,3.08-1.81,4.73-2.62a15.77,15.77,0,0,1,3.08-1,4.38,4.38,0,0,0,2-1,3.49,3.49,0,0,1,1.15-.59c.3-.13.68-.11.93-.3A7.71,7.71,0,0,1,28.61,58a2.61,2.61,0,0,0,1.12-.66,3.59,3.59,0,0,1,1.76-.83,3,3,0,0,0,2-1.08,2.34,2.34,0,0,1,1.73-.81l1.29-.11a3.39,3.39,0,0,0,2.1-.8,3.26,3.26,0,0,1,2.08-.85,7.79,7.79,0,0,0,3.66-1.26,3.32,3.32,0,0,1,1.83-.58,5.15,5.15,0,0,0,4-1.81l.76-.72A10.51,10.51,0,0,0,50.52,43a44.47,44.47,0,0,1-2.14-7.1,15.81,15.81,0,0,0-1.19-3.29,10.08,10.08,0,0,1-1-3.74,1.42,1.42,0,0,0-.13-.7c-1.4-2.1-1.32-5.05-3.16-6.9a36.65,36.65,0,0,0-1.55-3.51,32.83,32.83,0,0,1-1.75-3c-.89-.56-.84-1.95-1.77-2.46-.86-1.36-1.77-2.68-2.54-4.1a5.77,5.77,0,0,1-.66-3.44c.06-.47.15-.94.17-1.42A3.33,3.33,0,0,1,37.37.1a1,1,0,0,1,1.21.2,2.74,2.74,0,0,0,2.23,1.2A2.1,2.1,0,0,1,42.6,2.73c.82,1.34,2.14,2.29,2.54,4,0,.18.31.35.5.4A2.23,2.23,0,0,1,47.16,8.3c.44.81,1,1.54,1.48,2.31.94.18,1.26,1.29,2,1.68,1,.54,1.42,1.7,2.39,2.29s1.57,1.59,2.55,2.11a2.11,2.11,0,0,0,2,1.45,1.1,1.1,0,0,1,.81.47A2.63,2.63,0,0,0,60.21,20c.21,0,.49.11.58.28.68,1.16,2.08,1.27,2.75,2.36.47.76,1.34.83,1.79,1.44a3.16,3.16,0,0,0,1.74,1.42.88.88,0,0,1,.55.36C68.16,27,69.3,27.23,70.07,28s1.78,1.36,2.19,2.54c.85.32,1.29,1.25,2,1.73s1.32,1.58,2.12,2.11,1.27,1.6,1.92,2.36c.29.35.57.9.91,1,1.26.23,1.68,1.43,2.28,2.35.5.75,1,1.5,1.49,2.25.68,1,1.41,2,2,3.14a2.7,2.7,0,0,1,.28,2.36A24.15,24.15,0,0,1,83.88,51a13.6,13.6,0,0,1-2.19,2.59,2.65,2.65,0,0,1-1.74.8c-.86.09-1.72.1-2.57.24a6.44,6.44,0,0,0-2.18.57,9.51,9.51,0,0,1-4,1.31,2.24,2.24,0,0,0-.63.16A17.42,17.42,0,0,1,65,58.17c-.92.08-1.69,1.75-1.41,2.85.31,1.26.64,2.52,1,3.75a1.12,1.12,0,0,0,.72.6,5.4,5.4,0,0,0,1.6.15,11.61,11.61,0,0,1,5.33,1.13,7.8,7.8,0,0,0,2.47.73,4.19,4.19,0,0,1,2.66,1.11c.49.46,1.1.76,1.6,1.21a5.78,5.78,0,0,0,3.26,1.54,14.38,14.38,0,0,0,0,1.48.63.63,0,0,0,1,.5,1.22,1.22,0,0,1,2,.28A3.48,3.48,0,0,0,86.94,75a1.06,1.06,0,0,1,.58,1.16c0,.46-.22.91-.28,1.38a2.43,2.43,0,0,0,0,1c.12.42.55.87.1,1.23a2,2,0,0,1-1.22.23,4.16,4.16,0,0,1-2.7-1,3.78,3.78,0,0,0-1.75-.83,6.82,6.82,0,0,1-1.24-.38,11.64,11.64,0,0,0-6.26-1.12,44.8,44.8,0,0,1-5.79,0,3.61,3.61,0,0,0-1.26.2,1.89,1.89,0,0,0-1.31,1.45,13.41,13.41,0,0,0-.23,2.83c.12,4.05.29,8.11.45,12.16a1.76,1.76,0,0,0,0,.7c1.1,2.1.64,4.43.76,6.64.22,4.17.19,8.35.24,12.53a41.22,41.22,0,0,1-.83,8.87,21.89,21.89,0,0,0-.45,5,76.14,76.14,0,0,1-.4,8.93,4.59,4.59,0,0,1-.16,1.41c-.83,1.79-.61,3.71-.68,5.61,0,.83-.12,1.66-.19,2.49a6.24,6.24,0,0,1-1.08,2.94,2.15,2.15,0,0,1-1.25,1,12.6,12.6,0,0,1-1.9.4,3.69,3.69,0,0,1-3.26-1.19,10.76,10.76,0,0,0-1-.95,2.59,2.59,0,0,1-.83-1.49A42.71,42.71,0,0,0,53.78,141a6.91,6.91,0,0,1-.17-1.77c-.16-4.17-.55-8.34-.36-12.52a7.63,7.63,0,0,0,0-1.07,61.6,61.6,0,0,1,.15-10c.16-2.61.12-5.24.15-7.86.07-5.85.1-11.7.22-17.54.07-3,.3-6,.47-8.93,0-.48.1-1,.15-1.42.39-3.45-1.47-4.76-4.15-5-2-.18-4.07-.07-6.11-.24A21.11,21.11,0,0,0,40,75a2,2,0,0,0-.89.38c-2.48,1.9-5.32,2.45-8.24,2.69-.86.07-1.72.11-2.57.14a6,6,0,0,0-3.39,1,5.66,5.66,0,0,1-3.39.93c-1.39,0-2.79,0-4.19,0a22.47,22.47,0,0,0-5.76.64,5.12,5.12,0,0,1-2.85-.07,15.66,15.66,0,0,0-4.46-.63,1.81,1.81,0,0,1-1.61-1,29.43,29.43,0,0,1-2.45-5c-.57-1.6.62-4.34,1.87-4.87a8.3,8.3,0,0,0,2.92-1.44c.28-.28.8-.28,1.21-.39a3.71,3.71,0,0,0,1.24-.32c.79-.57,1.38-1.46,2.48-1.45A20.2,20.2,0,0,0,12.57,65.36ZM56.88,30.74l-.6,0a.84.84,0,0,0-.73,1C56,33.42,56,35.29,57,36.79c.23,2.14,1.45,3.92,1.74,6.06a6.14,6.14,0,0,0,2.58,3.93,1.35,1.35,0,0,0,.92.12,2.12,2.12,0,0,0,.9-.35,7.75,7.75,0,0,1,4.3-1.23l1.28,0a1.57,1.57,0,0,0,1.13-.58c.22-.26.46-.5.68-.76a1.77,1.77,0,0,0,.21-2,19.12,19.12,0,0,0-1.13-1.69c-1.06-.26-1.19-1.76-2.12-2-1.11-.35-1.62-1.48-2.57-2.06S63,34.33,61.76,33.85c-.69-1-1.95-1.1-2.62-2A2.6,2.6,0,0,0,56.88,30.74ZM53,65.2a19.9,19.9,0,0,0,1.2-1.78.82.82,0,0,0-.17-1,2.18,2.18,0,0,0-.77-.58,16.52,16.52,0,0,0-6.68.12,2.66,2.66,0,0,0-1.18.52,6.46,6.46,0,0,1-3.32,1.16,3.49,3.49,0,0,0-2.12.67.74.74,0,0,0-.19.27c-.12.28-.05.5.22.55a18.15,18.15,0,0,0,2.52.34c2.78,0,5.55,0,8.33,0A16.52,16.52,0,0,0,53,65.2Z"/></svg>