<svg id="Layer_1" data-name="Layer 1" xmlns="http://www.w3.org/2000/svg" viewBox="0 0 95.83 112.42"><path d="M92.5,111.68c-.69.88-.87.92-1.37.4a9.4,9.4,0,0,1-1.87-2.85,6.11,6.11,0,0,0-1-1.85c-.67-.67-1.43-1.06-1.81-2.26a7.16,7.16,0,0,0-1.74-2.46c-.63-.72-1.08-1.76-1.66-2.58a32.15,32.15,0,0,0-2.62-3.34,4.59,4.59,0,0,0-2.73-1.67c-.17,0-.33-.19-.59-.35-.09-.39-.21-.87-.31-1.36a2.38,2.38,0,0,0-1.29-1.86,1.54,1.54,0,0,1-.89-.81c-.32-1.17-1.29-1.47-1.61-2.61-.71-.47-.88-1.65-1.43-2.27s-.91-1.88-1.83-2.27a7.31,7.31,0,0,1-2.07-1.9,10.71,10.71,0,0,1-.94-1.47c-2.09,0-4.21,0-6.32-.06-3.86,0-7.73,0-11.59-.08a33.11,33.11,0,0,1-4.66-.35,10,10,0,0,0-1.63-.12,6,6,0,0,1-2.44-.5A10.66,10.66,0,0,0,36,78.19a26.19,26.19,0,0,1-4.67-.44A36.21,36.21,0,0,0,24,77.39a2.09,2.09,0,0,0-.55.08c-1.54.36-3.08-.29-4.66.21a18,18,0,0,1-4.39.5c-1.56.11-3.12.14-4.69.22a41.61,41.61,0,0,1-6.88-.2,1.6,1.6,0,0,1-1.55-1.34,2.63,2.63,0,0,1-1-2.51c-.46-2.75,0-5.46.17-8.18,0-.57.38-.83.6-1.23A16.52,16.52,0,0,0,2.68,61c.31-1.22.73-2.38,1-3.61a24.86,24.86,0,0,1,1.39-3.37,17.91,17.91,0,0,0,1.5-4.13,3.34,3.34,0,0,0,.78-2.36c.08-.82.26-1.47.9-1.78a2.64,2.64,0,0,0,1.22-2,5,5,0,0,1,.74-2.06c.73-1,.63-2.76,1.58-3.59.48-1.26,1.05-2.47,1.42-3.79a11.43,11.43,0,0,1,1.21-3,8.91,8.91,0,0,0,1.35-3.78,6.62,6.62,0,0,1,.58-2.17A6,6,0,0,0,17,23.24c.07-.92.12-1.86.8-2.36.86-2.59,1.83-5.1,2.66-7.71a6,6,0,0,0,.19-1.54c0-1.61,1.1-2.34,1.52-3.62.06-.19.3-.3.47-.35a13.9,13.9,0,0,0,2.89-1.22,2.22,2.22,0,0,1,2.42.19c.23.16.6.33.77.18,1.19-1.07,2.52-.58,3.78-.77A26.76,26.76,0,0,1,36,5.85a38.51,38.51,0,0,0,6.33-.51A16.48,16.48,0,0,1,46,5.23c.75,0,1.14-.65,1.67-1.31l2.14-.08c.37,0,.74,0,1.1,0C53.54,3.6,53,4.09,55.53.6c.67-.93,1.53-.78,2,.44.09.23.12.51.23.72s.26.47.4.47c1.15,0,1.78,1.79,3,1.7.3,0,.66.43.93.76A14.82,14.82,0,0,1,63,6.13a3,3,0,0,1,0,3.16A8.81,8.81,0,0,0,62,12a9.17,9.17,0,0,0-.06,3.87,29.9,29.9,0,0,1,.9,6.93A3.06,3.06,0,0,0,63,24a11,11,0,0,1,.63,3.4c.06,1.37.72,2.41.92,3.68s.33,2.58.49,3.87a.76.76,0,0,0,.11.35A6.28,6.28,0,0,1,66,38.9a6,6,0,0,0,.78,3.25A5,5,0,0,1,67.1,44c.16,1.55.15,3.17,1,4.37a31.23,31.23,0,0,1,1.42,6.76,4.26,4.26,0,0,0,.83,2.76,3.31,3.31,0,0,1,.42,1.42,5.11,5.11,0,0,0,.79,2.44,3.77,3.77,0,0,1,.34,1.44,25,25,0,0,0,.39,2.68c.22.82.71,1.44,1,2.31a8.28,8.28,0,0,0,1,1.76,1.43,1.43,0,0,0,.94.73,1.56,1.56,0,0,1,1.12,1c.09.22.27.37.37.58A15.22,15.22,0,0,1,78,74.83c.29.93,1.15,1,1.28,2s1.1,1.33,1.22,2.5c.08.73.8.52,1,1.07.4.88.8,1.75,1.16,2.65a2,2,0,0,0,.81,1,.84.84,0,0,1,.4.49c.24,1.57,1.18,2.22,2,3,.3.32.5.76.76,1.06a1.88,1.88,0,0,1,.6,1.57,1.42,1.42,0,0,0,.49,1.3,2.3,2.3,0,0,1,.91,1.35,29.39,29.39,0,0,0,1.28,3.88,7.17,7.17,0,0,0,1.51,2.18,3.49,3.49,0,0,1,1,2.21,3.66,3.66,0,0,0,.9,1.86,16.4,16.4,0,0,1,2.41,4.2,13.29,13.29,0,0,1-.07,3.57c-.16,1.07-.86,1.79-1.65,1.62a12.16,12.16,0,0,1-1.59-.58l0-.22ZM59.76,70.16a6.09,6.09,0,0,0-1.53-4.07c-.37-.35-.62-1-1-1.33a2.46,2.46,0,0,1-.69-1.6,4.83,4.83,0,0,0-.73-2.06,3.11,3.11,0,0,1-.06-2.93,21.23,21.23,0,0,1,2-3.73,2.07,2.07,0,0,1,1.17-.89c.36-.06.73-.08,1.09-.16a1.43,1.43,0,0,0,1-1.23,7.73,7.73,0,0,0,.22-1.91A9.45,9.45,0,0,0,60.78,48a18.33,18.33,0,0,1-.84-4.53,3.13,3.13,0,0,0-.2-1.14c-1-2.07-.58-4.91-1.78-6.89a3,3,0,0,1-.2-1.13c0-.78-.07-1.57-.1-2.35a3.88,3.88,0,0,0-.46-1.8,3.76,3.76,0,0,1-.44-1.41c-.17-1.55-.22-3.13-.44-4.67s-.59-3-.86-4.53c-.13-.76-.14-1.55-.23-2.33A6.52,6.52,0,0,0,55,15.68c-1-2.61-.8-2.83-2.88-2.57a5.06,5.06,0,0,0-3.15,1.18.67.67,0,0,1-.78-.08,1.77,1.77,0,0,0-2.8,0,2.8,2.8,0,0,1-1.56.64,25.83,25.83,0,0,1-3,.27c-1.65.06-3.3.08-5,.07a4.39,4.39,0,0,0-2.93.88,4.92,4.92,0,0,1-2.38.9c-.45.07-.91.11-1.37.16-.65.07-.59.18-1.52,1.3a4.15,4.15,0,0,0-1.18,2.5A2.39,2.39,0,0,1,26.13,22c-.71.82-.75,2.06-1.11,3.08a31,31,0,0,0-1.3,4.29,2.46,2.46,0,0,1-.46.93c-.65.82-.52,2.22-1.15,3.07a3.2,3.2,0,0,0-.3,1.09,30.34,30.34,0,0,1-1.57,4.8c-.78,1.89-1.95,3.45-2.37,5.65-.06.33-.36.55-.53.85a2.86,2.86,0,0,0-.43,1,7.41,7.41,0,0,1-1.16,3.06c.09,1.53-1.08,2-1.33,3.28a14.41,14.41,0,0,0-1.86,3.84,5.19,5.19,0,0,0-.39,1.44c-.13,1.17-.14,2.39-1.08,2.94a7.19,7.19,0,0,0-.44,4.5c.14.53.45.9.82.92a20.63,20.63,0,0,0,3.85,0,24.72,24.72,0,0,1,3.84-.21c1.84,0,3.67,0,5.5-.08.34,0,.67-.37,1-.5s.58-.2.77,0c1.18,1,2.49.72,3.75.8,2.75.15,5.5.26,8.26.31a2.83,2.83,0,0,1,2.34.8,1.72,1.72,0,0,0,1.05.43c2.65.36,5.3.54,8,.65.09,0,.18-.05.27-.06,1.66-.21,3.28-.22,4.73,1.29a.94.94,0,0,0,1.53-.18c.38-.5.7-.57,1.17,0A1.44,1.44,0,0,0,59.76,70.16Z"/></svg>