<svg id="Layer_1" data-name="Layer 1" xmlns="http://www.w3.org/2000/svg" viewBox="0 0 85.65 114.02"><path d="M41.17,70.88a19,19,0,0,0-.35,4.85A77.83,77.83,0,0,1,41,86.31c0,.52-.08,1,0,1.55.17,3.13-.41,6.21-.67,9.3a51.11,51.11,0,0,1-.7,5.24,19.32,19.32,0,0,1-1.11,4.84,7.73,7.73,0,0,0-.44,1.81,6.5,6.5,0,0,1-1.71,3.25,3.83,3.83,0,0,1-3.25,1.51,3.78,3.78,0,0,0-.92.16,2.87,2.87,0,0,1-2.33-.63c-.9-.69-1.75-1.46-2.61-2.2a1.87,1.87,0,0,1-.42-.47,15.16,15.16,0,0,1-2-4.54,54,54,0,0,1-1.11-8.32c-.18-5.18-.3-10.36-.4-15.55-.1-5,.38-10,.4-14.93,0-.62,0-1.24,0-1.86a1.38,1.38,0,0,0-1.08-1.35q-4.92-.71-9.85-1.38c-.61-.08-1.25,0-1.86-.14a10.35,10.35,0,0,1-3-.65c-1.11-.57-2.34-.84-3.39-1.5A9.56,9.56,0,0,1,.17,55,3.49,3.49,0,0,1,1.42,51c1.3-1,2.52-2.19,4.21-2.57a1.43,1.43,0,0,0,.58-.24c1.87-1.67,4.4-2.24,6.38-3.76a17.34,17.34,0,0,1,3-1.7,59.07,59.07,0,0,0,6-3.85,1.37,1.37,0,0,0,.53-1.39,22.73,22.73,0,0,0-.53-2.42c-.32-1.2-.65-2.4-1.05-3.58a10.93,10.93,0,0,0-1.22-2.84,69.18,69.18,0,0,1-3.75-6.44,9.8,9.8,0,0,0-1.8-2.53,2.89,2.89,0,0,1-.56-.73,15.69,15.69,0,0,0-3.51-4.64c-.45-.43-.85-.91-1.3-1.34a3.24,3.24,0,0,0-1-.7,8.27,8.27,0,0,1-4.5-4.5,6.06,6.06,0,0,1-.14-4.55,1.93,1.93,0,0,1,.48-.8C4.91.8,6.83-.38,9.33.11c2,.4,4.13.48,6.06,1.33a1.83,1.83,0,0,0,.6.15,12.87,12.87,0,0,1,5.29,1.67A12.55,12.55,0,0,0,24,4l2.4.68c1.39.41,2.56,1.32,4,1.67a31.43,31.43,0,0,1,3.82,1.33c.68.25,1.32.6,2,.88l4.59,1.92c.67.28,1.34.55,2,.87,1.12.55,2.21,1.14,3.32,1.71a12.8,12.8,0,0,1,1.38.71c3.62,2.42,7.43,4.54,11,7.07,1.17.84,2.64,1.29,3.74,2.2s2,1.82,3.09,2.6a21.44,21.44,0,0,1,2.72,2,3.9,3.9,0,0,0,1.34.78A5.31,5.31,0,0,1,72,29.91c.23.27.74.32,1.13.45s1.13.14,1.47.45c1.35,1.25,2.94,2.32,3.56,4.2a3.12,3.12,0,0,1-.1,2.42c-.55,1.12-1.12,2.22-1.75,3.29a6,6,0,0,1-1,1.14,2.06,2.06,0,0,1-1.73.54A14.13,14.13,0,0,1,71.42,42c-.7-.19-1.37-.47-2-.72a11.85,11.85,0,0,0-4.22-1,1.1,1.1,0,0,1-.31,0,16.86,16.86,0,0,0-8-.08,17.44,17.44,0,0,1-2.16.26A20.81,20.81,0,0,0,47.41,42a8.22,8.22,0,0,1-1.2.34c-.3.07-.61.13-.92.18-1.35.24-2.45,1.1-3.72,1.56s-2.46.44-3.55,1.1c-.27.17-.56.28-.81.46a2.3,2.3,0,0,0-1.07,1.81A10.41,10.41,0,0,0,38,53.91a2.11,2.11,0,0,0,.71.57,3.39,3.39,0,0,0,.87.33A5.6,5.6,0,0,1,42,56.05a6.6,6.6,0,0,0,3.08,1.42,6.45,6.45,0,0,1,3.11,1.33,1.74,1.74,0,0,0,.84.38c1.86.19,3.22,1.35,4.61,2.41a8.09,8.09,0,0,0,2.11,1.29,10.5,10.5,0,0,1,4.07,2.78A7,7,0,0,0,62,67.39a6.44,6.44,0,0,1,1.74,1.3,51.12,51.12,0,0,0,5.7,4.25,3.47,3.47,0,0,1,1.34,1.65,11.28,11.28,0,0,1,.7,2A6,6,0,0,0,74,80.46a32.83,32.83,0,0,1,2.68,2.59c.95,1,1.72,2,2.72,3a6.53,6.53,0,0,1,1.1,1.49c.54.88,1,1.8,1.54,2.69.15.27.29.62.53.74,1.22.6,1.58,1.88,2.29,2.87a5,5,0,0,1,.55,4.47.62.62,0,0,1-.47.33A3.62,3.62,0,0,1,82.85,98c-2.65-1.63-5.28-3.29-7.92-4.94a2,2,0,0,1-.48-.38c-1.75-2.15-4.39-3.09-6.47-4.79a4,4,0,0,0-1.38-.71c-1.55-.46-2.59-1.7-3.9-2.51-1.16-1.55-3-2.26-4.45-3.36-1.07-.8-2.46-1.12-3.36-2.2a11.14,11.14,0,0,1-4.41-2.76,9.91,9.91,0,0,0-1.37-.73,9.23,9.23,0,0,1-1.82-1.16,23.19,23.19,0,0,0-5.71-3.67C41.51,70.79,41.38,70.85,41.17,70.88Zm8.28-43.07c-.12-.56-.6-.79-1-1.14-1-1-2.61-.79-3.58-1.78a14.61,14.61,0,0,0-3.67-2.3,8.13,8.13,0,0,0-.85-.38c-2-.76-4.07-1.53-6.12-2.26a16.33,16.33,0,0,1-2-.82,36.27,36.27,0,0,0-6.42-2.27,1.61,1.61,0,0,0-.31,0,1.07,1.07,0,0,0-1.09,1.46c1.07,2.24,2.17,4.46,3.27,6.68a2.78,2.78,0,0,0,.53.77A10.72,10.72,0,0,1,30,28.31a13.11,13.11,0,0,0,1.37,2.08,10.18,10.18,0,0,1,1.45,2.38,1.4,1.4,0,0,0,1.72.95A8.78,8.78,0,0,0,38,32.5a22.27,22.27,0,0,1,2.76-1.39,36.39,36.39,0,0,0,4.36-1.64,4.9,4.9,0,0,1,1.5-.34c.71-.15,1.43-.26,2.13-.43a1,1,0,0,0,.5-.34A2,2,0,0,0,49.45,27.81Z"/></svg>