<svg id="Layer_1" data-name="Layer 1" xmlns="http://www.w3.org/2000/svg" viewBox="0 0 83.07 91.79"><path d="M3.55,31.4c-.1-.45-.2-.85-.28-1.26a3,3,0,0,1,1.24-3.25c2.6-2,5.32-3.9,7.79-6.1A11.38,11.38,0,0,0,16,18a9.19,9.19,0,0,1,1.3-.82,6.16,6.16,0,0,0,1-.66,28.4,28.4,0,0,1,2.2-2.19c.81-.62,1.83-1,2.66-1.56a30.06,30.06,0,0,1,3.37-2.21c1.18-.62,2.26-1.4,3.51-2a21.54,21.54,0,0,0,3.18-1.9,52.75,52.75,0,0,1,7.2-3.63c1.3-.62,2.7-1,4.06-1.53a3.71,3.71,0,0,0,1.14-.44A3.56,3.56,0,0,1,47.94.38L53.53,0a3.93,3.93,0,0,1,1.82.33,2.27,2.27,0,0,1,1.1,3.11,1.85,1.85,0,0,1-1.69,1.17c-.93,0-1.86,0-2.79,0a3.17,3.17,0,0,0-1.76.51A21.46,21.46,0,0,1,44,7.69,2.1,2.1,0,0,0,43.1,8c-1.22,1-3,.88-4.11,2.08a2.13,2.13,0,0,1-1.06.6,8.91,8.91,0,0,0-3,1.5c-1.67,1-3.36,2-5,3.06-1.14.71-2.26,1.46-3.37,2.2A49.69,49.69,0,0,0,22,20.72c-.84.71-1.86,1.25-2.72,2-1.35,1.13-2.67,2.28-4,3.44a2.7,2.7,0,0,0-.35.51c-.23.34,0,1,.33,1,.82.07,1.65.16,2.47.15,1.76,0,3.52-.09,5.29-.13l9.32-.22c3.84-.09,7.68-.3,11.51-.22,2.9.06,5.81.05,8.71.22s5.59.21,8.39.28a6.51,6.51,0,0,1,2.74.49,6.75,6.75,0,0,0,3,.59c2.52,0,4.9.81,7.34,1.26a4.47,4.47,0,0,1,1.44.57,40.53,40.53,0,0,0,5.21,2.66A4.36,4.36,0,0,1,83,36.43a1.37,1.37,0,0,1-.1.89,6.13,6.13,0,0,1-1,1.59A36.93,36.93,0,0,0,78.88,42a1.35,1.35,0,0,1-.83.36,4.43,4.43,0,0,0-2,.85,6.33,6.33,0,0,1-2.39,1.38,15.53,15.53,0,0,0-2.39,1.36c-1.15.53-2.42.64-3.51,1.24s-1.89,1.29-2.91,1.78c-2,1-4,1.81-5.94,2.66a8,8,0,0,0-2.22,1.07,3.77,3.77,0,0,1-1.47.42,1.88,1.88,0,0,0-1.31.75A2.36,2.36,0,0,1,52.19,55a4.45,4.45,0,0,0-2,.85,14.85,14.85,0,0,1-4.73,2.3,2.83,2.83,0,0,0-.83.42,62.08,62.08,0,0,1-9.53,5.15,22.5,22.5,0,0,0-2.41,1.4c-1,.57-1.93,1.19-3,1.7a22.14,22.14,0,0,0-3.09,2.06c-.33.23-.56.62-.89.85-1.12.74-2.24,1.47-3.4,2.14a17.25,17.25,0,0,0-2.55,1.76c-1.11.92-2.32,1.73-3.49,2.59a3.08,3.08,0,0,0-.5.37c-2.83,2.86-6,5.34-8.39,8.69A10.49,10.49,0,0,1,5.72,86.9a11.86,11.86,0,0,0-.2,1.39c0,1.23-.82,2.09-1.4,3.06,0,.08-.16.12-.25.18A2.65,2.65,0,0,1,.45,90.4,7.84,7.84,0,0,1,2,82.56a42.13,42.13,0,0,1,3.79-4.11A27.46,27.46,0,0,1,9.1,75.17a31.33,31.33,0,0,0,3.25-2.87c1.54-.43,2.26-2.15,3.87-2.48a1.1,1.1,0,0,0,.54-.29c1.71-2,4-3.26,6-4.83A54,54,0,0,1,28,61.37c2.83-1.71,5.84-3.09,8.64-4.85,2.1-1.31,4.41-2.26,6.63-3.38a3.48,3.48,0,0,0,2.12-1.2A3,3,0,0,1,47,51.07a8.5,8.5,0,0,0,3.07-1.44,38.25,38.25,0,0,1,5-2.54,13.66,13.66,0,0,0,2.43-1.34,11.05,11.05,0,0,1,2.69-1.5A14.88,14.88,0,0,0,62.31,43a7.45,7.45,0,0,1,1.12-.49,5.53,5.53,0,0,0,1.17-.38c2.63-1.82,5.52-3.23,8.2-5a.63.63,0,0,0,0-1,5.85,5.85,0,0,0-2.23-1,10.72,10.72,0,0,1-3-.86,4.18,4.18,0,0,0-1.51-.29,39.06,39.06,0,0,1-4.31-.55,23.3,23.3,0,0,0-4.34-.32Q44.67,33,31.91,33c-2.08,0-4.15.14-6.23.22-1.35.05-2.7.08-4,.14-1,.05-2.07.15-3.11.2-1.65.07-3.31.17-5,.17-1.34,0-2.69-.08-4-.17A9.43,9.43,0,0,1,3.55,31.4Z"/></svg>