<svg id="Layer_1" data-name="Layer 1" xmlns="http://www.w3.org/2000/svg" viewBox="0 0 88.78 96.64"><path d="M6.38.37c.43,0,1,.19,1.48,0a2.83,2.83,0,0,1,2.79.08,8.29,8.29,0,0,0,3.79.74c1.83,0,3.65.05,5.48.05,4.61,0,9.22.25,13.83.59,2.24.16,4.5.15,6.74.52a2.91,2.91,0,0,0,1.28,0,9.09,9.09,0,0,1,4.15.14,46.41,46.41,0,0,0,7.71.6l8,0a3.15,3.15,0,0,0,2.4-.88,2.36,2.36,0,0,1,3.32-.14,5,5,0,0,0,3.37,1c1.5,0,3,.11,4.51,0a5.89,5.89,0,0,1,5,2.21,4.17,4.17,0,0,0,2.22,1.34c2,.55,3.94,1.22,5.9,1.87a.82.82,0,0,1,.4.56.75.75,0,0,1-.37.52c-.5.2-1,.32-1.55.48a11.11,11.11,0,0,0-2.46.82,7.16,7.16,0,0,1-3.09.94,3.22,3.22,0,0,0-1.83.59,4.28,4.28,0,0,1-3,1c-1.4,0-2.79,0-4.19.1-1.09,0-1.6.64-1.66,1.89,0,.79-.06,1.58,0,2.36,0,1.45.13,2.89.2,4.33a4.42,4.42,0,0,0,.09,1.17c.81,2.25.57,4.64.69,7,.1,2.1.29,4.19.41,6.29.4,6.68.59,13.38.72,20.08.06,2.89.35,5.77.62,8.64.24,2.62.42,5.23.41,7.86a10.68,10.68,0,0,0,.41,3.49,19,19,0,0,1,.7,5.82,22.71,22.71,0,0,0,.7,5.81,23.13,23.13,0,0,1,.59,4.26A3.05,3.05,0,0,1,75,95.18c-.35.29-.65.68-1,1a2,2,0,0,1-2.72-.08,7.33,7.33,0,0,1-1.54-2,12.06,12.06,0,0,1-1.36-4.77,10.6,10.6,0,0,0-.55-2.65,50.58,50.58,0,0,0-1.69-5.09c-.83-2-1.2-4.16-1.92-6.2A117.09,117.09,0,0,0,60,64q-1.23-2.55-2.29-5.19c-.7-1.75-1.75-3.27-2.19-5.2A8.37,8.37,0,0,0,54.57,52a60.44,60.44,0,0,0-4.85-7.71c-1.76-2.46-3.42-5-5.09-7.59A9.89,9.89,0,0,0,41,33a4,4,0,0,1-1-.91c-1.14-1.19-2.32-2.29-3.5-3.41a37.75,37.75,0,0,1-3.07-3.34c-.16-.19-.29-.46-.48-.53-1.48-.53-2.19-2.46-3.65-3a4,4,0,0,0-1.88-1.4c-.57-.24-1-1-1.55-1.29s-1.36-.23-1.83-.68c-1.29-1.21-3.09-1.15-4.24-2.69-.25-.34-.77-.42-1.18-.55a2.16,2.16,0,0,1-1.4-.87,1.56,1.56,0,0,0-1.4-.78c-.43,0-.86,0-1.28-.06a3.5,3.5,0,0,1-2.73-1,.94.94,0,0,0-.56-.34C9.48,12,8,10.89,6.32,10.38a11.45,11.45,0,0,0-2.55-.28A2.84,2.84,0,0,1,1.7,9.17c-.31-.35-.68-.64-1-1A1.91,1.91,0,0,1,.06,6.88,29.71,29.71,0,0,1,0,3.75a2.32,2.32,0,0,1,1-1.91C2.7.93,4.36-.09,6.38.37Zm38.9,11.47v0H31.44c-.76,0-1.51,0-2.26.05a4,4,0,0,0-.94.2.35.35,0,0,0-.19.25,1.5,1.5,0,0,0,.05.72A5,5,0,0,0,31,15.35c.8.14,1.07,1.23,1.78,1.61A24.78,24.78,0,0,1,36.26,19c1.16.9,2.09,2.27,3.29,3a12.47,12.47,0,0,1,2.77,2.61c.53.63.89,1.44,1.66,1.71.41,1.1,1.49,1.39,2,2.5a6.55,6.55,0,0,0,1.68,2.33A10.69,10.69,0,0,1,49.81,34c.3.52.81.84,1.13,1.34s.45,1.21.79,1.69C54,40.15,56,43.52,58.05,46.81a22.1,22.1,0,0,1,2.09,3.91c.31.81.87,1.48,1.26,2.26a19.39,19.39,0,0,0,1.25,2.72,9.36,9.36,0,0,1,1.44,3A5.18,5.18,0,0,0,64.73,60c.25.37.38.94.91.93.29,0,.54-.48.53-1.27,0-1.57-.09-3.15-.16-4.72A13,13,0,0,1,65.86,53a30.54,30.54,0,0,0-.25-6.27c-.23-2.48-.28-5-.37-7.47-.06-1.57,0-3.15-.06-4.73a11.11,11.11,0,0,0-.25-2.73,24.84,24.84,0,0,1-.74-6.61c0-2,0-3.94-.13-5.91a41.14,41.14,0,0,0-.4-4.3A10.62,10.62,0,0,0,63,12.83a1.36,1.36,0,0,0-1.27-1c-1.29,0-2.58,0-3.86,0Z"/></svg>