<svg id="Layer_1" data-name="Layer 1" xmlns="http://www.w3.org/2000/svg" viewBox="0 0 99.39 102.47"><path d="M65.06,26.82c-.51-.62-1.37-.9-1.67-1.74a7.35,7.35,0,0,0-.83-1.9c-.31-.44-1-.58-1.28-1.12-.54-.88-1.57-1.35-2-2.39a2.29,2.29,0,0,0-.93-1A14.32,14.32,0,0,1,55,15.22a10.58,10.58,0,0,0-2.31-2.12,26.9,26.9,0,0,1-6.84-7.27c-.46-.67-.9-1.35-1.34-2a1.76,1.76,0,0,1-.07-1.68c.23-.58.56-1,1.27-1a1.32,1.32,0,0,0,.34,0c.41-.1.48-.4.5-.76A.32.32,0,0,1,47,0c1.12.6,2.24,1.21,3.31,1.89a18.67,18.67,0,0,0,5.57,2.79A30.26,30.26,0,0,1,59.48,7.4a25.31,25.31,0,0,1,3.79,3.95,7.05,7.05,0,0,0,1.42,1.52c.53.43,1.2.65,1.53,1.36a1.42,1.42,0,0,0,.85.53,3.69,3.69,0,0,1,2.47,2.3,2.1,2.1,0,0,0,.95,1,6.92,6.92,0,0,1,2.72,2.62,18.8,18.8,0,0,1,3.5,4.25,5.83,5.83,0,0,0,1.69,1.74,7.05,7.05,0,0,1,1.41,1.47,33.84,33.84,0,0,1,2.73,3.15A9.91,9.91,0,0,0,84,33.16c.58.51.69,1.44,1.59,1.74.68.24.59,1.24,1.34,1.53s.76,1.41,1.51,1.85.78,1.13,1,1.79a2.38,2.38,0,0,0,.74,1.14,20.56,20.56,0,0,1,2.39,2.87,10.38,10.38,0,0,1,2,3.26,1.9,1.9,0,0,0,.65.79,1.76,1.76,0,0,1,.74,1.12,5.28,5.28,0,0,0,1.19,3.21,3,3,0,0,1,.49,1.63c.1.81.08,1.63.12,2.45a2,2,0,0,0,.67,1.54,3,3,0,0,1,.91,2.21c.08,1.74.09,3.49.09,5.24a4.9,4.9,0,0,1-.64,2.34,12.66,12.66,0,0,0-1,2.22,3.84,3.84,0,0,1-.91,1.43,9.61,9.61,0,0,0-1,1.8c-.17.29-.32.75-.57.82-1.61.47-1.93,2.29-3.15,3-1.39.81-3.21.53-4.67,1.36a2,2,0,0,1-1,.15,26.12,26.12,0,0,0-5.92.43,28.73,28.73,0,0,1-5.93.29c-3.14-.19-6.3.17-9.42-.37a4.1,4.1,0,0,0-1,0c-4.19.45-8.39.25-12.59.32s-8.4.08-12.6.13a18.5,18.5,0,0,0-2.79.15c-.79.13-1.52.53-2.3.72-1.35.35-2.72.63-4.32,1-.87,1.11-2.67,1.38-3.68,2.74a.89.89,0,0,1-.64.21c-1.29,0-2,.86-2.84,1.71-1.13,1.14-2.45,2.1-3.6,3.26-.42.41-.68,1-1.09,1.3-1,.81-1.4,2.17-2.7,2.62-.72,1-2.08,1.52-2.35,2.9-1,1.41-2,2.87-3.06,4.23a7.71,7.71,0,0,1-2.78,2,2.08,2.08,0,0,1-1.71,0A9.2,9.2,0,0,1,2,100a1.15,1.15,0,0,1-.31-.62A21.68,21.68,0,0,0,.29,95a3.21,3.21,0,0,1,.36-3.31,3.43,3.43,0,0,0,.76-2.27c-.07-2.79.23-5.59-.4-8.36A15.23,15.23,0,0,1,.79,78.3c-.1-2.68-.25-5.34-.59-8a34.8,34.8,0,0,1,0-5.59c0-.93.15-1.84.1-2.78a6,6,0,0,1,.43-2.38,14.61,14.61,0,0,0,.7-5.16c0-.93,0-1.87,0-2.8,0-1.17,0-2.33.1-3.5a4,4,0,0,1,.62-2.32,4.16,4.16,0,0,0,.89-2.24,3.52,3.52,0,0,1,.64-2.31,4.58,4.58,0,0,0,1-2.55,7.57,7.57,0,0,1,2.12-3.91c.22-.25.68-.41.75-.68.57-2.45,3-3.45,4.15-5.48a1.33,1.33,0,0,1,.89-.46,8.18,8.18,0,0,0,3.94-1.29,2.51,2.51,0,0,1,1.34-.32c1.74,0,3.5-.18,5,1a3.45,3.45,0,0,0,1.65.46,1.82,1.82,0,0,1,1.66,1.05c.36.83,1.41.8,1.9,1.48s1.16.7,1.83.91a2.12,2.12,0,0,1,.87.48,15.73,15.73,0,0,0,2.36,2.51c1,.63,1.45,1.8,2.6,2.19a17.51,17.51,0,0,0,3.31,3.46c.77,1.5,2.39,2.19,3.42,3.63.06.18.18.51.28.85l.93,3L42.7,50.85A9,9,0,0,0,40.89,52c-1.32,1.34-2.73,1-4.15.32a19.4,19.4,0,0,1-3-1.72,15.54,15.54,0,0,1-2.21-2.16,12.53,12.53,0,0,1-2.18-2.72,1.32,1.32,0,0,0-.73-.69c-1.35-.27-2.16-1.29-3.12-2.09s-1.92-1.66-2.8-2.55a2.42,2.42,0,0,0-1.52-.76,13.32,13.32,0,0,0-2.44-.14c-1.71.12-2.33.47-2.54,2.24a2.72,2.72,0,0,1-.74,1.54c-.46.52-.82,1.12-1.25,1.67a5.09,5.09,0,0,0-1.3,3.51,18.75,18.75,0,0,1-.23,2.79A2.29,2.29,0,0,1,12,52.77,1.78,1.78,0,0,0,11.42,54c-.17,2.67-.33,5.35-.52,8a61.81,61.81,0,0,0,.16,7.33c.11,2.33.14,4.66.22,7,0,.94,0,1.87.13,2.8.08.67.18,1.41,1,1.68a2.21,2.21,0,0,0,2.33-.13c.69-.65,1.59-1,2.27-1.59s1.32-1.31,2-2c.32-.32.64-.82,1-.88.92-.13,1.25-1.14,2-1.29,2.27-.47,3.79-2.2,5.73-3.22a3.37,3.37,0,0,1,1.62-.55,3.26,3.26,0,0,0,2.48-1.07A10.85,10.85,0,0,1,33.52,69a6.29,6.29,0,0,1,3.6-1.17,6.94,6.94,0,0,0,4.36-1c1.14-.19,2.29-.42,3.44-.56a4.63,4.63,0,0,0,2.32-.67,5,5,0,0,1,3-.83c1.63,0,3.26-.08,4.89-.16a19.83,19.83,0,0,0,2.78-.27,24.16,24.16,0,0,1,6.63-.18c3.6.32,7.21.29,10.82.5,1.74.11,3.49.19,5.24.28a4.31,4.31,0,0,1,2.3.72c1.48,1,2.83.67,4.1-.42.18-.15.37-.27.64-.47a19.68,19.68,0,0,0,.08-5.84,1.29,1.29,0,0,0-.4-.91,2.64,2.64,0,0,1-1.06-1.73,3.52,3.52,0,0,0-1.07-2.13,1.93,1.93,0,0,1-.56-1.23c-.13-1.84-1.16-3.29-2.07-4.75a9,9,0,0,1-1.29-2.43,2.53,2.53,0,0,0-1-1.34A8,8,0,0,1,79,42.8c-.83-1.12-2.2-1.71-2.9-2.95-1-.31-1.28-1.28-1.91-1.94a10.08,10.08,0,0,1-1.33-2A17.09,17.09,0,0,0,70.44,33c-.59-.65-.88-1.71-2-1.86a15.36,15.36,0,0,0-1.86-2.47c-.55-.6-1-1.28-1.5-1.93Z"/></svg>