<svg id="Layer_1" data-name="Layer 1" xmlns="http://www.w3.org/2000/svg" viewBox="0 0 75.44 97.15"><path d="M21.83,94.43c-.9.72-1.59,1.32-2.33,1.83A5.53,5.53,0,0,1,18,97a1.8,1.8,0,0,1-1.64-.17A9.1,9.1,0,0,1,14,94.42a1.87,1.87,0,0,1-.37-.93c0-1.74-.93-3.28-1-5s-.24-3.39-.3-5.09c-.06-2.16-.11-4.32-.07-6.48.08-4.08-.29-8.16-.16-12.25a5.16,5.16,0,0,0-.19-1.34,43,43,0,0,1-.9-9.13,50.41,50.41,0,0,0-.39-7.46c-.3-2.13-.39-4.28-.79-6.4A19.24,19.24,0,0,1,9.67,37a10.73,10.73,0,0,0-.5-3.69,18.44,18.44,0,0,1-.75-4.36,10,10,0,0,0-.05-1.35,39.91,39.91,0,0,1-1-3.93A19.07,19.07,0,0,0,6.64,20a23.55,23.55,0,0,1-.57-2.65c-.05-.22,0-.52-.12-.66-1-1.18-.94-2.77-1.57-4.07A9.34,9.34,0,0,1,3.5,10,2.69,2.69,0,0,0,3,8.83C1.73,7.32,1.14,5.46.22,3.77A2.68,2.68,0,0,1,2,.25,8.17,8.17,0,0,1,6,.26a2.54,2.54,0,0,1,.9.45c.71.57,1.4,1.16,2.06,1.78a2,2,0,0,1,.55.84A22.84,22.84,0,0,0,11.6,7.57a4.48,4.48,0,0,1,.64,1.56c.17,1.37,1.14,2.45,1.29,3.85a24.55,24.55,0,0,0,.93,3.61c.24.87.47,1.75.7,2.62a8.26,8.26,0,0,1,.4,1.65c.09,3.43,1.5,6.64,1.59,10.07a2.5,2.5,0,0,0,.07.67,16.32,16.32,0,0,1,.91,5.31,50.91,50.91,0,0,0,.5,5.75c.11,1.81.07,3.63.11,5.45a8.46,8.46,0,0,0,.08,1.34,2.21,2.21,0,0,0,.42.92.87.87,0,0,0,.6.22c.2,0,.54-.12.56-.24a16.65,16.65,0,0,1,1.94-3.92c.63-1.18.95-2.56,2-3.52.55-2.14,2.27-3.62,3.17-5.57.44-.93,1.41-1.43,2-2.27a9.8,9.8,0,0,1,1.45-2.27c1.75-1.44,2.91-3.46,4.82-4.74a14.83,14.83,0,0,0,1.83-1.95c.65-.62,1.38-1.17,2-1.77.34-.3.59-.73,1-.94,2.37-1.35,4.33-3.26,6.6-4.76a81.29,81.29,0,0,0,6.7-5.17,4.19,4.19,0,0,1,1.72-1,1.16,1.16,0,0,0,.62-.25c.73-1,2-1.05,2.86-1.76A20.55,20.55,0,0,1,62,8.74a6.38,6.38,0,0,0,.9-.47C65,6.5,67.6,5.61,70,4.27a8.52,8.52,0,0,1,4-.81,1.63,1.63,0,0,1,.93.37,1.39,1.39,0,0,1,.57.78A3.55,3.55,0,0,1,74,8.22a20,20,0,0,0-4,3.17,6.45,6.45,0,0,1-2.31,1.41,29.58,29.58,0,0,0-6.57,4.14,12.06,12.06,0,0,1-2.82,1.88A8.51,8.51,0,0,0,56.67,20l-1.61,1.22a9.15,9.15,0,0,0-1.34,1c-1.49,1.69-3.53,2.81-4.87,4.66-.25.35-.72.54-1.05.85-.59.55-1.51.48-2,1.16s-1.08,1.17-1.59,1.77a39,39,0,0,1-2.9,2.85,20.25,20.25,0,0,0-1.85,2,9.49,9.49,0,0,1-1.7,1.65,8,8,0,0,0-2,2.23c-.6,1-1.08,2-1.76,2.9a33,33,0,0,0-4.68,8.59c-.39,1-1.06,1.92-1.4,3a16.29,16.29,0,0,0-.94,3.24,2.83,2.83,0,0,1-.34,1A7,7,0,0,0,25.74,61a3.48,3.48,0,0,1-.29,1.32c-.92,1.89-1,3.95-1.27,6a4.82,4.82,0,0,1-.2,1.34c-.77,1.58-.74,3.3-.95,5a14.79,14.79,0,0,1-.34,2A24.45,24.45,0,0,0,22,83.4q0,4.25,0,8.51C22,92.7,21.9,93.49,21.83,94.43Z"/></svg>