<svg id="Layer_1" data-name="Layer 1" xmlns="http://www.w3.org/2000/svg" viewBox="0 0 83.02 143.23"><path d="M49.62,124.9c.06-.75.11-1.35.14-2a3.41,3.41,0,0,1,.63-2,5.14,5.14,0,0,0,.8-2.87,6.67,6.67,0,0,1,.9-3.16,5.78,5.78,0,0,0,.59-2.62,3.59,3.59,0,0,1,.79-2.23,2,2,0,0,0,.38-1.1c.07-.7,0-1.41.06-2.11a4.9,4.9,0,0,1,.68-2.59,4.67,4.67,0,0,0,.66-2.9,7.85,7.85,0,0,1,.87-4.07,7.74,7.74,0,0,0,.67-2.61,5.28,5.28,0,0,1,.44-2,6.38,6.38,0,0,0,.9-3.14A2.43,2.43,0,0,1,59,87.7a2.05,2.05,0,0,0,.39-1.11c.08-.59.07-1.2.11-1.8a5.53,5.53,0,0,1,.72-2.59A5.74,5.74,0,0,0,61,79a7.13,7.13,0,0,1,.47-2.65A14.53,14.53,0,0,0,62.28,72,7.18,7.18,0,0,1,63,69a6.65,6.65,0,0,0,.48-1.72,33.28,33.28,0,0,1,1.16-5A11.72,11.72,0,0,0,65,59.68,6.42,6.42,0,0,1,66.12,56a2.32,2.32,0,0,0,.29-1.14c.08-.8.08-1.61.14-2.41a4.66,4.66,0,0,1,.6-2.31,5,5,0,0,0,.65-2.6c0-.81.1-1.61.17-2.41a1.6,1.6,0,0,1,.21-.87c.91-1,.8-2.23.87-3.42a12.94,12.94,0,0,1,1-5,6.59,6.59,0,0,0,.53-2.64c0-.91,0-1.82.14-2.71a4.61,4.61,0,0,1,.45-1.73,7.48,7.48,0,0,0,.76-3.5c0-.7,0-1.41.09-2.11a4.23,4.23,0,0,1,.3-1.46,13.71,13.71,0,0,0,1-4.69c.13-1.5.27-3,.43-4.5A5.47,5.47,0,0,1,74,11a10.35,10.35,0,0,0,.67-3.24,11.92,11.92,0,0,1,1.44-4.57,1.46,1.46,0,0,1,1.69-.91,1.64,1.64,0,0,0,1.61-.59c.47-.52.89-1.08,1.37-1.58A.6.6,0,0,1,81.35,0a2.08,2.08,0,0,1,1.4,1.45A12,12,0,0,1,83,5.07c-.07,1.31-.16,2.61-.2,3.92a5.76,5.76,0,0,1-.69,3.19,3.43,3.43,0,0,0-.29,1.46c-.13,1.09-.22,2.2-.32,3.3a13.57,13.57,0,0,1-.76,3.83,6.3,6.3,0,0,0-.4,2.36c0,1.91-.1,3.82-.13,5.73a13.33,13.33,0,0,1-.67,5,4.57,4.57,0,0,0-.27,1.48c-.21,3.51-.41,7-.58,10.53a10,10,0,0,1-.62,3.24,5.34,5.34,0,0,0-.54,2c0,2-.67,3.94-1,5.9a27,27,0,0,0-.39,3.59c-.09,1.6-.07,3.21-1,4.65a3.86,3.86,0,0,0-.41,2.05,16.26,16.26,0,0,1-.93,5,12,12,0,0,0-.59,3.25A9,9,0,0,1,72.78,78a17.37,17.37,0,0,0-1.06,5,1.89,1.89,0,0,1-.22.86,7.62,7.62,0,0,0-.93,4,9.22,9.22,0,0,1-1.08,4.35A4.6,4.6,0,0,0,69.06,94c-.13,1.1-.17,2.2-.26,3.31a1.89,1.89,0,0,1-.5,1.37,1.76,1.76,0,0,0-.57,1.33c0,1-.07,2-.17,3a3.25,3.25,0,0,1-.4,1.43,6.32,6.32,0,0,0-.82,3.47,2.63,2.63,0,0,1-.83,2.16,1.72,1.72,0,0,0-.42,1.08c-.11.89-.07,1.81-.21,2.7a11.84,11.84,0,0,1-.68,2.92,8.23,8.23,0,0,0-.71,2.9,7.05,7.05,0,0,1-.89,3.46,4.22,4.22,0,0,0-.31,1.46c-.2,1.27-.1,2.63-1,3.69a18.25,18.25,0,0,0-.35,2.07,9.84,9.84,0,0,1-.86,3.49,8.34,8.34,0,0,0-.64,2.31,4.1,4.1,0,0,1-1.15,2c-.38.48-.83.84-1.23,1.28a3.39,3.39,0,0,1-1.33,1.16c-.26.09-.43.39-.65.6a10.86,10.86,0,0,0-1.63,1.69,8.6,8.6,0,0,1-3,.18,4.87,4.87,0,0,1-3.39-1,13.11,13.11,0,0,1-3.27-1.45c-.61-.26-.82-.88-1.34-1.16a9,9,0,0,1-1.62-.77c-.88-.77-2-1.38-2.22-2.7-.5-.59-1.28-1-1.28-1.92a8.06,8.06,0,0,1-1.62-3.49A6.11,6.11,0,0,0,34.14,128c-.8-.74-.9-1.77-1.5-2.56a5.11,5.11,0,0,1-.67-2.59,2,2,0,0,0-.53-1.36c-.07-.07-.19-.15-.26-.13s-.45.09-.51.22a5.65,5.65,0,0,0-.38,1.14c-.16.68-.29,1.37-.43,2.06-1,1.1-.72,2.45-.8,3.74s-.16,2.41-.23,3.61a9,9,0,0,1-.64,3.23c-.46,1-.28,2.21-.94,3.15s-1.26,1.54-1.83,2.35a21,21,0,0,0-1.07,1.91,11.8,11.8,0,0,1-1.71.38c-1,.07-2,0-3,0a3.73,3.73,0,0,1-2.52-.82c-.53-.44-1.22-.68-1.77-1.1a10.52,10.52,0,0,1-2.8-4.15,6.45,6.45,0,0,0-.69-1.66,4,4,0,0,1-.8-2.53,5,5,0,0,0-.87-3.13,3,3,0,0,1-.5-1.71,3.35,3.35,0,0,0-.23-1.47A9.73,9.73,0,0,1,8.27,123a2.84,2.84,0,0,0-.37-1.14A8.74,8.74,0,0,1,7,118.36a4.79,4.79,0,0,0-.3-1.46,11.33,11.33,0,0,1-1.35-4c-1-1.52-.86-3.29-1.06-5a6.78,6.78,0,0,0-1-3.42,5.13,5.13,0,0,1-.44-1.42c-.12-.38-.15-.87-.41-1.1a3.86,3.86,0,0,1-1.17-2.68,2.74,2.74,0,0,0-.47-1.1A6.49,6.49,0,0,1,0,95.08c-.18-1.58.71-2.66,1.55-3.78a1.68,1.68,0,0,1,.72-.5c.75-.29,1.52-.53,2.28-.78A3.87,3.87,0,0,1,7,90c.67.21,1.36.35,2,.56a2.82,2.82,0,0,1,2,1.64,3,3,0,0,0,.64,1,2.44,2.44,0,0,1,.76,1.59,2.7,2.7,0,0,0,.91,1.83,2.17,2.17,0,0,1,.5,1.39c.07.4.11.83.51,1a1.29,1.29,0,0,1,.71,1.22c.05,1.1.06,2.21.16,3.31a3.07,3.07,0,0,0,.43,1.41,5.23,5.23,0,0,1,.82,2.55c0,.4.1.81.1,1.21a2,2,0,0,0,1.2,1.92,4.41,4.41,0,0,1,.49.36.65.65,0,0,0,.83,0,4.18,4.18,0,0,0,1.65-3.09c0-.5,0-1,.1-1.51a3.87,3.87,0,0,1,.24-1.17c.52-1.19,1-2.39,1.66-3.52a6.78,6.78,0,0,0,.84-1.91,1.34,1.34,0,0,1,.67-1c.16-.1.37-.26.4-.43.37-1.88,1.86-3,2.93-4.46a4.52,4.52,0,0,1,3.3-1.86c1-.08,2-.18,3-.28a5.17,5.17,0,0,1,4.18,1.3c1.67.68,2,2.4,2.91,3.7a2,2,0,0,1,.2.87c.27,1.58.54,3.17.78,4.75a66.57,66.57,0,0,1,.84,8.69c0,1.31.08,2.61.13,3.92a4.89,4.89,0,0,0,.63,2.6,4.22,4.22,0,0,1,.49,1.41c.19.88.22,1.79,1.06,2.4.2.14.27.53.32.82.11.59.14,1.2.24,1.79a1.84,1.84,0,0,0,.77,1.24,5.18,5.18,0,0,1,.89.79.52.52,0,0,0,.78,0C48.57,125.79,49,125.4,49.62,124.9Z"/></svg>