<svg id="Layer_1" data-name="Layer 1" xmlns="http://www.w3.org/2000/svg" viewBox="0 0 60.3 187.55"><path d="M24,46.27a1.51,1.51,0,0,0,1.18-.92C26,43.43,27.45,41.88,28.4,40c.75-1.46,1.56-2.9,2.44-4.3a31.51,31.51,0,0,1,2.24-3.35,17,17,0,0,0,1.71-2.58c1-1.8,2.05-3.57,3-5.41a6.43,6.43,0,0,1,1.57-2.28,3.8,3.8,0,0,0,.86-1.28A42.88,42.88,0,0,0,42.8,15.9a9.82,9.82,0,0,1,1.39-2.06,17.27,17.27,0,0,0,2.09-3.44,6.47,6.47,0,0,1,.44-.82c.49-.91,1.73-1.31,1.8-2.46s.93-1.82,1.29-2.79A11.6,11.6,0,0,1,52.32.65,23.53,23.53,0,0,0,54.63.19,5.7,5.7,0,0,1,58,.34,2.89,2.89,0,0,1,59.36,1a3.23,3.23,0,0,1,.9,2.56c-.33,1.73-.21,3.54-.88,5.21a9.54,9.54,0,0,0-.53,3.05c-.09,1.55-.17,3.11-.25,4.66a15,15,0,0,1-.52,4,8.52,8.52,0,0,0-.2,2.16c-.08,1.24-.13,2.48-.22,3.73a4.79,4.79,0,0,1-.24,1.52,12,12,0,0,0-.64,4.59c0,3.53,0,7.06,0,10.59A5.88,5.88,0,0,0,57,44.91a11.27,11.27,0,0,1,.48,4c0,1.45.06,2.9.18,4.35a16.91,16.91,0,0,1-.32,5.26A4.74,4.74,0,0,0,57.1,60a20.66,20.66,0,0,1,0,4.65,8.47,8.47,0,0,0,.42,3.38,4.26,4.26,0,0,1,0,2.45A19.62,19.62,0,0,0,56.84,77a17.55,17.55,0,0,1-.13,2.17,2.77,2.77,0,0,1-.15.92,24.71,24.71,0,0,1-2.45,4.3c-.18.24-.49.41-.64.67-.79,1.37-2.29,1.72-3.55,2.36a5,5,0,0,1-3.35.27,15.09,15.09,0,0,1-6.12-2.88,25.17,25.17,0,0,1-5.7-6.08,9.32,9.32,0,0,0-1.55-1.92c-1.08-1-1.54-2.48-2.86-3.23A12.93,12.93,0,0,1,29,71.46c-.66-1.69-2-2.88-3.05-4.26a2.41,2.41,0,0,0-1.85-1,12.36,12.36,0,0,0-2,3.37c-1,2.58-2.25,5.07-3.14,7.7A59.69,59.69,0,0,1,16.61,84a4.72,4.72,0,0,0-.22,1.21c-.05.31,0,.69-.16.91a6.86,6.86,0,0,0-.92,3.56,6.35,6.35,0,0,1-.46,1.46c-.36.86-.71,1.72-1.15,2.54a4.85,4.85,0,0,0-.55,2.09,14.26,14.26,0,0,1-.57,3.67,7.21,7.21,0,0,0-.29,1.84,12.9,12.9,0,0,1-.69,3,44.59,44.59,0,0,0-2,9.07c-.11,1.65-.38,3.29-.61,4.93a8.6,8.6,0,0,1-.42,1.82,12.49,12.49,0,0,0-.72,6.11,2.68,2.68,0,0,1-.08,1.23c-1,2.81-.92,5.73-.94,8.63a25.37,25.37,0,0,1-.46,5.56,11.77,11.77,0,0,0-.15,3.09,36.43,36.43,0,0,1-.1,6.52,13,13,0,0,0,0,2.16,2,2,0,0,1-.54,1.71,3,3,0,0,0-.88,2.26,17.33,17.33,0,0,0,.17,2.48,10.13,10.13,0,0,1,.24,1.53,6.8,6.8,0,0,0,1.14,4.11,4.72,4.72,0,0,1,.52,2.71c0,1.66-.11,3.32-.13,5,0,1,0,2.07.08,3.11a11.08,11.08,0,0,0,.64,3,24.74,24.74,0,0,1,1.23,5.45,1.05,1.05,0,0,1-.42,1.1c-.63.34-.69,1-1,1.52a.44.44,0,0,1-.75-.07A10.13,10.13,0,0,0,4.86,185,12.88,12.88,0,0,1,2,177.93a19.5,19.5,0,0,0-.59-3.37,10.22,10.22,0,0,1-.24-2.77A19.28,19.28,0,0,0,1,168.08a16.85,16.85,0,0,1-.12-3.41,3.29,3.29,0,0,1,.38-1.48,4.69,4.69,0,0,0,.55-2.39c0-1.14,0-2.28,0-3.43A3.49,3.49,0,0,0,1,155.05a3.62,3.62,0,0,1-.65-1.73,28.64,28.64,0,0,1-.37-6.2c0-2.59.14-5.19.12-7.78a38.08,38.08,0,0,1,.3-4.65c.17-1.44.32-2.89.4-4.34a34.55,34.55,0,0,1,.87-7.09A9.73,9.73,0,0,0,2,120.79a28.88,28.88,0,0,1,.5-4.64C2.92,113.08,3.57,110,4,107a13.25,13.25,0,0,1,.49-2.43,14.54,14.54,0,0,0,.71-4,8.24,8.24,0,0,1,.35-1.82,46.26,46.26,0,0,0,1.72-7.89A16.34,16.34,0,0,1,8,88.49c.22-.78.09-1.69.89-2.24a27.88,27.88,0,0,0,1.33-4.12c.15-.81.39-1.61.59-2.41.08-.3.23-.58.28-.88a25.15,25.15,0,0,1,.42-2.76c.22-.78.8-1.4,1-2.24.27-1.1.79-2.12,1-3.26a8.06,8.06,0,0,1,1-2.57,15.58,15.58,0,0,0,1.93-5.2,2.64,2.64,0,0,1,.21-.91c.86-1.39.81-3,1.07-4.5a3.85,3.85,0,0,0-.84-3.22C15,52,13.39,49.53,11.21,47.6c-1-.89-1.58-2.2-2.82-2.85a5.9,5.9,0,0,0-2.88-2.26,3.5,3.5,0,0,1-1-.76,3.68,3.68,0,0,1-1.33-3,4.54,4.54,0,0,1,.73-2.65,2.61,2.61,0,0,1,2-1.33,3.52,3.52,0,0,0,1.42-.57A3.17,3.17,0,0,1,10,34c.68.26,1.36.52,2,.8.28.12.66.25.77.48.41.92,1.37,1.25,1.95,2A6.35,6.35,0,0,0,17,39.35a57.56,57.56,0,0,1,4,4.3A8.92,8.92,0,0,0,24,46.27ZM47,76.76a2.93,2.93,0,0,0,1.56-2.48,19.51,19.51,0,0,1,.22-2.16,62.26,62.26,0,0,0,.8-10.2c0-1.66,0-3.32,0-5,0-5.28,0-10.56-.28-15.83a17.11,17.11,0,0,0-.26-2.78,18.71,18.71,0,0,1-.32-4.95c.08-1.34.15-2.69.28-4a11.84,11.84,0,0,0-.13-3.71.73.73,0,0,0-.73-.46,2.18,2.18,0,0,0-.89.19c-.34.21-.6.55-.93.79-.87.64-.78,1.93-1.78,2.49-.22.13-.27.54-.43.8a17.79,17.79,0,0,1-1.33,2.07c-.65.79-1.49,1.44-2.12,2.24S39.63,35.54,39,36.38c-.29.41-.79.64-.93,1.19a13.19,13.19,0,0,1-2.4,4.32c-1.07,1.52-2,3.11-3,4.68S31.23,50.21,30,51.75c-.69,1.86-.8,3.62.82,5.12a3.7,3.7,0,0,1,.6.71c1.6,2.66,3.68,5,5.2,7.7a21.35,21.35,0,0,0,1.8,2.52c1.38,1.78,3.12,3.27,4.14,5.32a1.65,1.65,0,0,0,.35.51c1.17,1,2.36,2,3.55,3A1.56,1.56,0,0,0,47,76.76Z"/></svg>