<svg id="Layer_1" data-name="Layer 1" xmlns="http://www.w3.org/2000/svg" viewBox="0 0 107.55 134.66"><path d="M20.84,3.84a13.16,13.16,0,0,1,7.5,2.61,18.36,18.36,0,0,1,2.5,2.33A5.92,5.92,0,0,1,32,10.62a59.27,59.27,0,0,0,3.23,7.07,3.78,3.78,0,0,1,.37.85,47.78,47.78,0,0,0,2.07,5.53c.37,1,.7,1.95,1.11,2.9A12.14,12.14,0,0,1,40,30.79a6.31,6.31,0,0,0,.48,1.47c.62,1.65,1.28,3.28,1.86,4.94.84,2.45,1.95,4.79,3,7.16.37.85.69,1.72,1.07,2.57a7.44,7.44,0,0,0,.76,1.35c1.25,1.75,2.06,1.54,3.6.32.84-1.45,2.2-2.46,3.21-3.77a9.71,9.71,0,0,1,1.19-1.43c1.72-1.51,3.22-3.23,4.86-4.81a5.36,5.36,0,0,0,1.63-2.23,3.14,3.14,0,0,1,.24-.57,1.22,1.22,0,0,1,.35-.5c1.47-.88,1.89-2.72,3.35-3.62a2.17,2.17,0,0,0,.82-.88,5.82,5.82,0,0,1,1.68-2.21,2.9,2.9,0,0,0,.64-.67,8.56,8.56,0,0,1,2.18-2.59A19.75,19.75,0,0,0,73,23.07c2.69-2.57,5.1-5.44,8-7.81,2-2.51,4.8-4.26,7-6.65,1-1.08,2.11-2,3.08-3.08a11.74,11.74,0,0,1,2-1.87,6.7,6.7,0,0,0,1.5-1.55A5.15,5.15,0,0,1,96.12.6,4.3,4.3,0,0,1,97.55.06a9.49,9.49,0,0,1,6.25,1.41c.61.4,1.24.77,1.82,1.2a4.7,4.7,0,0,1,1.69,5.27,12.71,12.71,0,0,1-2.52,4.62,23,23,0,0,0-2.44,3.21,7.59,7.59,0,0,1-1,1.22,22.91,22.91,0,0,0-3.6,4.67c-.05.09-.08.21-.16.27-2.33,2.13-3.41,5.18-5.48,7.51a5.07,5.07,0,0,0-.82,1.31,6.46,6.46,0,0,1-1.19,1.81c-.07.07-.13.16-.21.23-1.33,1.21-1.55,3.15-3,4.33s-2,2.65-2.9,4c-.41.59-.69,1.27-1.06,1.9s-.76,1.22-1.18,1.81A17.33,17.33,0,0,0,79,49.67a5.52,5.52,0,0,1-1.31,2.09,6.54,6.54,0,0,0-1,1.15c-.72,1.26-1.28,2.62-2.07,3.82S72.8,59,71.92,60.15a11.16,11.16,0,0,0-.8,1.33,50.89,50.89,0,0,1-4.85,7.22c-.8,1-1,2.29-1.91,3.18a14.21,14.21,0,0,0-2.17,3,14.4,14.4,0,0,1-2.95,4,2.73,2.73,0,0,0-.76,1,12.76,12.76,0,0,1-2.18,3.71,25,25,0,0,0-2,3.48c-.31.54-.7,1-1,1.57-.71,1.26-1.92,2.13-2.47,3.54a31.37,31.37,0,0,1-2,3.53,8.74,8.74,0,0,1-2,2.77,2.42,2.42,0,0,0-.71,1c-.81,2.2-2.49,3.82-3.74,5.71-1,.79-1.37,2.07-2.29,2.93-1.48,2.88-3.72,5.24-5.42,8a8.51,8.51,0,0,1-1.34,1.7,31.73,31.73,0,0,0-4.17,5.36c-.88,1.29-1.7,2.59-2.49,3.93-1,1.69-2.24,3.23-3.39,4.83a4.65,4.65,0,0,1-2,1.47c-.76.35-1.55.61-2.29,1a3.27,3.27,0,0,1-3.52-.38,4.5,4.5,0,0,1-.68-.63,2.05,2.05,0,0,0-1.38-.62c-2.58-.28-5.16-.52-7.73-.89a22,22,0,0,1-5.1-1.34,1.1,1.1,0,0,1-.22-1.82A3.31,3.31,0,0,1,2,127.77a37.15,37.15,0,0,1,5.19-1c2.63-.17,4.43-1.62,6.09-3.38.85-.9,1.36-2.08,2.4-2.84.22-.16.28-.54.4-.82a4.19,4.19,0,0,1,.51-1.11c1.85-2,2.88-4.55,4.58-6.65A7.06,7.06,0,0,0,22,110.3a13.05,13.05,0,0,1,2.11-3.43,3.9,3.9,0,0,0,.69-1,10.59,10.59,0,0,1,2.37-3.25,5.11,5.11,0,0,0,1-1.21c1.59-2.8,3.48-5.41,5.16-8.15a11.71,11.71,0,0,0,.87-1.64c.43-1.09,1.31-1.89,1.78-2.9a11.74,11.74,0,0,1,1.83-2.5,7,7,0,0,0,1.55-2.3,5,5,0,0,1,.87-1.27,8.23,8.23,0,0,0,.89-1.26,18,18,0,0,1,2.43-3.61c.71-.88,1.29-1.87,1.94-2.81s1.2-1.69,1.75-2.57a12.1,12.1,0,0,0,1.22-2.16,25.27,25.27,0,0,1,2.31-4.4c.54-.83.28-1.37-.69-1.51-.72-.11-1.45-.15-2.16-.29a17,17,0,0,1-6.74-3,17.48,17.48,0,0,1-3.11-2.53,23.16,23.16,0,0,1-2.23-3,54,54,0,0,1-3.72-7.16c-.48-1.14-1.06-2.25-1.5-3.41-.69-1.84-1.54-3.61-2.07-5.52s-1.3-3.71-2-5.56c-.9-2.43-1.84-4.84-2.7-7.28a53,53,0,0,0-3.48-7.63c-.19-.37-.42-.72-.59-1.1a17.15,17.15,0,0,0-3.22-5.27,5.55,5.55,0,0,1-1.17-2.84,2.85,2.85,0,0,1,.06-1.23A6.86,6.86,0,0,1,16,7C17.32,4.37,18.49,3.82,20.84,3.84Z"/></svg>