<svg id="Layer_1" data-name="Layer 1" xmlns="http://www.w3.org/2000/svg" viewBox="0 0 141.85 77.62"><path d="M128.11,62.88c1.55,0,3.11.17,4.66.29a1.24,1.24,0,0,1,1,1c0,.11,0,.21,0,.31,0,3.53,8,5.06,8,8.59a1.16,1.16,0,0,1-.13.59c-.16.25-.37.56-.61.64a5,5,0,0,1-1.53.18,38.77,38.77,0,0,0-4,.12c-2.28.13-4.56.11-6.84.13-1.66,0-3.33,0-5,0-2.69.06,7.61.18,4.91,0-.93-.06-1.87,0-2.8,0a18.79,18.79,0,0,1-2.49,0,36.91,36.91,0,0,0-6.22-.13,10.44,10.44,0,0,1-1.25,0c-6.32-.39-12.66-.06-19-.12-3.42,0-6.84,0-10.26.14-2,.06-3.94-.15-5.92-.19-1.66,0-3.32,0-5,0a89.26,89.26,0,0,1-9.95,0,41.41,41.41,0,0,0-5,.07c-.83,0-1.67.12-2.49.07-3-.22-6,0-9,.11a26.14,26.14,0,0,0-4,.37,31.35,31.35,0,0,1-4.34.33c-2.38.08-4.77.06-7.16.12a7.72,7.72,0,0,0-2.46.27,17.83,17.83,0,0,1-6.15.75,15,15,0,0,0-5.52.67,6.44,6.44,0,0,1-2.15.31c-2.49.07-5,.11-7.48.13a7.84,7.84,0,0,1-3.3-.73A36.29,36.29,0,0,1,3,75.2a3.44,3.44,0,0,1-1.57-1.87C1.07,72.26.65,71.2.31,70.11a8.08,8.08,0,0,1-.24-3.39,2.09,2.09,0,0,1,.14-.61c.42-.94.83-1.9,1.3-2.82A2.69,2.69,0,0,1,3.9,61.57a6.66,6.66,0,0,0,.87-.18c2.39-2.08,2.39-2.08,6.43-4.31,2.12-1.64,4.71-2.62,6.56-4.65a2,2,0,0,1,.72-.57,12.34,12.34,0,0,0,3.37-2.18c1.32-1,2.76-1.8,4.1-2.76s2.75-1.43,4-2.39c1.52-.16,2.44-1.47,3.81-1.94a10.35,10.35,0,0,0,3.18-1.93,3.57,3.57,0,0,1,1.93-.88,2,2,0,0,0,1.3-.76,8.13,8.13,0,0,1,2-1.45,19.94,19.94,0,0,0,2.7-1.51,16.62,16.62,0,0,1,2.62-1.62c.9-.51,1.87-.91,2.72-1.48a23.23,23.23,0,0,0,2-1.44c1.35-1.12,2.86-2.06,4.3-3.07a.73.73,0,0,1,.26-.17c1.87-.31,3-1.83,4.36-2.85a28.81,28.81,0,0,0,2.65-2.14,4.41,4.41,0,0,1,1.55-1,2,2,0,0,0,.94-.75,10.74,10.74,0,0,1,3.85-3.52,4,4,0,0,0,1.35-1.25.62.62,0,0,0-.29-.77,5.74,5.74,0,0,0-1.51-.28A13.39,13.39,0,0,1,65,15.36a5.48,5.48,0,0,0-1.85,0A5.61,5.61,0,0,1,61,15.26a1.76,1.76,0,0,0-1.5.12,4,4,0,0,1-2.1.44q-5.76.12-11.52.28a8.73,8.73,0,0,0-1.85.18,4.55,4.55,0,0,1-3.82-.86,12.24,12.24,0,0,0-2.32-1.53,3.8,3.8,0,0,1-1.9-2A7.09,7.09,0,0,1,35,7.18a9.56,9.56,0,0,1,1.09-2.54,5.73,5.73,0,0,1,2.08-2.23,4.1,4.1,0,0,1,2-.71c1.86-.13,3.72-.31,5.58-.43C50.11,1,54.46.77,58.83.84c.52,0,1,0,1.56,0,4.46-.18,8.92-.08,13.39,0A16,16,0,0,0,76.87.59,43,43,0,0,1,81.52.17C85.05-.07,88.58,0,92.11,0a16.19,16.19,0,0,1,4.52,1,3.32,3.32,0,0,1,1.85,1.58,28.11,28.11,0,0,1,1.77,4,1.89,1.89,0,0,1,.07,1.22c-.55,1.77-1.17,3.53-1.79,5.29a1,1,0,0,1-.38.48c-1.18.82-2.06,2.06-3.52,2.48-2.61,1.84-5.49,3.3-7.74,5.63a53.85,53.85,0,0,0-5,3.66,17,17,0,0,0-1.69,1.36,17.59,17.59,0,0,1-3.42,2.65,15.88,15.88,0,0,0-1.94,1.55c-1.08.05-1.5,1-2.18,1.59a21.89,21.89,0,0,1-2,1.51c-1,.71-2.07,1.37-3.08,2.08a20.35,20.35,0,0,1-3.9,2.53,1.47,1.47,0,0,0-.28.14c-1,.74-1.94,1.55-3,2.21s-2.2,1.12-3.3,1.71a6.74,6.74,0,0,0-1.26.87c-.94.83-2.12,1.3-3.09,2.05a15.1,15.1,0,0,1-2.88,1.8,17.34,17.34,0,0,0-2.33,1.49,31.22,31.22,0,0,1-5,3.06c-.83.36-1.51,1.06-2.31,1.51a30.9,30.9,0,0,1-3.21,1.87,19.06,19.06,0,0,0-2.88,1.82A3.38,3.38,0,0,0,33,59.21a.92.92,0,0,0,.52,1,9.63,9.63,0,0,0,1.83.27c1.25,0,2.49-.1,3.74-.12l10.59-.06A8.68,8.68,0,0,0,52.71,60a6.8,6.8,0,0,1,2.76-.35c3.11.14,6.22-.15,9.33-.16,4,0,8.1,0,12.15,0a59.7,59.7,0,0,1,7.44.48,10.12,10.12,0,0,0,1.55.12c2.9-.09,5.81-.2,8.71-.31a55.63,55.63,0,0,1,5.91.17"/></svg>