<svg id="Layer_1" data-name="Layer 1" xmlns="http://www.w3.org/2000/svg" viewBox="0 0 1295 490.65"><path d="M1104.66,368.63c2.38-2.07,2.38-2.07,6.42-4.3,2.12-1.65,4.72-2.63,6.56-4.65a1.94,1.94,0,0,1,.72-.57,12.61,12.61,0,0,0,3.37-2.19c1.32-1,2.76-1.8,4.1-2.76s2.75-1.43,4-2.39c1.52-.16,2.44-1.47,3.81-1.94a10.35,10.35,0,0,0,3.18-1.93,3.6,3.6,0,0,1,1.93-.88,2,2,0,0,0,1.31-.76,7.77,7.77,0,0,1,2-1.45,18.29,18.29,0,0,0,2.69-1.51,17,17,0,0,1,2.62-1.61c.9-.51,1.87-.92,2.72-1.49.68-.46,1.38-.9,2-1.43,1.35-1.13,2.86-2.06,4.3-3.08a.73.73,0,0,1,.26-.17c1.87-.31,3-1.83,4.36-2.85a27.53,27.53,0,0,0,2.65-2.14,4.41,4.41,0,0,1,1.55-1,1.89,1.89,0,0,0,.94-.75,10.92,10.92,0,0,1,3.85-3.52,4,4,0,0,0,1.35-1.25c.13-.2,0-.71-.29-.76a5.38,5.38,0,0,0-1.51-.29,13.17,13.17,0,0,1-4.63-.39,5.48,5.48,0,0,0-1.85,0,5.61,5.61,0,0,1-2.16-.11,1.7,1.7,0,0,0-1.49.13,4.15,4.15,0,0,1-2.11.43q-5.76.12-11.52.28a9.51,9.51,0,0,0-1.85.18,4.55,4.55,0,0,1-3.82-.86,11.64,11.64,0,0,0-2.32-1.53,3.8,3.8,0,0,1-1.9-1.95,7.06,7.06,0,0,1-1.05-4.75,9.62,9.62,0,0,1,1.09-2.55,5.81,5.81,0,0,1,2.08-2.23,4,4,0,0,1,2-.7c1.86-.14,3.72-.32,5.59-.44,4.35-.29,8.71-.5,13.07-.43.52,0,1,0,1.56,0,4.46-.17,8.92-.07,13.39,0a16.13,16.13,0,0,0,3.1-.23,40.17,40.17,0,0,1,4.64-.41c3.53-.25,7.06-.17,10.59-.15a16.55,16.55,0,0,1,4.52,1,3.32,3.32,0,0,1,1.85,1.58,28.11,28.11,0,0,1,1.77,4,2,2,0,0,1,.08,1.22c-.56,1.78-1.18,3.53-1.8,5.29a1,1,0,0,1-.38.48c-1.18.82-2.06,2.06-3.52,2.48-2.61,1.84-5.49,3.31-7.74,5.64a55.65,55.65,0,0,0-5,3.65,18.61,18.61,0,0,0-1.69,1.36,16.93,16.93,0,0,1-3.42,2.65,15.78,15.78,0,0,0-1.93,1.55c-1.08.06-1.51,1-2.19,1.6a22.22,22.22,0,0,1-2,1.5c-1,.71-2.07,1.37-3.08,2.08a20.57,20.57,0,0,1-3.9,2.54,1.17,1.17,0,0,0-.28.13c-1,.74-1.94,1.56-3,2.21s-2.2,1.12-3.29,1.71a6.49,6.49,0,0,0-1.27.87c-.94.84-2.12,1.3-3.09,2.05a14.79,14.79,0,0,1-2.88,1.8,16.48,16.48,0,0,0-2.33,1.5,30.73,30.73,0,0,1-5,3.05c-.83.36-1.51,1.07-2.31,1.51a29.9,29.9,0,0,1-3.21,1.87,19.06,19.06,0,0,0-2.88,1.82,3.41,3.41,0,0,0-1.25,2.07.92.92,0,0,0,.52,1,9.63,9.63,0,0,0,1.83.27c1.25,0,2.49-.1,3.74-.12q5.3,0,10.59-.06a8.68,8.68,0,0,0,3.08-.35,6.83,6.83,0,0,1,2.76-.35c3.12.15,6.22-.15,9.33-.16,4,0,8.1,0,12.15,0a59.71,59.71,0,0,1,7.44.49,11.66,11.66,0,0,0,1.55.11c2.9-.09,5.81-.19,8.71-.31a53,53,0,0,1,5.91.18c3,.2,6,.27,9,.27,2.7,0,5.39-.07,8.09.11s5.19.11,7.79.15c3.94.06,7.9,0,11.83.24s7.88.26,11.82.22c1.56,0,3.11.16,4.66.28a1.24,1.24,0,0,1,1,1,2.91,2.91,0,0,1,0,.31c0,3.52,0,7,0,10.58a1.1,1.1,0,0,1-.13.6c-.16.24-.36.56-.61.63a4.94,4.94,0,0,1-1.53.18,38.86,38.86,0,0,0-4,.12c-2.28.13-4.56.11-6.84.13-1.66,0-3.32,0-5,0-2.7.06-5.4.18-8.1,0-.93-.06-1.87,0-2.8,0a17.23,17.23,0,0,1-2.49,0,36.91,36.91,0,0,0-6.22-.12c-.41,0-.83.05-1.24,0-6.33-.39-12.67-.05-19-.12-3.42,0-6.84,0-10.26.14-2,.06-3.94-.15-5.91-.19-1.66,0-3.33,0-5,0a89.26,89.26,0,0,1-9.95,0,41.42,41.42,0,0,0-5,.08c-.83,0-1.67.11-2.49.06-3-.21-6,.05-9,.12a27.3,27.3,0,0,0-4,.36,31.62,31.62,0,0,1-4.35.34c-2.38.07-4.77.05-7.16.11a7.75,7.75,0,0,0-2.46.27,17.84,17.84,0,0,1-6.15.76,15,15,0,0,0-5.52.66,6.44,6.44,0,0,1-2.15.31c-2.49.07-5,.11-7.48.13a8,8,0,0,1-3.3-.72c-1.22-.54-2.46-1-3.63-1.7a3.45,3.45,0,0,1-1.57-1.87c-.4-1.07-.82-2.13-1.16-3.22A8.08,8.08,0,0,1,1100,374a1.71,1.71,0,0,1,.15-.6c.41-.95.82-1.9,1.29-2.83a2.7,2.7,0,0,1,2.39-1.72A4.73,4.73,0,0,0,1104.66,368.63Z"/><path d="M269.14,365.8a19.51,19.51,0,0,0-.35,4.85,79.45,79.45,0,0,1,.17,10.58c0,.51-.08,1-.06,1.55.17,3.13-.4,6.2-.66,9.3a51.13,51.13,0,0,1-.71,5.24,19.75,19.75,0,0,1-1.1,4.84A7.74,7.74,0,0,0,266,404a6.42,6.42,0,0,1-1.71,3.25,3.81,3.81,0,0,1-3.25,1.5,3.82,3.82,0,0,0-.91.17,2.92,2.92,0,0,1-2.34-.63c-.9-.7-1.75-1.46-2.61-2.21a1.81,1.81,0,0,1-.41-.46,15.44,15.44,0,0,1-2-4.54,55.42,55.42,0,0,1-1.1-8.32c-.19-5.18-.31-10.37-.41-15.55-.09-5,.38-9.95.4-14.93,0-.62,0-1.25,0-1.87A1.41,1.41,0,0,0,250.6,359c-3.28-.47-6.57-.92-9.86-1.37-.61-.08-1.24-.05-1.86-.14a10.35,10.35,0,0,1-3-.65c-1.11-.57-2.34-.84-3.39-1.5a9.55,9.55,0,0,1-4.32-5.5,3.5,3.5,0,0,1,1.25-3.92c1.31-1,2.52-2.19,4.22-2.56a1.33,1.33,0,0,0,.57-.24c1.88-1.68,4.4-2.25,6.38-3.77a18.88,18.88,0,0,1,3-1.7,58.85,58.85,0,0,0,6-3.84,1.37,1.37,0,0,0,.54-1.39,22.42,22.42,0,0,0-.54-2.43c-.32-1.2-.65-2.4-1-3.57a10.16,10.16,0,0,0-1.22-2.84,68.06,68.06,0,0,1-3.75-6.45,9.71,9.71,0,0,0-1.79-2.52,2.88,2.88,0,0,1-.57-.73,15.52,15.52,0,0,0-3.51-4.64c-.45-.43-.84-.92-1.3-1.34a3.24,3.24,0,0,0-1-.7,8.26,8.26,0,0,1-4.49-4.5,6,6,0,0,1-.14-4.56,1.94,1.94,0,0,1,.47-.79c1.7-1.66,3.62-2.84,6.11-2.35,2,.4,4.13.48,6.06,1.32a1.62,1.62,0,0,0,.6.16,13,13,0,0,1,5.3,1.67,12.22,12.22,0,0,0,2.68.78l2.39.68c1.39.41,2.56,1.32,4,1.67a33,33,0,0,1,3.81,1.32c.68.26,1.32.61,2,.89l4.59,1.91c.67.28,1.35.56,2,.88,1.11.55,2.21,1.14,3.31,1.71a13.89,13.89,0,0,1,1.39.7c3.61,2.43,7.43,4.54,11,7.08,1.18.84,2.64,1.29,3.74,2.2s2,1.82,3.09,2.59a20.83,20.83,0,0,1,2.72,2.05,3.73,3.73,0,0,0,1.34.77,5.5,5.5,0,0,1,2.71,1.41c.22.28.74.33,1.13.46s1.12.14,1.46.45c1.36,1.25,2.94,2.32,3.56,4.19a3.1,3.1,0,0,1-.1,2.43c-.55,1.11-1.12,2.22-1.75,3.29a5.33,5.33,0,0,1-1.05,1.13,2.09,2.09,0,0,1-1.73.55,14,14,0,0,1-2.12-.44c-.7-.19-1.38-.47-2.06-.72a11.85,11.85,0,0,0-4.22-1,1,1,0,0,1-.3-.05,17.12,17.12,0,0,0-8-.08,15.88,15.88,0,0,1-2.17.27,20.59,20.59,0,0,0-7.25,1.61,7.86,7.86,0,0,1-1.2.33,9.18,9.18,0,0,1-.91.19c-1.36.24-2.46,1.1-3.73,1.56s-2.46.44-3.55,1.1c-.26.16-.56.28-.81.46a2.32,2.32,0,0,0-1.06,1.81,10.42,10.42,0,0,0,1.82,6.47,2,2,0,0,0,.72.57,2.93,2.93,0,0,0,.87.32A5.72,5.72,0,0,1,270,351a6.62,6.62,0,0,0,3.07,1.42,6.49,6.49,0,0,1,3.11,1.32,1.61,1.61,0,0,0,.84.38c1.86.2,3.23,1.36,4.62,2.41a8,8,0,0,0,2.11,1.3,10.55,10.55,0,0,1,4.07,2.77,6.94,6.94,0,0,0,2.16,1.74,6.55,6.55,0,0,1,1.73,1.3,50.24,50.24,0,0,0,5.71,4.24,3.53,3.53,0,0,1,1.34,1.65,10.84,10.84,0,0,1,.69,2.06,6,6,0,0,0,2.48,3.82,31.24,31.24,0,0,1,2.68,2.59c.95.94,1.73,2,2.72,3a6.53,6.53,0,0,1,1.1,1.49c.54.88,1,1.8,1.54,2.69.15.26.29.61.53.73,1.22.61,1.58,1.88,2.29,2.87a5.07,5.07,0,0,1,.55,4.48.64.64,0,0,1-.46.33,3.59,3.59,0,0,1-2.07-.58c-2.65-1.62-5.28-3.28-7.91-4.93a1.87,1.87,0,0,1-.49-.39c-1.75-2.14-4.39-3.09-6.47-4.78a3.94,3.94,0,0,0-1.38-.71c-1.55-.47-2.59-1.7-3.9-2.51-1.16-1.55-2.95-2.26-4.44-3.37-1.08-.79-2.47-1.11-3.36-2.19a11.29,11.29,0,0,1-4.42-2.76,10.39,10.39,0,0,0-1.36-.73,9.4,9.4,0,0,1-1.82-1.16,23.09,23.09,0,0,0-5.71-3.67C269.48,365.71,269.36,365.77,269.14,365.8Zm8.29-43.07c-.12-.56-.6-.8-1-1.14-1-.95-2.6-.79-3.58-1.78a14.28,14.28,0,0,0-3.66-2.3,5.82,5.82,0,0,0-.85-.38c-2-.76-4.07-1.53-6.12-2.26a16.54,16.54,0,0,1-2-.83,36,36,0,0,0-6.42-2.26,1.48,1.48,0,0,0-.3,0,1.06,1.06,0,0,0-1.09,1.45c1.06,2.24,2.17,4.47,3.27,6.69a2.82,2.82,0,0,0,.52.77,10.56,10.56,0,0,1,1.74,2.55,13.78,13.78,0,0,0,1.36,2.08,10.12,10.12,0,0,1,1.45,2.37,1.42,1.42,0,0,0,1.72,1,8.67,8.67,0,0,0,3.49-1.22,22.4,22.4,0,0,1,2.77-1.39,34.1,34.1,0,0,0,4.35-1.65,5.21,5.21,0,0,1,1.51-.34c.71-.14,1.42-.26,2.13-.42a1,1,0,0,0,.5-.34A2,2,0,0,0,277.43,322.73Z"/><path d="M988.36,309.53a13.1,13.1,0,0,1,7.5,2.62,17.68,17.68,0,0,1,2.5,2.32,6.16,6.16,0,0,1,1.14,1.84,58.56,58.56,0,0,0,3.23,7.07,3.85,3.85,0,0,1,.37.86,47,47,0,0,0,2.07,5.52c.37,1,.7,1.95,1.11,2.9a12.23,12.23,0,0,1,1.24,3.82A6.17,6.17,0,0,0,1008,338c.62,1.65,1.28,3.28,1.86,4.95.84,2.44,1.95,4.78,3,7.15.37.85.69,1.72,1.07,2.57a7.88,7.88,0,0,0,.76,1.36c1.25,1.74,2.06,1.53,3.6.32.84-1.45,2.2-2.47,3.21-3.78a10.26,10.26,0,0,1,1.19-1.43c1.72-1.5,3.22-3.23,4.86-4.81a5.33,5.33,0,0,0,1.63-2.22,2.38,2.38,0,0,1,.24-.57,1.16,1.16,0,0,1,.35-.5c1.47-.88,1.89-2.72,3.35-3.62a2.26,2.26,0,0,0,.82-.89,5.82,5.82,0,0,1,1.68-2.21,2.71,2.71,0,0,0,.64-.67,8.42,8.42,0,0,1,2.18-2.59,19.65,19.65,0,0,0,2.12-2.24c2.69-2.58,5.1-5.44,8-7.81,2-2.52,4.8-4.27,7-6.66,1-1.08,2.11-2,3.08-3.08a11.31,11.31,0,0,1,2-1.86,7.12,7.12,0,0,0,1.5-1.55,5.19,5.19,0,0,1,1.54-1.52,4.3,4.3,0,0,1,1.43-.54,9.56,9.56,0,0,1,6.25,1.42c.61.39,1.24.76,1.82,1.2a4.69,4.69,0,0,1,1.69,5.27,12.94,12.94,0,0,1-2.52,4.62,23,23,0,0,0-2.44,3.21,7.51,7.51,0,0,1-1,1.21,23,23,0,0,0-3.6,4.68.92.92,0,0,1-.16.27c-2.33,2.13-3.41,5.17-5.48,7.5a5.43,5.43,0,0,0-.82,1.31,6.46,6.46,0,0,1-1.19,1.81,2.41,2.41,0,0,1-.21.24c-1.33,1.2-1.55,3.15-3,4.32s-2,2.65-2.9,4c-.41.6-.69,1.28-1.06,1.9s-.76,1.23-1.18,1.82a17.28,17.28,0,0,0-2.79,4.81,5.49,5.49,0,0,1-1.31,2.09,6.59,6.59,0,0,0-1,1.16c-.72,1.25-1.28,2.61-2.07,3.82s-1.81,2.26-2.7,3.41a12.74,12.74,0,0,0-.79,1.34,50.79,50.79,0,0,1-4.85,7.21c-.8,1-1,2.29-1.91,3.18a14.47,14.47,0,0,0-2.17,3,14.26,14.26,0,0,1-3,4,2.82,2.82,0,0,0-.76,1,12.76,12.76,0,0,1-2.18,3.71,24.53,24.53,0,0,0-2,3.49c-.31.53-.7,1-1,1.57-.71,1.25-1.92,2.13-2.47,3.54a32.27,32.27,0,0,1-2,3.53,8.7,8.7,0,0,1-2,2.76,2.45,2.45,0,0,0-.71,1c-.81,2.19-2.49,3.81-3.74,5.71-1,.79-1.37,2.07-2.29,2.93-1.48,2.87-3.72,5.23-5.42,8a8.51,8.51,0,0,1-1.34,1.7,31.41,31.41,0,0,0-4.17,5.37c-.88,1.28-1.7,2.58-2.49,3.92-1,1.69-2.24,3.24-3.39,4.84a4.82,4.82,0,0,1-2,1.47c-.76.34-1.55.6-2.29,1a3.26,3.26,0,0,1-3.52-.37,5.08,5.08,0,0,1-.68-.63,2.07,2.07,0,0,0-1.38-.63c-2.58-.28-5.16-.51-7.73-.88a22,22,0,0,1-5.1-1.34,1.1,1.1,0,0,1-.22-1.82,3.41,3.41,0,0,1,1.63-.87,38.66,38.66,0,0,1,5.19-1c2.63-.17,4.43-1.61,6.09-3.37.85-.9,1.36-2.09,2.4-2.84.22-.16.28-.54.4-.82a4.25,4.25,0,0,1,.51-1.12c1.85-2,2.88-4.55,4.58-6.65a7,7,0,0,0,.86-1.65,12.74,12.74,0,0,1,2.11-3.43,4.13,4.13,0,0,0,.69-1,10.55,10.55,0,0,1,2.37-3.24,5,5,0,0,0,1-1.22c1.59-2.8,3.48-5.4,5.16-8.14a11.29,11.29,0,0,0,.87-1.65c.43-1.08,1.31-1.89,1.78-2.9a11.68,11.68,0,0,1,1.83-2.49,7.12,7.12,0,0,0,1.55-2.3,5,5,0,0,1,.87-1.27,7.85,7.85,0,0,0,.89-1.27,18.2,18.2,0,0,1,2.43-3.6c.71-.89,1.29-1.88,1.94-2.82s1.2-1.69,1.75-2.56a12.84,12.84,0,0,0,1.22-2.16,25,25,0,0,1,2.31-4.41c.54-.83.28-1.37-.69-1.51-.72-.1-1.45-.14-2.16-.29a16.9,16.9,0,0,1-6.74-3,17.48,17.48,0,0,1-3.11-2.53,22.26,22.26,0,0,1-2.23-3,53.89,53.89,0,0,1-3.72-7.15c-.48-1.15-1.06-2.25-1.5-3.41-.69-1.84-1.54-3.62-2.07-5.53s-1.3-3.71-2-5.56c-.9-2.43-1.84-4.84-2.7-7.28a53,53,0,0,0-3.48-7.63c-.19-.37-.42-.72-.59-1.1a17,17,0,0,0-3.22-5.26,5.62,5.62,0,0,1-1.17-2.85,2.85,2.85,0,0,1,.06-1.23,6.86,6.86,0,0,1,.52-1.46C984.84,310.07,986,309.51,988.36,309.53Z"/><path d="M812.61,378.29c0-.74.1-1.34.13-2a3.37,3.37,0,0,1,.64-2,5.14,5.14,0,0,0,.79-2.87,6.74,6.74,0,0,1,.9-3.15,5.79,5.79,0,0,0,.59-2.63,3.57,3.57,0,0,1,.79-2.22,2,2,0,0,0,.38-1.11c.07-.7,0-1.4.07-2.11a4.85,4.85,0,0,1,.67-2.59,4.66,4.66,0,0,0,.66-2.89,8,8,0,0,1,.87-4.08,7.62,7.62,0,0,0,.67-2.61,5.38,5.38,0,0,1,.44-2,6.3,6.3,0,0,0,.9-3.14,2.45,2.45,0,0,1,.82-1.86,2,2,0,0,0,.39-1.1c.08-.6.07-1.2.11-1.81a5.56,5.56,0,0,1,.72-2.59,5.68,5.68,0,0,0,.81-3.16,7.39,7.39,0,0,1,.47-2.66,14.48,14.48,0,0,0,.83-4.43,7.14,7.14,0,0,1,.69-2.9,6.38,6.38,0,0,0,.48-1.72,34,34,0,0,1,1.16-5,11.19,11.19,0,0,0,.42-2.67,6.46,6.46,0,0,1,1.09-3.7,2.1,2.1,0,0,0,.29-1.14c.08-.8.09-1.6.14-2.41a4.82,4.82,0,0,1,.6-2.31,5.11,5.11,0,0,0,.66-2.6c0-.8.09-1.6.17-2.4a1.5,1.5,0,0,1,.2-.87c.91-1,.8-2.23.87-3.42a13,13,0,0,1,1-5,6.46,6.46,0,0,0,.52-2.65c0-.9,0-1.81.14-2.71a4.61,4.61,0,0,1,.45-1.73,7.44,7.44,0,0,0,.76-3.49c0-.71,0-1.41.09-2.11a4.47,4.47,0,0,1,.3-1.46,13.71,13.71,0,0,0,.95-4.69c.13-1.5.28-3,.44-4.5a5.54,5.54,0,0,1,.27-1.48,10,10,0,0,0,.67-3.23,12.1,12.1,0,0,1,1.44-4.57,1.45,1.45,0,0,1,1.69-.91,1.64,1.64,0,0,0,1.61-.59c.47-.52.89-1.08,1.37-1.59a.65.65,0,0,1,.56-.11,2.12,2.12,0,0,1,1.41,1.45,12.8,12.8,0,0,1,.23,3.6c-.08,1.31-.16,2.61-.21,3.92a5.78,5.78,0,0,1-.69,3.19,3.39,3.39,0,0,0-.29,1.45c-.13,1.1-.21,2.2-.32,3.3a13.5,13.5,0,0,1-.76,3.83,6.32,6.32,0,0,0-.4,2.37c0,1.91-.1,3.82-.13,5.73a13.14,13.14,0,0,1-.67,5.05,4.51,4.51,0,0,0-.27,1.47q-.32,5.27-.58,10.53a9.66,9.66,0,0,1-.62,3.24,5.34,5.34,0,0,0-.54,2c0,2.05-.67,3.93-1,5.89a28.76,28.76,0,0,0-.39,3.59c-.09,1.61-.07,3.22-1,4.66a3.9,3.9,0,0,0-.41,2,16.56,16.56,0,0,1-.92,5,11.52,11.52,0,0,0-.6,3.25,8.51,8.51,0,0,1-.38,2.37,17.51,17.51,0,0,0-1.06,5,1.71,1.71,0,0,1-.22.87,7.47,7.47,0,0,0-.92,4,9.41,9.41,0,0,1-1.09,4.35,4.5,4.5,0,0,0-.43,1.73c-.12,1.1-.17,2.21-.26,3.31a1.82,1.82,0,0,1-.5,1.38,1.75,1.75,0,0,0-.57,1.33c-.05,1-.07,2-.17,3a3,3,0,0,1-.4,1.42,6.34,6.34,0,0,0-.82,3.47,2.62,2.62,0,0,1-.83,2.16,1.81,1.81,0,0,0-.42,1.08c-.11.9-.07,1.82-.2,2.71a11.42,11.42,0,0,1-.69,2.92,8.18,8.18,0,0,0-.71,2.89,7.12,7.12,0,0,1-.88,3.46,4.05,4.05,0,0,0-.32,1.46c-.2,1.28-.1,2.63-1,3.69-.12.69-.3,1.38-.35,2.07a9.77,9.77,0,0,1-.85,3.49,8.21,8.21,0,0,0-.65,2.31,4.05,4.05,0,0,1-1.15,2c-.38.47-.83.84-1.22,1.28a3.47,3.47,0,0,1-1.34,1.15c-.26.09-.43.4-.64.6a10.55,10.55,0,0,0-1.64,1.7,8.59,8.59,0,0,1-3,.17,4.85,4.85,0,0,1-3.39-1,13.45,13.45,0,0,1-3.27-1.44c-.61-.27-.81-.88-1.33-1.17a8.43,8.43,0,0,1-1.63-.77c-.88-.76-2-1.37-2.22-2.69-.5-.6-1.28-1-1.28-1.93a8.12,8.12,0,0,1-1.62-3.49,6,6,0,0,0-1.53-2.53c-.8-.74-.9-1.78-1.5-2.56a5,5,0,0,1-.66-2.59,2.08,2.08,0,0,0-.54-1.36.4.4,0,0,0-.26-.14c-.18,0-.45.1-.51.23a5.34,5.34,0,0,0-.37,1.13c-.17.69-.3,1.38-.44,2.07-1,1.09-.72,2.45-.79,3.74s-.17,2.4-.24,3.61a8.56,8.56,0,0,1-.64,3.22c-.46,1-.27,2.22-.93,3.15s-1.27,1.55-1.84,2.36a20.76,20.76,0,0,0-1.07,1.9,10.51,10.51,0,0,1-1.7.39c-1,.07-2,0-3,0a3.7,3.7,0,0,1-2.52-.82c-.53-.44-1.22-.67-1.77-1.09a10.55,10.55,0,0,1-2.8-4.16,6.54,6.54,0,0,0-.69-1.65,4.06,4.06,0,0,1-.8-2.54,4.92,4.92,0,0,0-.87-3.13,3,3,0,0,1-.5-1.71,3.33,3.33,0,0,0-.23-1.46,10,10,0,0,1-1.18-3.71,2.89,2.89,0,0,0-.37-1.14,8.91,8.91,0,0,1-.93-3.46,4.63,4.63,0,0,0-.3-1.46,11.42,11.42,0,0,1-1.35-4c-1-1.53-.86-3.29-1-5a6.83,6.83,0,0,0-1-3.41,5.35,5.35,0,0,1-.44-1.42c-.11-.38-.15-.87-.41-1.1a3.92,3.92,0,0,1-1.17-2.68,2.63,2.63,0,0,0-.47-1.1,6.39,6.39,0,0,1-.76-3.18c-.19-1.58.71-2.65,1.54-3.77a1.7,1.7,0,0,1,.72-.51c.75-.28,1.52-.52,2.29-.77a3.84,3.84,0,0,1,2.37,0c.67.21,1.36.36,2,.56a2.82,2.82,0,0,1,2,1.64,2.75,2.75,0,0,0,.65,1,2.43,2.43,0,0,1,.75,1.6,2.72,2.72,0,0,0,.91,1.83,2.15,2.15,0,0,1,.5,1.39c.08.39.12.83.51,1a1.26,1.26,0,0,1,.71,1.22c.06,1.1.06,2.21.16,3.31a3.1,3.1,0,0,0,.43,1.41,5.24,5.24,0,0,1,.83,2.55c0,.4.09.8.09,1.2a2,2,0,0,0,1.21,1.93,3.91,3.91,0,0,1,.48.35.62.62,0,0,0,.83,0,4.17,4.17,0,0,0,1.65-3.09c0-.5,0-1,.1-1.5a4.06,4.06,0,0,1,.24-1.17c.52-1.19,1-2.39,1.66-3.53a6.66,6.66,0,0,0,.84-1.91,1.35,1.35,0,0,1,.67-.94c.17-.1.37-.27.4-.43.37-1.89,1.86-3,2.93-4.46a4.46,4.46,0,0,1,3.31-1.86c1-.08,2-.18,3-.29a5.24,5.24,0,0,1,4.18,1.3c1.67.68,2,2.4,2.92,3.7a2.42,2.42,0,0,1,.2.88c.26,1.58.53,3.16.77,4.75a66.58,66.58,0,0,1,.84,8.68c0,1.31.08,2.62.14,3.92a4.84,4.84,0,0,0,.62,2.6,4.06,4.06,0,0,1,.49,1.42c.19.87.22,1.79,1.07,2.39.2.15.26.53.31.82.11.6.14,1.2.24,1.8a1.83,1.83,0,0,0,.78,1.23,5.13,5.13,0,0,1,.88.8.53.53,0,0,0,.78,0C811.55,379.19,812,378.79,812.61,378.29Z"/><path d="M42,365.6c1.18-1.54,3.08-1.82,4.72-2.63a16.58,16.58,0,0,1,3.09-1,4.33,4.33,0,0,0,2-1,3.79,3.79,0,0,1,1.15-.59c.3-.13.68-.1.93-.3a7.76,7.76,0,0,1,4.1-1.85,2.55,2.55,0,0,0,1.13-.66,3.59,3.59,0,0,1,1.76-.83,2.9,2.9,0,0,0,2-1.08,2.46,2.46,0,0,1,1.74-.81l1.29-.11A3.3,3.3,0,0,0,68,354a3.36,3.36,0,0,1,2.09-.85,7.68,7.68,0,0,0,3.66-1.26,3.32,3.32,0,0,1,1.83-.58,5.1,5.1,0,0,0,4-1.81l.77-.72a10.46,10.46,0,0,0-.44-5.56,43.47,43.47,0,0,1-2.14-7.1,15.69,15.69,0,0,0-1.19-3.3,10.23,10.23,0,0,1-1-3.74,1.29,1.29,0,0,0-.12-.69c-1.41-2.11-1.32-5.06-3.16-6.91a37.91,37.91,0,0,0-1.55-3.5c-.52-1.06-1.34-1.87-1.76-3-.88-.55-.83-2-1.77-2.46-.85-1.36-1.76-2.68-2.53-4.1a5.6,5.6,0,0,1-.66-3.44c.06-.47.15-.94.17-1.42a3.33,3.33,0,0,1,2.56-3.23,1,1,0,0,1,1.21.21,2.73,2.73,0,0,0,2.23,1.19A2.12,2.12,0,0,1,72.05,303c.81,1.35,2.14,2.3,2.53,4a.79.79,0,0,0,.51.39,2.26,2.26,0,0,1,1.52,1.18c.43.81,1,1.55,1.48,2.32.94.17,1.26,1.28,2,1.68,1,.53,1.42,1.69,2.39,2.29s1.57,1.59,2.55,2.1a2.11,2.11,0,0,0,2,1.45,1.12,1.12,0,0,1,.82.47,2.58,2.58,0,0,0,1.79,1.37,1,1,0,0,1,.58.28c.68,1.16,2.08,1.28,2.75,2.37.47.75,1.33.83,1.79,1.44a3.19,3.19,0,0,0,1.74,1.41.84.84,0,0,1,.54.36c.54,1.13,1.68,1.39,2.45,2.16s1.78,1.36,2.2,2.54c.85.33,1.29,1.25,2,1.73s1.32,1.59,2.12,2.11,1.27,1.6,1.92,2.37c.29.34.57.9.91,1,1.26.24,1.68,1.43,2.28,2.35.49.76,1,1.5,1.49,2.26.67,1,1.41,2,2,3.14a2.64,2.64,0,0,1,.27,2.35,23,23,0,0,1-1.37,3.17,14.24,14.24,0,0,1-2.19,2.58,2.61,2.61,0,0,1-1.74.8c-.86.09-1.72.11-2.57.24a6.4,6.4,0,0,0-2.18.58,9.65,9.65,0,0,1-4,1.31,1.67,1.67,0,0,0-.62.16,17.15,17.15,0,0,1-5.59,1.52c-.92.08-1.69,1.75-1.41,2.85.31,1.26.64,2.52,1,3.75a1.12,1.12,0,0,0,.72.6,5.4,5.4,0,0,0,1.6.15,11.73,11.73,0,0,1,5.33,1.13,7.57,7.57,0,0,0,2.47.74,4.19,4.19,0,0,1,2.66,1.11c.49.45,1.1.76,1.6,1.2a5.65,5.65,0,0,0,3.26,1.54,14.35,14.35,0,0,0,0,1.48.62.62,0,0,0,1,.5,1.22,1.22,0,0,1,2,.28,3.39,3.39,0,0,0,1.71,1.48,1.09,1.09,0,0,1,.58,1.16c0,.47-.22.92-.28,1.38a2.6,2.6,0,0,0,0,1c.13.43.56.88.11,1.23a2.09,2.09,0,0,1-1.23.24,4.16,4.16,0,0,1-2.69-1.06,3.88,3.88,0,0,0-1.75-.83,6.12,6.12,0,0,1-1.24-.38,11.56,11.56,0,0,0-6.26-1.11,46.65,46.65,0,0,1-5.79-.06,4,4,0,0,0-1.27.2,1.87,1.87,0,0,0-1.3,1.45A14.18,14.18,0,0,0,95,381.3c.12,4.06.3,8.11.46,12.16a1.82,1.82,0,0,0,.05.71c1.1,2.09.64,4.42.76,6.64.22,4.16.18,8.34.24,12.52a41.37,41.37,0,0,1-.83,8.88,21.75,21.75,0,0,0-.45,5,76,76,0,0,1-.4,8.93,4.55,4.55,0,0,1-.17,1.41c-.82,1.79-.6,3.72-.67,5.61,0,.83-.12,1.66-.2,2.49a6.24,6.24,0,0,1-1.08,2.94,2.08,2.08,0,0,1-1.25,1,12.73,12.73,0,0,1-1.89.4,3.66,3.66,0,0,1-3.26-1.18,10.87,10.87,0,0,0-1-1,2.61,2.61,0,0,1-.84-1.49,43.16,43.16,0,0,0-1.31-5.15,7.34,7.34,0,0,1-.18-1.77c-.15-4.17-.55-8.33-.35-12.52a9.57,9.57,0,0,0,0-1.07,61.46,61.46,0,0,1,.15-10c.16-2.62.11-5.25.15-7.87.07-5.85.09-11.69.22-17.54.06-3,.3-5.95.47-8.93,0-.47.09-.95.15-1.42.39-3.45-1.47-4.76-4.16-5-2-.17-4.06-.06-6.1-.24a20.34,20.34,0,0,0-4.17.37,1.85,1.85,0,0,0-.89.37,15,15,0,0,1-8.24,2.69c-.86.07-1.72.12-2.58.14a6,6,0,0,0-3.38,1,5.6,5.6,0,0,1-3.39.94l-4.19.05a22.37,22.37,0,0,0-5.76.63,5,5,0,0,1-2.85-.07,15.73,15.73,0,0,0-4.47-.63,1.81,1.81,0,0,1-1.61-1,31,31,0,0,1-2.45-5c-.57-1.6.63-4.34,1.88-4.86a8.37,8.37,0,0,0,2.91-1.45c.29-.28.81-.28,1.22-.39s.91-.07,1.24-.32c.79-.57,1.38-1.45,2.48-1.44A22.23,22.23,0,0,0,42,365.6ZM86.33,331l-.61,0a.82.82,0,0,0-.72,1c.48,1.68.44,3.55,1.43,5,.23,2.15,1.45,3.93,1.74,6.07A6.14,6.14,0,0,0,90.75,347a1.29,1.29,0,0,0,.92.12,2,2,0,0,0,.9-.35,7.7,7.7,0,0,1,4.3-1.23l1.28,0a1.55,1.55,0,0,0,1.13-.58c.22-.26.46-.5.67-.76a1.76,1.76,0,0,0,.22-2,16.26,16.26,0,0,0-1.14-1.7c-1-.25-1.18-1.75-2.11-2-1.11-.35-1.62-1.48-2.57-2.05s-1.91-1.86-3.15-2.34c-.68-1-2-1.09-2.61-2A2.61,2.61,0,0,0,86.33,331Zm-3.87,34.47c.44-.65.87-1.19,1.2-1.79a.82.82,0,0,0-.17-.95,2,2,0,0,0-.78-.59,16.65,16.65,0,0,0-6.67.12,2.68,2.68,0,0,0-1.18.53,6.57,6.57,0,0,1-3.33,1.15,3.53,3.53,0,0,0-2.12.67.85.85,0,0,0-.18.27c-.12.29,0,.51.22.55a16.75,16.75,0,0,0,2.52.34c2.78,0,5.55,0,8.33,0A16.77,16.77,0,0,0,82.46,365.44Z"/><path d="M909,349.37a1.51,1.51,0,0,0,1.18-.92c.83-1.92,2.26-3.47,3.21-5.31.75-1.46,1.56-2.9,2.44-4.3a33.11,33.11,0,0,1,2.24-3.35,15.81,15.81,0,0,0,1.71-2.58c1-1.8,2-3.57,3-5.4a6.37,6.37,0,0,1,1.58-2.29,3.82,3.82,0,0,0,.85-1.28,43.71,43.71,0,0,0,2.59-4.94,9.89,9.89,0,0,1,1.38-2.06,16.72,16.72,0,0,0,2.09-3.44,6.47,6.47,0,0,1,.44-.82c.49-.91,1.74-1.31,1.8-2.46s.93-1.82,1.29-2.79a11.45,11.45,0,0,1,2.51-3.67c.7-.14,1.52-.24,2.31-.47a5.69,5.69,0,0,1,3.37.15,2.89,2.89,0,0,1,1.36.66,3.25,3.25,0,0,1,.9,2.57c-.33,1.73-.21,3.53-.88,5.2a9.87,9.87,0,0,0-.53,3.05c-.09,1.56-.16,3.11-.25,4.66a15.45,15.45,0,0,1-.51,4,8.09,8.09,0,0,0-.21,2.16c-.08,1.24-.13,2.48-.22,3.73a4.89,4.89,0,0,1-.23,1.53,11.74,11.74,0,0,0-.65,4.58c0,3.53,0,7.06,0,10.59a5.88,5.88,0,0,0,.19,1.84,11.28,11.28,0,0,1,.49,4c0,1.45.05,2.91.17,4.35a16.59,16.59,0,0,1-.32,5.26,4.74,4.74,0,0,0-.22,1.52,20.09,20.09,0,0,1,0,4.65,8.63,8.63,0,0,0,.42,3.38,4.26,4.26,0,0,1,0,2.45,19.62,19.62,0,0,0-.65,6.47,17.55,17.55,0,0,1-.13,2.17,2.54,2.54,0,0,1-.15.92,24.71,24.71,0,0,1-2.45,4.3c-.18.24-.49.41-.64.67-.79,1.37-2.29,1.73-3.55,2.36a5,5,0,0,1-3.35.27,15,15,0,0,1-6.12-2.88,25.17,25.17,0,0,1-5.7-6.08,9.59,9.59,0,0,0-1.55-1.92c-1.08-1-1.54-2.48-2.86-3.23a12.93,12.93,0,0,1-1.32-2.1c-.66-1.69-2-2.88-3.05-4.26a2.43,2.43,0,0,0-1.85-1,12.27,12.27,0,0,0-2,3.38c-1,2.57-2.25,5.06-3.14,7.69a59.69,59.69,0,0,1-2.37,6.73,4.8,4.8,0,0,0-.22,1.21c-.05.31,0,.69-.16.91a6.86,6.86,0,0,0-.92,3.56,5.9,5.9,0,0,1-.46,1.46c-.36.86-.71,1.72-1.15,2.54a4.71,4.71,0,0,0-.54,2.09,14.87,14.87,0,0,1-.58,3.68,7.13,7.13,0,0,0-.29,1.83,12.78,12.78,0,0,1-.69,3,44.59,44.59,0,0,0-2,9.07c-.11,1.65-.38,3.29-.61,4.93a9.24,9.24,0,0,1-.41,1.82,12.38,12.38,0,0,0-.72,6.11,2.87,2.87,0,0,1-.09,1.24c-1,2.8-.92,5.72-.94,8.62a25.37,25.37,0,0,1-.46,5.56,11.38,11.38,0,0,0-.14,3.09,37.38,37.38,0,0,1-.11,6.52,14.18,14.18,0,0,0,0,2.16,2,2,0,0,1-.54,1.71,3,3,0,0,0-.88,2.26,18.91,18.91,0,0,0,.17,2.48,10.13,10.13,0,0,1,.24,1.53,6.8,6.8,0,0,0,1.14,4.11,4.65,4.65,0,0,1,.52,2.71c0,1.66-.11,3.32-.13,5,0,1,0,2.07.08,3.11a11,11,0,0,0,.64,3,24.74,24.74,0,0,1,1.23,5.45,1.05,1.05,0,0,1-.42,1.1c-.63.34-.69,1-1,1.53a.45.45,0,0,1-.75-.08,9.52,9.52,0,0,0-1.59-2.28,12.88,12.88,0,0,1-2.87-7.09,19.5,19.5,0,0,0-.59-3.37,10.22,10.22,0,0,1-.24-2.77,17.67,17.67,0,0,0-.19-3.7,18.58,18.58,0,0,1-.12-3.42,3.29,3.29,0,0,1,.38-1.48,4.69,4.69,0,0,0,.55-2.39c0-1.14,0-2.28,0-3.42a3.5,3.5,0,0,0-.72-2.33,3.65,3.65,0,0,1-.65-1.73,29.28,29.28,0,0,1-.37-6.2c0-2.59.14-5.19.12-7.78a38.08,38.08,0,0,1,.3-4.65c.17-1.44.33-2.89.4-4.34a34.63,34.63,0,0,1,.87-7.09,9.73,9.73,0,0,0,.25-2.47,28.88,28.88,0,0,1,.5-4.64c.47-3.07,1.12-6.1,1.51-9.19a14.14,14.14,0,0,1,.49-2.43,14.47,14.47,0,0,0,.71-4,7.71,7.71,0,0,1,.36-1.83,48.14,48.14,0,0,0,1.72-7.88,15,15,0,0,1,.72-2.37c.21-.78.09-1.69.88-2.24a27.88,27.88,0,0,0,1.33-4.12c.15-.81.39-1.6.6-2.4.07-.3.23-.59.27-.89a27.81,27.81,0,0,1,.42-2.76c.22-.78.8-1.4,1-2.24.27-1.1.79-2.11,1-3.25a7.82,7.82,0,0,1,1-2.58,15.48,15.48,0,0,0,1.92-5.2,2.89,2.89,0,0,1,.21-.91c.86-1.38.81-3,1.07-4.5a3.86,3.86,0,0,0-.84-3.22c-1.89-2.19-3.46-4.65-5.65-6.58-1-.89-1.58-2.19-2.82-2.85a5.91,5.91,0,0,0-2.88-2.26,4.65,4.65,0,0,1-2.31-3.78,4.54,4.54,0,0,1,.73-2.65,2.61,2.61,0,0,1,2-1.33,3.71,3.71,0,0,0,1.42-.56,3.12,3.12,0,0,1,2.7-.15c.68.27,1.36.52,2,.8.28.12.67.25.77.48.41.92,1.37,1.25,2,2a6.35,6.35,0,0,0,2.26,2.08,57.56,57.56,0,0,1,4,4.3A8.81,8.81,0,0,0,909,349.37Zm23,30.49a2.93,2.93,0,0,0,1.56-2.48,19.76,19.76,0,0,1,.22-2.16,62.26,62.26,0,0,0,.8-10.2c0-1.66,0-3.32,0-5,0-5.29,0-10.57-.28-15.84a17.11,17.11,0,0,0-.26-2.78,18.63,18.63,0,0,1-.31-4.94c.07-1.35.14-2.69.27-4a11.76,11.76,0,0,0-.13-3.7.74.74,0,0,0-.73-.47,2.27,2.27,0,0,0-.88.19c-.35.21-.61.55-.94.79-.86.64-.78,1.93-1.78,2.49-.22.13-.27.54-.43.8a16.57,16.57,0,0,1-1.33,2.07c-.65.79-1.49,1.44-2.12,2.25s-1.06,1.77-1.65,2.61c-.28.4-.79.63-.93,1.18a13.5,13.5,0,0,1-2.39,4.33c-1.08,1.51-2,3.1-3,4.67s-1.48,3.64-2.74,5.18c-.69,1.86-.8,3.62.82,5.12a3.7,3.7,0,0,1,.6.71c1.6,2.66,3.68,5,5.21,7.7a20.48,20.48,0,0,0,1.79,2.52c1.38,1.78,3.12,3.27,4.14,5.32a1.54,1.54,0,0,0,.35.51q1.77,1.5,3.55,3A1.76,1.76,0,0,0,932,379.86Z"/><path d="M609.18,317.82c-.51-.62-1.37-.9-1.67-1.74a7.35,7.35,0,0,0-.83-1.9c-.31-.44-.95-.58-1.28-1.12-.54-.88-1.57-1.35-2-2.39a2.29,2.29,0,0,0-.93-1,14.32,14.32,0,0,1-3.43-3.43,10.58,10.58,0,0,0-2.31-2.12,26.9,26.9,0,0,1-6.84-7.27c-.46-.67-.9-1.35-1.34-2a1.79,1.79,0,0,1-.07-1.68c.23-.58.56-1,1.27-1a1.32,1.32,0,0,0,.34,0c.41-.1.48-.4.5-.76a.32.32,0,0,1,.47-.31c1.12.6,2.24,1.21,3.31,1.89a18.67,18.67,0,0,0,5.57,2.79,30.26,30.26,0,0,1,3.62,2.68,25.31,25.31,0,0,1,3.79,4,7.05,7.05,0,0,0,1.42,1.52c.53.43,1.2.65,1.53,1.36a1.42,1.42,0,0,0,.85.53,3.67,3.67,0,0,1,2.47,2.3,2.1,2.1,0,0,0,1,1,6.92,6.92,0,0,1,2.72,2.62,18.8,18.8,0,0,1,3.5,4.25,5.83,5.83,0,0,0,1.69,1.74,7.05,7.05,0,0,1,1.41,1.47,32.42,32.42,0,0,1,2.73,3.15,9.91,9.91,0,0,0,1.41,1.91c.58.51.69,1.44,1.59,1.74.68.24.59,1.24,1.34,1.53s.76,1.41,1.51,1.85.78,1.13,1,1.79a2.38,2.38,0,0,0,.74,1.14,20.56,20.56,0,0,1,2.39,2.87,10.6,10.6,0,0,1,2,3.26,1.8,1.8,0,0,0,.64.79,1.76,1.76,0,0,1,.74,1.12,5.28,5.28,0,0,0,1.19,3.21,3,3,0,0,1,.49,1.63c.1.81.08,1.63.12,2.45a2,2,0,0,0,.67,1.54,3,3,0,0,1,.91,2.21c.08,1.74.09,3.49.09,5.24a4.9,4.9,0,0,1-.64,2.34,12.66,12.66,0,0,0-1,2.22,3.84,3.84,0,0,1-.91,1.43,9.61,9.61,0,0,0-1,1.8c-.17.29-.32.75-.57.82-1.61.47-1.93,2.29-3.15,3-1.39.81-3.21.53-4.67,1.36a2,2,0,0,1-1,.15,26.12,26.12,0,0,0-5.92.43,28.67,28.67,0,0,1-5.92.29c-3.15-.19-6.31.17-9.43-.37a4.1,4.1,0,0,0-1.05,0c-4.19.45-8.39.25-12.59.32s-8.4.08-12.6.13a18.5,18.5,0,0,0-2.79.15c-.79.13-1.52.53-2.3.72-1.35.35-2.72.63-4.32,1-.87,1.11-2.67,1.38-3.68,2.74a.89.89,0,0,1-.64.21c-1.29,0-2,.86-2.84,1.71-1.13,1.14-2.45,2.1-3.6,3.26-.42.41-.68,1-1.09,1.3-1,.81-1.4,2.17-2.7,2.62-.72,1-2.08,1.52-2.35,2.9-1,1.41-2,2.87-3.06,4.23a7.71,7.71,0,0,1-2.78,2,2.08,2.08,0,0,1-1.71,0,9.2,9.2,0,0,1-3-2.34,1.15,1.15,0,0,1-.31-.62,21.68,21.68,0,0,0-1.42-4.3,3.21,3.21,0,0,1,.36-3.31,3.43,3.43,0,0,0,.76-2.27c-.07-2.79.23-5.59-.4-8.36a15.23,15.23,0,0,1-.22-2.79c-.1-2.68-.25-5.34-.59-8a34.8,34.8,0,0,1,0-5.59c0-.93.15-1.84.1-2.78a6.15,6.15,0,0,1,.43-2.38,14.85,14.85,0,0,0,.71-5.16c0-.93,0-1.87,0-2.8,0-1.17,0-2.33.1-3.5a4,4,0,0,1,.62-2.32,4.16,4.16,0,0,0,.89-2.24,3.52,3.52,0,0,1,.64-2.31,4.58,4.58,0,0,0,1-2.55,7.57,7.57,0,0,1,2.12-3.91c.22-.25.68-.41.75-.68.57-2.45,3-3.45,4.15-5.48a1.33,1.33,0,0,1,.89-.46,8.18,8.18,0,0,0,3.94-1.29,2.51,2.51,0,0,1,1.34-.32c1.74,0,3.5-.18,5,1a3.45,3.45,0,0,0,1.65.46,1.84,1.84,0,0,1,1.67,1.05c.35.83,1.4.8,1.89,1.48s1.16.7,1.83.91a2.12,2.12,0,0,1,.87.48,15.73,15.73,0,0,0,2.36,2.51c1,.63,1.45,1.8,2.6,2.19a17.51,17.51,0,0,0,3.31,3.46c.77,1.5,2.39,2.19,3.42,3.63.07.18.18.51.28.85l.93,3-1.07,3.31A8.87,8.87,0,0,0,585,343c-1.33,1.34-2.74,1-4.15.32a19,19,0,0,1-3-1.72,15.54,15.54,0,0,1-2.21-2.16,12.2,12.2,0,0,1-2.17-2.72,1.37,1.37,0,0,0-.74-.69c-1.34-.27-2.16-1.29-3.12-2.09s-1.92-1.66-2.8-2.55a2.42,2.42,0,0,0-1.52-.76,13.32,13.32,0,0,0-2.44-.14c-1.71.12-2.33.47-2.54,2.24a2.72,2.72,0,0,1-.74,1.54c-.46.52-.82,1.12-1.25,1.67a5.09,5.09,0,0,0-1.3,3.51,18.75,18.75,0,0,1-.23,2.79,2.29,2.29,0,0,1-.69,1.56,1.78,1.78,0,0,0-.57,1.23c-.17,2.67-.32,5.35-.52,8a61.81,61.81,0,0,0,.16,7.33c.11,2.33.14,4.66.22,7,0,.94,0,1.87.13,2.8.08.67.18,1.41,1,1.68a2.21,2.21,0,0,0,2.33-.13c.69-.65,1.59-1,2.28-1.59s1.31-1.31,2-2c.33-.32.64-.82,1-.88.91-.13,1.24-1.14,2-1.29,2.27-.47,3.79-2.2,5.73-3.22a3.37,3.37,0,0,1,1.62-.55,3.26,3.26,0,0,0,2.48-1.07,10.85,10.85,0,0,1,1.72-1.17,6.31,6.31,0,0,1,3.6-1.17,6.94,6.94,0,0,0,4.36-1c1.14-.19,2.29-.42,3.44-.56a4.63,4.63,0,0,0,2.32-.67,5,5,0,0,1,3-.83c1.63,0,3.26-.08,4.89-.16a19.83,19.83,0,0,0,2.78-.27,24.16,24.16,0,0,1,6.63-.18c3.6.32,7.21.29,10.82.5,1.74.11,3.49.19,5.24.28a4.28,4.28,0,0,1,2.3.72c1.48,1,2.83.67,4.1-.42.18-.15.37-.27.64-.47a19.68,19.68,0,0,0,.08-5.84,1.29,1.29,0,0,0-.4-.91,2.64,2.64,0,0,1-1.06-1.73,3.52,3.52,0,0,0-1.07-2.13,1.93,1.93,0,0,1-.56-1.23c-.13-1.84-1.16-3.29-2.06-4.75a8.77,8.77,0,0,1-1.3-2.43,2.53,2.53,0,0,0-1-1.34,8,8,0,0,1-1.28-1.6c-.83-1.12-2.2-1.71-2.9-2.95-1-.31-1.28-1.28-1.91-1.94a10.08,10.08,0,0,1-1.33-2,17.09,17.09,0,0,0-2.38-2.91c-.59-.65-.88-1.71-2-1.86a14.8,14.8,0,0,0-1.86-2.47c-.55-.6-1-1.28-1.5-1.93Z"/><path d="M226.67,424c-.69.88-.87.92-1.37.4a9.2,9.2,0,0,1-1.86-2.85,6.24,6.24,0,0,0-1-1.85,5.17,5.17,0,0,1-1.81-2.26,7.16,7.16,0,0,0-1.74-2.46c-.63-.72-1.07-1.76-1.66-2.58a32.15,32.15,0,0,0-2.62-3.34,4.59,4.59,0,0,0-2.72-1.67c-.17,0-.33-.19-.6-.35-.09-.39-.21-.87-.31-1.36a2.33,2.33,0,0,0-1.29-1.85c-.33-.16-.78-.43-.89-.82-.32-1.17-1.29-1.47-1.6-2.6-.72-.48-.89-1.66-1.44-2.28s-.91-1.88-1.83-2.27a7.45,7.45,0,0,1-2.07-1.9,10.71,10.71,0,0,1-.93-1.47l-6.33-.06c-3.86,0-7.72,0-11.58-.08a33.25,33.25,0,0,1-4.67-.35,9.94,9.94,0,0,0-1.63-.12,6,6,0,0,1-2.44-.5,10.65,10.65,0,0,0-4.06-.87,26.3,26.3,0,0,1-4.68-.44,36.17,36.17,0,0,0-7.42-.36,2.09,2.09,0,0,0-.55.08c-1.54.36-3.08-.29-4.66.21a17.92,17.92,0,0,1-4.39.5c-1.56.11-3.12.14-4.68.22a41.73,41.73,0,0,1-6.89-.2,1.6,1.6,0,0,1-1.55-1.34,2.63,2.63,0,0,1-1-2.51c-.45-2.74,0-5.46.17-8.18,0-.57.38-.83.6-1.23a16.52,16.52,0,0,0,1.71-3.91c.31-1.22.73-2.38,1.06-3.61a23.59,23.59,0,0,1,1.38-3.37,17.91,17.91,0,0,0,1.5-4.13,3.34,3.34,0,0,0,.78-2.36c.08-.82.27-1.47.9-1.78a2.68,2.68,0,0,0,1.23-2,4.88,4.88,0,0,1,.73-2.06c.73-1,.63-2.76,1.58-3.59.48-1.26,1.05-2.47,1.42-3.79a11.78,11.78,0,0,1,1.21-3,8.65,8.65,0,0,0,1.35-3.78,6.63,6.63,0,0,1,.59-2.17,5.94,5.94,0,0,0,.55-2.18c.08-.92.12-1.86.8-2.36.87-2.58,1.83-5.1,2.66-7.71a5.91,5.91,0,0,0,.19-1.54c.05-1.61,1.1-2.34,1.52-3.62.06-.19.3-.3.47-.35a13.46,13.46,0,0,0,2.89-1.22,2.22,2.22,0,0,1,2.42.19c.23.16.6.33.77.18,1.19-1.07,2.52-.58,3.78-.77a26.84,26.84,0,0,1,3.58-.19,38.42,38.42,0,0,0,6.33-.51,16.48,16.48,0,0,1,3.58-.11c.75,0,1.14-.65,1.67-1.31l2.14-.08c.37,0,.74,0,1.11,0,2.67-.24,2.17.25,4.66-3.24.67-.93,1.53-.78,2,.45a5.83,5.83,0,0,0,.22.71c.1.2.27.47.4.47,1.16,0,1.79,1.79,3,1.7.3,0,.66.43.93.76a13.21,13.21,0,0,1,.94,1.44,3,3,0,0,1,0,3.16,8.81,8.81,0,0,0-1,2.73,9.33,9.33,0,0,0-.06,3.87,29.91,29.91,0,0,1,.91,6.93,2.86,2.86,0,0,0,.19,1.13,11.32,11.32,0,0,1,.64,3.4c.06,1.37.71,2.41.92,3.68s.32,2.58.48,3.87a.9.9,0,0,0,.11.35,6.2,6.2,0,0,1,.8,3.65,6.12,6.12,0,0,0,.78,3.25,5,5,0,0,1,.35,1.85c.16,1.55.15,3.17,1,4.37a31.22,31.22,0,0,1,1.41,6.76,4.24,4.24,0,0,0,.84,2.76,3.45,3.45,0,0,1,.41,1.42,5.11,5.11,0,0,0,.79,2.44,3.59,3.59,0,0,1,.34,1.44,25,25,0,0,0,.39,2.68c.23.82.72,1.44,1,2.31a7.7,7.7,0,0,0,1.06,1.76,1.41,1.41,0,0,0,.94.73,1.58,1.58,0,0,1,1.12,1c.09.22.26.37.37.58a15.56,15.56,0,0,1,1.25,2.56c.29.93,1.15,1,1.28,2s1.1,1.34,1.22,2.5c.08.73.8.52,1,1.07.4.88.81,1.75,1.16,2.65a2,2,0,0,0,.82,1,.87.87,0,0,1,.39.49c.24,1.57,1.19,2.22,2,3,.3.32.5.76.76,1.06a1.83,1.83,0,0,1,.6,1.57,1.45,1.45,0,0,0,.49,1.3,2.31,2.31,0,0,1,.92,1.35,26.32,26.32,0,0,0,1.28,3.88,7,7,0,0,0,1.5,2.18,3.49,3.49,0,0,1,1,2.21,3.67,3.67,0,0,0,.91,1.86,16.67,16.67,0,0,1,2.4,4.2,13.29,13.29,0,0,1-.07,3.57c-.16,1.07-.86,1.79-1.64,1.62a12.29,12.29,0,0,1-1.6-.58l0-.22Zm-32.74-41.52a6,6,0,0,0-1.53-4.07c-.37-.35-.62-1-1-1.33a2.46,2.46,0,0,1-.69-1.6,4.83,4.83,0,0,0-.73-2.06,3.11,3.11,0,0,1-.06-2.93,21.23,21.23,0,0,1,1.95-3.73,2.1,2.1,0,0,1,1.17-.89c.36-.06.73-.07,1.09-.16a1.45,1.45,0,0,0,1-1.23,7.72,7.72,0,0,0,.21-1.91,9.45,9.45,0,0,0-.38-2.28,18.33,18.33,0,0,1-.84-4.53,3,3,0,0,0-.2-1.13c-1-2.08-.58-4.91-1.78-6.9a3,3,0,0,1-.19-1.13c-.06-.78-.08-1.57-.11-2.35a3.88,3.88,0,0,0-.46-1.8,3.75,3.75,0,0,1-.43-1.41c-.18-1.55-.23-3.13-.44-4.67s-.6-3-.86-4.53c-.13-.75-.15-1.55-.24-2.33a7.21,7.21,0,0,0-.27-1.51c-1-2.61-.81-2.83-2.88-2.57a5.08,5.08,0,0,0-3.16,1.18.67.67,0,0,1-.78-.08,1.77,1.77,0,0,0-2.8,0,2.8,2.8,0,0,1-1.56.64,25.66,25.66,0,0,1-3,.27c-1.66.06-3.31.08-5,.07a4.4,4.4,0,0,0-2.94.88,4.79,4.79,0,0,1-2.37.9c-.46.07-.92.11-1.37.16-.66.07-.6.18-1.53,1.3a4.2,4.2,0,0,0-1.18,2.5,2.39,2.39,0,0,1-.28,1.09c-.7.82-.74,2.06-1.11,3.08a30.93,30.93,0,0,0-1.29,4.29,2.48,2.48,0,0,1-.47.93c-.65.83-.52,2.22-1.15,3.07a3.2,3.2,0,0,0-.3,1.09,30.34,30.34,0,0,1-1.57,4.8c-.78,1.89-1.94,3.45-2.36,5.65-.07.33-.37.55-.54.85a3.08,3.08,0,0,0-.43,1,7.41,7.41,0,0,1-1.16,3.06c.1,1.54-1.08,2-1.33,3.28a14.72,14.72,0,0,0-1.86,3.84,5.55,5.55,0,0,0-.39,1.44c-.13,1.17-.14,2.39-1.08,2.94a7.19,7.19,0,0,0-.43,4.5c.13.53.44.91.81.92a20.62,20.62,0,0,0,3.85,0,24.85,24.85,0,0,1,3.85-.21c1.83,0,3.66,0,5.49-.08.35,0,.67-.37,1-.5s.59-.2.77,0c1.18,1,2.49.72,3.75.8,2.75.15,5.51.26,8.26.31a2.83,2.83,0,0,1,2.34.8,1.75,1.75,0,0,0,1.05.43c2.65.36,5.3.54,8,.65.09,0,.18-.05.27-.06,1.66-.21,3.28-.22,4.74,1.29a.94.94,0,0,0,1.53-.18c.38-.5.69-.57,1.16,0A1.44,1.44,0,0,0,193.93,382.45Z"/><path d="M1165.42,138.38c.09-1.44.2-3.19.29-4.95q.19-3.5.36-7c0-.59,0-1.18.09-1.76.47-3.72.52-7.46.62-11.21.06-2.1.21-4.21.36-6.31.37-5.14.86-10.27,1.12-15.42.15-2.92-.07-5.85-.13-8.78,0-1-.13-2.11-.07-3.16a68.38,68.38,0,0,0-.39-10.51c-.25-2.92-.46-5.83-.86-8.74-.34-2.43-.63-4.88-1-7.3a67.45,67.45,0,0,0-2.37-9.89c-.81-2.44-1.4-5-2.18-7.4a6.55,6.55,0,0,1-.22-2.42c.19-2.46,1.63-3.56,4.32-3.52a11.81,11.81,0,0,0,3.84.28,2.32,2.32,0,0,1,1.86.83,12.58,12.58,0,0,1,2,2.89,39.11,39.11,0,0,0,4.36,8c1.13,1.49,2.36,2.92,3.41,4.46s1.86,3.26,2.91,4.81c2.24,3.28,4.6,6.49,6.58,10a38.36,38.36,0,0,0,3.13,4.22.69.69,0,0,0,.62.19.74.74,0,0,0,.39-.51,13.48,13.48,0,0,0,.21-4.2,91,91,0,0,1-.37-10.18,34.63,34.63,0,0,1,.19-4.2,25.65,25.65,0,0,0,.24-5.61,9.3,9.3,0,0,1,1.37-5.36,4.36,4.36,0,0,1,4.45-2.19,10.16,10.16,0,0,1,2,.51c3.47,1.33,3.6,1.86,4,5a16.36,16.36,0,0,1,.1,2.8c-.1,2.35-.31,4.68-.4,7-.09,2.11-.17,4.22-.07,6.32.2,4.21.52,8.42.8,12.63.36,5.49.73,11,1.08,16.48.08,1.28.13,2.57.18,3.86a13,13,0,0,0,0,1.4c.72,4.52.86,9.09,1.4,13.62.07.58.21,1.15.33,1.73a32.87,32.87,0,0,1,.37,8,4.51,4.51,0,0,1-1.61,3,2.28,2.28,0,0,1-1.26.54c-1.63.2-3.26.35-4.9.45a2.85,2.85,0,0,1-2.22-.88,7.51,7.51,0,0,1-2.48-4.53,5.49,5.49,0,0,0-.45-1.69c-1-2.12-1.33-4.48-2.23-6.64a5.1,5.1,0,0,1-.22-1q-1.12-5.15-2.6-10.2c-.33-1.12-.68-2.24-1.05-3.35-.62-1.89-1.24-3.78-1.91-5.65s-1.3-3.76-2.08-5.58c-.88-2-1.88-4-2.85-6a10.23,10.23,0,0,0-.91-1.49,21.13,21.13,0,0,1-2.89-4.8.68.68,0,0,0-.59-.19.74.74,0,0,0-.46.44,18.18,18.18,0,0,0-.25,2.44c0,2.46,0,4.92,0,7.38a89.68,89.68,0,0,0,.42,9.83,28.34,28.34,0,0,1-.1,6.31c-.14,1.16-.19,2.33-.23,3.5-.09,3.28-.24,6.55-.59,9.82a70.37,70.37,0,0,1-1.29,9,13.32,13.32,0,0,0-.18,2.1,60.76,60.76,0,0,1-1,8.37,27.75,27.75,0,0,0-.27,5.25,47.35,47.35,0,0,1-.43,5.95,29.75,29.75,0,0,0-.34,4.9,13.14,13.14,0,0,1-.39,3.48,19.77,19.77,0,0,0-.48,3.82c-.1,1.63-.3,3.26-.43,4.89-.1,1.28-.21,2.57-.23,3.85-.1,6.12-.33,7.47-2.36,13a3.33,3.33,0,0,1-.36.59.67.67,0,0,1-.9.11,5.83,5.83,0,0,1-1.64-3.41c-.13-1.4-.24-2.8-.36-4.2a33.55,33.55,0,0,0-.71-5.57,3,3,0,0,0-1-1.78,2.55,2.55,0,0,1-1-2.14c0-2,0-4,0-6C1165.53,144.08,1165.47,141.39,1165.42,138.38Z"/><path d="M437.25,45.48c-.65.47-1.42.19-2.11.37a10.06,10.06,0,0,0-1.15.44.43.43,0,0,0-.15.25.27.27,0,0,0,.1.21,1.58,1.58,0,0,0,.6.13,11.72,11.72,0,0,1,4.87.79,11.11,11.11,0,0,0,3.38.54l4,.08a2.14,2.14,0,0,1,.62,0c1.76.56,3.64.67,6.08,1.58a9.2,9.2,0,0,1-1.95-.14,7.38,7.38,0,0,0-3.05-.45,22.14,22.14,0,0,1-5.26-.39,17.85,17.85,0,0,0-3.73-.12,90.27,90.27,0,0,1-13.05-.64,61.31,61.31,0,0,0-9-.42c-3.32.07-6.64-.06-10-.08-.93,0-1.86,0-2.7.06a3.29,3.29,0,0,0-1.16,3.42,46.12,46.12,0,0,1,.58,8.05c0,4.57,0,9.14.07,13.7a24.24,24.24,0,0,0,.27,3.41c.21,1.38.72,1.8,2.06,1.82,2.29,0,4.57,0,6.86.05a44.2,44.2,0,0,1,7.45.39,8.91,8.91,0,0,0,3.09-.16,4,4,0,0,1,3,.45,3.41,3.41,0,0,0,1.48.37c1.23.11,2.48.15,3.72.26a5.48,5.48,0,0,1,1.5.36,28.82,28.82,0,0,0,6.81,2,3.52,3.52,0,0,1,2.83,2,2.16,2.16,0,0,0,1.12,1,5.34,5.34,0,0,1,2.15,1.18.43.43,0,0,1,.08.29.26.26,0,0,1-.18.17l-2.45-.28a7.94,7.94,0,0,0-3.69.28,6.62,6.62,0,0,1-3.06.28c-.72-.09-1.45,0-2.18-.07-3-.09-6-.13-9-.28a68.11,68.11,0,0,0-8.69.08c-2.58.21-5.18.15-7.78.17a15.85,15.85,0,0,0-4,.52,3.42,3.42,0,0,0-1.09.56,1.17,1.17,0,0,0-.47.75c0,2.49,0,5,0,7.47,0,3.94-.23,7.88-.08,11.82,0,.52,0,1,0,1.56.07,1.58.34,1.81,2,2.25a33.7,33.7,0,0,0,8.31,1,11.72,11.72,0,0,1,2.76.4,18,18,0,0,0,4.61.59c1.66,0,3.32.16,5,.23a1.82,1.82,0,0,1,1.16.34,2.83,2.83,0,0,0,1.74.58c.83,0,1.66.06,2.49.08s1.87.07,2.8,0a28.92,28.92,0,0,1,9.78,1.52,16.16,16.16,0,0,1,4.3,1.76,4.85,4.85,0,0,0,2.21.8c-.61.11-1.23.17-1.82.33a2.28,2.28,0,0,0-1.69,1.67c-.08.3-.19.6-.29.92-1.26.42-2.51.87-3.79,1.24a5.64,5.64,0,0,1-1.54.16c-1.56,0-3.12,0-4.67-.07-2-.14-3.94-.1-5.91-.12a64.8,64.8,0,0,1-10.87-.6,25,25,0,0,0-4.65-.31,19.62,19.62,0,0,1-4.65-.38,8.8,8.8,0,0,0-1.54-.12c-2.9-.1-5.8-.51-8.7-.17-.21,0-.42,0-.62,0-2.69.26-4.17-1.45-5.5-3.37a2.42,2.42,0,0,1-.34-1.18c-.1-2-.4-3.92.35-5.85a3.53,3.53,0,0,0,.11-1.83,4.43,4.43,0,0,1,0-2.14,1.52,1.52,0,0,0,.07-.91c-.62-1.61-.19-3.29-.42-4.93a38.06,38.06,0,0,1-.18-4.66,10.43,10.43,0,0,0-.6-3.67,9,9,0,0,1-.61-3,4.68,4.68,0,0,0-.67-2.66,3.92,3.92,0,0,1-.36-1.8,7.71,7.71,0,0,0-.92-3.58,5.6,5.6,0,0,1-.52-2.1,3.33,3.33,0,0,0-.72-2,2,2,0,0,1-.33-1.17c-.06-2.42-1-4.64-1.46-7a6.23,6.23,0,0,0-.47-1.14c-.23-.57-.45-1.15-.66-1.73a29.93,29.93,0,0,0-1.13-3.22c-1.37-2.79-2.82-5.54-4.29-8.27A17.07,17.07,0,0,0,379.46,52c-1.39-1.52-2.56-3.22-4-4.72a13,13,0,0,1-2.94-3.53,1.46,1.46,0,0,0-.64-.66c-1.19-.57-2.1-1.64-3.55-1.78a9.92,9.92,0,0,1-2.36-.74,24.23,24.23,0,0,0-5.33-1.66,3.62,3.62,0,0,1-1.43-.57,4,4,0,0,0-1.44-.54,15.29,15.29,0,0,1-5.35-2.4,3.13,3.13,0,0,1-.7-.6c-.87-1-1.24-1.72-.59-3.11a10.58,10.58,0,0,1,.76-1.35,1.62,1.62,0,0,1,1.29-.77c1.66,0,3.32,0,5,0a2.68,2.68,0,0,1,.9.24A49.07,49.07,0,0,0,364.83,32c1,1,2.44,1,3.59,1.73a2.37,2.37,0,0,0,.85.37c2,.24,3.69,1.34,5.58,1.88a13.74,13.74,0,0,0,3,.68c3.12.15,6.12,1.06,9.22,1.36a9.1,9.1,0,0,1,1.75.61,7.92,7.92,0,0,0,1.49.37,3.61,3.61,0,0,0,4.05-2.19,2.14,2.14,0,0,1,2.21-1.36h.31c.21,0,.42,0,.62,0A3.54,3.54,0,0,1,401.63,38,3.94,3.94,0,0,0,403,39.6a2.69,2.69,0,0,0,1.69.66c1.46.05,2.91.08,4.36.18a18.86,18.86,0,0,1,4,.47,15.33,15.33,0,0,0,4.29.56,20.21,20.21,0,0,1,5.84.83,11.44,11.44,0,0,0,2.45.43,15.61,15.61,0,0,1,5.1,1.27,2.76,2.76,0,0,0,1.49.32,6.76,6.76,0,0,1,3.34.54C436.15,45.05,436.84,44.88,437.25,45.48Zm-43-.19a8.35,8.35,0,0,0-1.3-.16,11.58,11.58,0,0,1-4.55-.78,9.81,9.81,0,0,0-4-.36,2.25,2.25,0,0,0-1.69,1.21.54.54,0,0,0,.06.55c1.58,1.37,2.53,3.21,3.71,4.88.41.59.75,1.24,1.21,1.79a8.57,8.57,0,0,1,1.92,2.76c.34,1.06,1.47,1.74,1.44,3,0,.16.18.37.32.5a2,2,0,0,1,.63,1.38,8,8,0,0,0,1.19,3.44,10.76,10.76,0,0,1,1.51,4.35.71.71,0,0,0,.74.41c.17-.09.41-.24.43-.38.13-1,.27-2,.32-3.07a26.32,26.32,0,0,0,0-4.61,36,36,0,0,1-.32-4.63c0-1.55-.08-3.1-.17-4.65a9.38,9.38,0,0,0-.32-1.82C395.08,47.91,394.69,46.74,394.24,45.29Z"/><path d="M89.4,30.55a8,8,0,0,0,1.43-.87,2.27,2.27,0,0,1,3-.22c1.59.92,3.4,1.49,4.63,3,1.05.57,1.89,1.48,3.09,1.81a3.47,3.47,0,0,1,1.13.65,14.77,14.77,0,0,0,1.73,1.45,11.88,11.88,0,0,0,2.15.75,19.65,19.65,0,0,1,3.09,1,26.23,26.23,0,0,0,2.79.87c2.14.85,4.47,1,6.57,2a6.63,6.63,0,0,0,2.25.35,12.42,12.42,0,0,1,4.16.79,17.61,17.61,0,0,0,2.23.46c.93.28,1.81.75,2.75,1s1.94.29,2.91.46c.43.08.83.28,1.25.39,2.54.61,4.92,1.82,7.6,1.86a7.67,7.67,0,0,1,1.58.41c.85.21,1.69.41,2.54.6.43.1.88.1,1.29.23.83.27,1.61.7,2.45.89a12.55,12.55,0,0,0,2.61.24c1,0,1.77.85,2.75,1a11.76,11.76,0,0,1,2.88.55,10.71,10.71,0,0,0,2.81.79,7.61,7.61,0,0,1,3.59,1.5,4.27,4.27,0,0,0,1.1.7,3.71,3.71,0,0,1,2,2.08c.18.39.37.78.6,1.26a18.28,18.28,0,0,0-.55,1.81,4.81,4.81,0,0,1-2.85,3.36,9.51,9.51,0,0,1-3.66,1.34,5,5,0,0,0-1.2.48,9.6,9.6,0,0,1-1.86.6,8.15,8.15,0,0,0-3.45.9,1.51,1.51,0,0,1-.62.2,50.93,50.93,0,0,0-7.91,2,17.46,17.46,0,0,1-2.58.47c-.54.08-1.12,0-1.64.12-4.46,1.16-9.09,1.25-13.57,2.27-.42.1-.83.26-1.25.38a.36.36,0,0,0-.26.51c0,.08.09.19.15.2l2.91.47a2.79,2.79,0,0,1,1.26.31c1,.83,2.25.71,3.45.76,1,0,2,0,2.95.12a9.44,9.44,0,0,1,2.26.36,19.44,19.44,0,0,0,3.85.76,43.76,43.76,0,0,1,7.32,1.73c.73.23,1.48.39,2.22.57a5.93,5.93,0,0,1,2.44.84,3.39,3.39,0,0,0,1.56.36,3.22,3.22,0,0,1,1.81.7c.16.14.35.35.53.35,1.41,0,2.39,1,3.62,1.35s2,1.42,3.23,1.52a30.62,30.62,0,0,1,3.2,2.26c.89.81,1.94,1.41,2.74,2.29A17.36,17.36,0,0,0,175,88.52a1.94,1.94,0,0,1,.55.79,7,7,0,0,1-1.37,7.86,2.24,2.24,0,0,1-.45.47c-1.6.91-3.2,1.84-4.83,2.7a13.78,13.78,0,0,1-2.67,1.17,13,13,0,0,0-2.76,1,13.35,13.35,0,0,0-2.35,1.13,1.59,1.59,0,0,1-.9.36,6.78,6.78,0,0,0-3.85,1.64,3.64,3.64,0,0,1-2.12.79,4.06,4.06,0,0,0-2.39.88,13.36,13.36,0,0,1-3.19,1.58c-1.2.42-2.13,1.46-3.57,1.42-.59,0-1.19.49-1.79.75l-6,2.67a3,3,0,0,0-.61.24,22.71,22.71,0,0,1-2.61,1.92c-.85.45-1.94.32-2.77,1a1.46,1.46,0,0,1-.58.3c-2.08.36-3.78,1.61-5.66,2.43-2.19,1-4.26,2.2-6.64,2.69a6.63,6.63,0,0,0-1.17.57,4.79,4.79,0,0,1-1.52.54,7.61,7.61,0,0,0-3.4,1,4.58,4.58,0,0,1-4.79,0l-.48-1.83a12,12,0,0,1,2.93-3.92,2.68,2.68,0,0,0,.87-2.36,9.38,9.38,0,0,0-.38-2.25,5.17,5.17,0,0,1-.44-1.89c0-1.53-.39-3-.4-4.54,0-1.86,0-3.72,0-5.58s.13-3.49.23-5.23a3.46,3.46,0,0,1,.27-1.6,7.34,7.34,0,0,0,.67-3.82c.11-3.49.23-7,.28-10.49,0-1.63-.21-3.28-.17-4.91A3.31,3.31,0,0,0,109,72.76a10.19,10.19,0,0,1-1.34-.91,2.34,2.34,0,0,1-.93-2.31,5.56,5.56,0,0,0,0-1.29,1.78,1.78,0,0,1,.56-1.47c.3-.32.55-.77.92-.91,1.23-.46,1.19-1.44,1.17-2.44a2.42,2.42,0,0,0,0-.66c-1-3-1.6-6.12-2.78-9.07a38.78,38.78,0,0,0-2.06-4.07,7.79,7.79,0,0,1-1.08-2.34,2.66,2.66,0,0,0-.67-1.1,56.89,56.89,0,0,0-6.28-6.62,3.5,3.5,0,0,0-1.28-.9,1.86,1.86,0,0,1-1.18-1.06,1.79,1.79,0,0,0-1.47-1.15,2.39,2.39,0,0,1-1.36-.86,15,15,0,0,0-1.33-1.42,2.11,2.11,0,0,1-.75-2C89.21,31.6,89.33,31.06,89.4,30.55Zm31.34,70.93c-.11,2.81-.25,5.76-.33,8.7,0,1,0,2,.11,2.94a1.07,1.07,0,0,0,1.12,1,8.38,8.38,0,0,0,4.29-1.45,26,26,0,0,1,5.78-3c1-.37,1.95-.95,2.93-1.41,3.35-1.57,6.59-3.4,10-4.8a33.89,33.89,0,0,0,4.65-2.37,2.5,2.5,0,0,1,1.19-.46,6.51,6.51,0,0,0,2.44-.81c1.3-.59,2.51-1.33,3.75-2a50.92,50.92,0,0,1,7.11-3.24A4.64,4.64,0,0,0,166,93.22a1.7,1.7,0,0,0,.27-2.32,14.24,14.24,0,0,0-2.91-2.62,57.2,57.2,0,0,0-4.94-3.15A23.15,23.15,0,0,0,153.66,83c-3.49-.87-6.93-1.93-10.45-2.69A13.66,13.66,0,0,0,140.3,80a14.4,14.4,0,0,1-4.51-.74,10.76,10.76,0,0,0-3.23-.48c-.87,0-1.75,0-2.62-.07a10.92,10.92,0,0,1-4.48-.84,1.75,1.75,0,0,0-.95-.19c-1.43.2-2.82-.23-4.24-.23a2.18,2.18,0,0,0-2.06,1.76c0,2-.44,4.14.83,6a4.85,4.85,0,0,1,.32,1.26,5.1,5.1,0,0,0,.47,1.55,5.16,5.16,0,0,1,.65,2.83C120.56,94.35,120.65,97.84,120.74,101.48Zm-7.09-49.05a5.73,5.73,0,0,0,2.43,0,3.46,3.46,0,0,1,2.43.8,2.1,2.1,0,0,1,.9,1.65,4.53,4.53,0,0,0,.49,1.19,4.55,4.55,0,0,1,.08,4.11,6.43,6.43,0,0,0-.53,2.54,2.13,2.13,0,0,0,1.83,2c.54,0,1.08-.17,1.62-.19,2.52-.12,5-.19,7.54-.31A3.26,3.26,0,0,0,132,64c1.15-.83,2.46-.79,3.76-.92a9.09,9.09,0,0,0,2.58-.36c1.34-.53,2.81-.61,4.08-1.18a22.4,22.4,0,0,1,4.44-1.06c.53-.13,1-.35,1.55-.52a4.28,4.28,0,0,1,1.26-.33c1.82,0,3.39-.77,5.05-1.31a1.37,1.37,0,0,0,.89-1.25,1,1,0,0,0-.74-1.22,10.86,10.86,0,0,1-3.21-.6c-1.3-.62-2.77-.66-4.07-1.19a14.18,14.18,0,0,0-4.15-.88,9.85,9.85,0,0,1-1.24-.39c-.83-.24-1.68-.46-2.52-.69a7.35,7.35,0,0,1-1.56-.44A6.31,6.31,0,0,0,136,51a8.4,8.4,0,0,1-3.45-.92,2.57,2.57,0,0,0-1.27-.26,8.22,8.22,0,0,1-3.17-.74,5.79,5.79,0,0,0-2.21-.54,13.19,13.19,0,0,1-3.51-.66,18.08,18.08,0,0,1-3.72-1.18,4.88,4.88,0,0,0-2.51-.63,6.61,6.61,0,0,1-3.78-.88,2.62,2.62,0,0,0-1.91-.26,1,1,0,0,0-.71,1,2.42,2.42,0,0,0,.25.93C111.2,48.73,112.46,50.63,113.65,52.43Z"/><path d="M495.56,124.9c-1-.3-1.85-.53-2.69-.8a2.11,2.11,0,0,1-1.44-1.65,20.45,20.45,0,0,0-.86-2.92,6.82,6.82,0,0,1-.34-2.12,8.88,8.88,0,0,0-.53-3,10.33,10.33,0,0,1-.62-3.32,8.82,8.82,0,0,0-.54-3.33,5.55,5.55,0,0,1-.35-1.81c-.17-2.16-.35-4.33-.41-6.51a17,17,0,0,0-.52-4.29,23.78,23.78,0,0,1-.71-5.51c0-.62-.05-1.25-.05-1.87a13.36,13.36,0,0,0-.59-4.27,13,13,0,0,1-.48-4,16,16,0,0,0-.55-4,16.56,16.56,0,0,1-.68-5.2,7.07,7.07,0,0,0-.59-3,5.92,5.92,0,0,1-.55-1.73,9.21,9.21,0,0,0-1-4.1.72.72,0,0,1-.1-.29,13,13,0,0,0-1.21-5,6.07,6.07,0,0,0-.91-2.85c-.45-.74-.44-1.79-1.17-2.38a1.9,1.9,0,0,1-.48-1.06,2.52,2.52,0,0,0-1.33-1.79,4.34,4.34,0,0,0-2.48-.78,48.27,48.27,0,0,1-5.23-.41,3.76,3.76,0,0,1-1.49-.53,4.6,4.6,0,0,0-2.51-.77,4.75,4.75,0,0,1-2.26-.7,9.68,9.68,0,0,0-1.46-.69c-1.11-.37-1.88-1.46-3-1.92a9,9,0,0,1-2.53-6.54,1.41,1.41,0,0,1,.24-.86c.86-1,1.59-2.25,3-2.27a2.55,2.55,0,0,0,.78-.13,14.31,14.31,0,0,1,4.39-.63,7.55,7.55,0,0,1,3.59.54,7.47,7.47,0,0,0,2.33.36,2.36,2.36,0,0,1,1.85,1,1.38,1.38,0,0,0,1.19.52,1.42,1.42,0,0,1,1.32.81c.25.46.73.51,1.16.62a4.7,4.7,0,0,1,2.74,2.17c.32.49.61,1,1,1.47a1.06,1.06,0,0,0,.67.42c.69.11,1.39.14,2.09.2a14,14,0,0,1,4.62,1,5.8,5.8,0,0,0,2.32.41c1,0,1.93.06,2.88.16a3.59,3.59,0,0,1,1.52.41,6.26,6.26,0,0,0,3.56.87,18.5,18.5,0,0,1,5.7.86,16.55,16.55,0,0,0,4.42.57,5.66,5.66,0,0,1,3.26,1,2.56,2.56,0,0,0,1.24.37c.69.07,1.4.06,2.09.07a8.77,8.77,0,0,1,4.36.93,1,1,0,0,0,.24.1c1.12.25,2.25.41,3.34.77a15.08,15.08,0,0,0,3,1,19.63,19.63,0,0,1,4.35,1.13,5.25,5.25,0,0,0,1.26.39,2.22,2.22,0,0,1,2.05,2,1.23,1.23,0,0,0,.95,1,26.71,26.71,0,0,1,3.23,1.21,3.31,3.31,0,0,1,1.23.53,4.15,4.15,0,0,0,3.25.86,7,7,0,0,0,.79,0c2.84-.51,5.32.68,7.7,2.34.52.36,1.07.68,1.61,1,.11.29.21.57.31.86a2,2,0,0,0,1.06,1.29,4.23,4.23,0,0,1,1.18.64,1.05,1.05,0,0,1,.24.8,1.24,1.24,0,0,1-.52.62.71.71,0,0,1-.51.11c-1.83-.17-3.66-.34-5.48-.57a2,2,0,0,1-1.2-.55,7.87,7.87,0,0,0-3.75-2.07c-.34-.09-.66-.28-1-.37s-.33-.73-.66-.87a3.08,3.08,0,0,0-1-.23A6.93,6.93,0,0,1,537,58a9.07,9.07,0,0,0-1.78-.51c-1.2-.27-2.43-.42-3.6-.79A36.19,36.19,0,0,1,527.45,55a6.43,6.43,0,0,0-2-.63,13.94,13.94,0,0,1-4.37-1,6.68,6.68,0,0,0-2.32-.37c-3-.2-5.94-.34-8.91-.55-1.65-.12-3.31-.29-4.95-.52a18.39,18.39,0,0,0-5,.17,3,3,0,0,0-2.49,3c-.09,2.39-.1,4.77-.15,7.16-.07,3.21-.17,6.42-.23,9.63,0,1.65-.05,3.3,0,5s.19,3.1.29,4.65a5.65,5.65,0,0,0,.12.92,1.39,1.39,0,0,0,.87,1.07,25.87,25.87,0,0,0,6,1,11.44,11.44,0,0,1,3.61.65,6.77,6.77,0,0,0,2.6.35c1.22,0,2.44,0,3.67,0a3.15,3.15,0,0,1,2.65,1,1.8,1.8,0,0,0,.94.48,4,4,0,0,1,2.79,2.54c.15.37.42.67.57,1a.66.66,0,0,1-.18.51c-.75.26-1.51.46-2.27.69a16.87,16.87,0,0,1-2.27.68,14.17,14.17,0,0,1-2.35.08c-3.24,0-6.47,0-9.71,0-2,0-4,.15-6,.24a.85.85,0,0,0-.75.73,15.57,15.57,0,0,0-.24,2.14c0,4.67.07,9.34.11,14a11.09,11.09,0,0,0,.69,4.54,4.94,4.94,0,0,1,.27,1.52,37.5,37.5,0,0,1,.17,5.9,2.6,2.6,0,0,1-1.44,2.38C496.64,124.39,496.15,124.61,495.56,124.9ZM489.83,56a18.11,18.11,0,0,0-1.1-5.2.79.79,0,0,0-.8-.61.94.94,0,0,0-.91.46,2.32,2.32,0,0,0-.16,2.33,8.07,8.07,0,0,1,.92,3.19A2.57,2.57,0,0,0,488,57c.25.54.49,1.11,1.07,1.25.31.07.65-.66.69-1.49C489.8,56.65,489.8,56.55,489.83,56Z"/><path d="M335.74,86.74,335,87.79a5.15,5.15,0,0,1-2.38,1.82,5.18,5.18,0,0,0-1.59.76A12.93,12.93,0,0,1,327,92.43a28.41,28.41,0,0,0-3.5,1.51,12.33,12.33,0,0,1-2.73,1.11,3.13,3.13,0,0,0-1.33.58c-.92.88-2.25.71-3.11,1.73-.22.27-.72.29-1.09.32A3.78,3.78,0,0,0,312.1,99c-1.4.73-2.72,1.73-4.31,1.86a3.58,3.58,0,0,0-1.6.73,20.61,20.61,0,0,1-4.72,2.51,6.19,6.19,0,0,0-1.82,1,5.93,5.93,0,0,1-2.62,1.32c-.91.18-1.4,1.12-2.1,1.69a1.22,1.22,0,0,0-.28.9c.24,2.75,0,5.54.42,8.28a7.2,7.2,0,0,1-.63,3.85,2.1,2.1,0,0,1-1.61,1.26.76.76,0,0,1-.56,0,4.84,4.84,0,0,1-1.4-1.13,7.38,7.38,0,0,1-1.39-3.92,32.41,32.41,0,0,0-.69-4.23.64.64,0,0,0-.92-.49c-.77.45-1.54.91-2.3,1.39-.34.21-.63.57-1,.67-1.71.5-3.14,1.67-4.72,2.48a12.13,12.13,0,0,1-1.34.59,3.44,3.44,0,0,0-1.22.83,10.84,10.84,0,0,1-2.54,2.16c-.35.16-.6.56-.93.78-.68.45-.9,1.49-1.72,1.73s-1.27,1-1.92,1.46a3.25,3.25,0,0,1-.52.28,1.24,1.24,0,0,1-1.49-.65,6.14,6.14,0,0,1-.5-2.87,5.22,5.22,0,0,1,1.57-3.42c.57-.58,1.19-1.1,1.8-1.63a16.43,16.43,0,0,0,1.83-1.59,8.87,8.87,0,0,1,3.64-2.63,6.35,6.35,0,0,0,1.75-1.14c.85-.71,1.52-1.71,2.61-2.05.32-.1.51-.63.81-.89.62-.52,1-1.36,1.8-1.61s1.06-1.33,1.93-1.38a19.46,19.46,0,0,0,2.85-2.75,2.23,2.23,0,0,0,.39-1.2,5.72,5.72,0,0,0-.11-1.65,38.48,38.48,0,0,1-.72-7.58,18.7,18.7,0,0,0-.39-4,8.26,8.26,0,0,1-.26-1.63c-.08-3.34-1-6.55-1.24-9.86-.64-2.09-.53-4.37-1.25-6.45a10,10,0,0,1-.35-2.28A33.79,33.79,0,0,0,283,62c-.5-1.78-1.27-3.48-1.3-5.42a1.46,1.46,0,0,0-.32-.89,5.25,5.25,0,0,1-1.11-2.3,20.23,20.23,0,0,0-1.83-4.1,3.6,3.6,0,0,0-1.88-2,7.62,7.62,0,0,1-2.38-1.73,4.22,4.22,0,0,0-2.53-1.51c-1.27-1-2.79-1.44-3.93-2.71a4.81,4.81,0,0,0-2.11-1.69c-.44-.91-1.29-1.3-1.88-2s-1.43-1.49-2.08-2.29a3.77,3.77,0,0,1-.78-2.76,13.47,13.47,0,0,1,.79-3.18,1,1,0,0,1,.89-.72c1.26,0,2.52,0,3.77,0a1.54,1.54,0,0,1,1.28.64c.18.24.43.55.67.58,1.17.14,1.88,1.1,2.62,1.93A3.4,3.4,0,0,0,272.63,33a1.66,1.66,0,0,1,.95.68,20.5,20.5,0,0,0,2.69,3c.82.91,1.63,1.83,2.48,2.69.21.21.42.54.67.58.73.15,1.12.81,1.67,1.23a.7.7,0,0,0,.27.11c1.1.29,2.38-.12,3.24,1.1,1,.43,2,.88,3,1.29a9,9,0,0,0,1.66.56,4.87,4.87,0,0,1,1.9.76,4.26,4.26,0,0,0,2.22.69,32.74,32.74,0,0,1,6,1.19,16.3,16.3,0,0,0,5.72.75,4.14,4.14,0,0,1,1.71.22,15.09,15.09,0,0,0,5.16.71,43.52,43.52,0,0,1,7.81.46c1.15.22,2.29.42,3.43.65.67.13,1.32.33,2,.42a5.58,5.58,0,0,1,2.23.66,3.62,3.62,0,0,0,1.37.48,6,6,0,0,1,2.72,1,5,5,0,0,0,2,.5,3.42,3.42,0,0,1,2.4,1c.24.29.7.33,1.05.51.61.33,1.23.63,1.81,1,1.07.73,2,1.79,3.26,2.11a21.77,21.77,0,0,1,2.21,2.1c.55.71.92,1.71,1.88,2,.23.06.43.41.58.68.75,1.27,1.55,2.52,2.2,3.86a12.88,12.88,0,0,1,.84,8.38c-.05.21-.13.41-.19.63a19.67,19.67,0,0,1-.76,2.81,12.61,12.61,0,0,1-1.5,2.43,14.19,14.19,0,0,1-2.3,2.47c-.62.53-1.1,1.22-2,1.19a1,1,0,0,0-.55.16c-.66.42-1.16,1.17-2,1.18a3.69,3.69,0,0,0-1.84.87,3.61,3.61,0,0,1-1.11.36C336.86,86.52,336.29,86.62,335.74,86.74ZM287.22,56.39a6.69,6.69,0,0,0,.48,4.37.49.49,0,0,0,.18.22.42.42,0,0,0,.27,0,.29.29,0,0,0,.22-.15,1.14,1.14,0,0,0,.15-.58,13.11,13.11,0,0,0-1.36-3.84,7.27,7.27,0,0,1-.29-3.25,3.63,3.63,0,0,0,0-1,1.39,1.39,0,0,0-1.05-1.37.57.57,0,0,0-.5.17,1.5,1.5,0,0,0-.35,1.21c.17,1.45,1,2.59,1.48,3.88C286.53,56.29,287,56.29,287.22,56.39Zm50.28,5-2-.53c-.84-1-2.12-1-3.1-1.7a4.48,4.48,0,0,0-2.19-.79A18.51,18.51,0,0,1,326,57.26c-1.75-.63-3.6-.81-5.32-1.6a2.23,2.23,0,0,0-.85-.18,33.73,33.73,0,0,1-6.29-1.12c-.76-.17-1.54-.2-2.3-.3-3.55-.46-7.14-.35-10.69-.94-.95-.16-1.91-.3-2.87-.37-1.16-.09-2.32-.12-3.48-.13-.63,0-1.07.49-1.2,1.2a7.84,7.84,0,0,0,.32,4.23,10.46,10.46,0,0,1,.63,3.86c.07,6.42.11,12.84.22,19.25,0,3-.09,6-.07,9s.17,6.2,0,9.3a3.75,3.75,0,0,0,.16,1.29,2.87,2.87,0,0,0,.67,1.05c.34.31.66,0,1-.17a24.53,24.53,0,0,0,4.61-2.73,5.09,5.09,0,0,1,1.59-.77c2-.56,3.94-1,5.91-1.61a2.88,2.88,0,0,0,1.29-.68,19.51,19.51,0,0,1,2.91-2.13,8.27,8.27,0,0,1,3.23-1.34,4.77,4.77,0,0,0,1.3-.68,15.17,15.17,0,0,1,5.08-2.32,4.35,4.35,0,0,0,1.32-.64c.52-.28,1-.6,1.54-.88.78-.43,1.6-.77,2.35-1.27a19.77,19.77,0,0,0,2.1-1.7,3.39,3.39,0,0,1,1.2-.88c1.14-.31,2-1.36,3.17-1.57a12.78,12.78,0,0,1,3-2,10.55,10.55,0,0,0,1.86-1.56c1.3-1.27,2.05-3.22,3.77-4,.47-.7.93-1.4,1.39-2.11a4.2,4.2,0,0,0,.33-4.07c-.65-1.56-1.22-3.3-3-3.8-.17-.05-.27-.33-.44-.43C339.27,63.7,338.51,62.37,337.5,61.39Z"/><path d="M30,99.23c-1.44-.79-2.55-1.8-4-2a22.11,22.11,0,0,0-4.07-2.38,9.24,9.24,0,0,0-4-1.52,10.63,10.63,0,0,1-5.16-1.89,14.27,14.27,0,0,0-4-1.56c-1.4-.38-2.83-.63-4.22-1A7.1,7.1,0,0,1,.32,85.92a3.32,3.32,0,0,1,.09-3A1.52,1.52,0,0,1,1,82.44a17.29,17.29,0,0,1,8.23-.6,53.64,53.64,0,0,0,6.32.61,3.1,3.1,0,0,1,1.54.24c1.33.87,2.8.67,4.24.69q4.95.08,9.92.12a3.53,3.53,0,0,0,3.59-2.6A35.68,35.68,0,0,0,36,76.28a17.31,17.31,0,0,1,.83-3.85,6.42,6.42,0,0,0,.38-2.32,74.94,74.94,0,0,1,.45-7.92,16.09,16.09,0,0,0-.06-2.77,10.16,10.16,0,0,1,.5-3.9,7.61,7.61,0,0,0,.36-2.33c.11-4,.15-7.93.25-11.89a11.12,11.12,0,0,0-.53-4.68,12.93,12.93,0,0,1-.47-2.29c.61-3.08,2.27-5,5.54-5.33a3.4,3.4,0,0,1,2.36,1.88A23.89,23.89,0,0,0,47,33.26a7,7,0,0,1,1.15,2c.27,1.58,1.38,2.85,1.48,4.49a8.93,8.93,0,0,0,.65,2.26c.76,2.24,1.14,4.6,2.23,6.73.4,2.88,1.15,5.68,1.52,8.57.71,5.5,1.23,11,2.12,16.51.35,2.21.39,4.47.56,6.59.23.33.4.54.53.77a4.84,4.84,0,0,0,3.9,2.36,48.64,48.64,0,0,1,5.42,1.1c.16,0,.25.4.34.63,0,0-.21.14-.3.23-.64.58-.58.66-.35,1.25.32.8,1.11,1.12,1.52,1.78a.81.81,0,0,1,.09.73c-.52.75-1.12,1.46-1.72,2.23-1.22.57-2.57.27-3.87.41a14.23,14.23,0,0,0-1.95.24,2.22,2.22,0,0,0-1.5,2.11,23.24,23.24,0,0,0,1.08,5.43,16.91,16.91,0,0,1,.83,4.27,32.12,32.12,0,0,0,2.39,9.56A25,25,0,0,1,64.56,118a13.71,13.71,0,0,0,1,3,31,31,0,0,1,2.07,6,22.63,22.63,0,0,0,1.82,5.2c1.28,2.61,2.19,5.36,3.2,8.07a15.34,15.34,0,0,0,1.83,3.94,10.34,10.34,0,0,1,1.21,2.88c1.11,3.24,1.89,6.63,3.92,9.49a1.37,1.37,0,0,1,.33.7c0,1.53.92,2.71,1.53,4s1.15,2.67,1.77,4a12.17,12.17,0,0,1,1,5.8,3,3,0,0,1-2.56,2.58c-.66,0-1.32,0-2,.07a3.62,3.62,0,0,1-3.47-1.46,2.92,2.92,0,0,0-1.16-1,5.31,5.31,0,0,1-3-3,7.52,7.52,0,0,0-1.15-1.61,35,35,0,0,1-5.4-9.17,12.65,12.65,0,0,0-2-3.37A5.5,5.5,0,0,1,62,150.93a3.54,3.54,0,0,0-1-2.1,7.35,7.35,0,0,1-1.74-3.06,27.94,27.94,0,0,0-1.66-3.56c-1-2.14-2-4.29-3-6.43-.68-1.42-1.34-2.86-2.09-4.24-.63-1.14-1.51-2.13-1.68-3.51a4.45,4.45,0,0,0-.69-1.4,40,40,0,0,1-3.26-6.26c-1.38-1.47-2-3.4-2.95-5.1a18.75,18.75,0,0,0-4.13-4.75.81.81,0,0,0-1,.33,9.46,9.46,0,0,0-.52,2.29c0,2.42-1.11,4.62-1.28,7-.88,2-2,3.7-4.11,4.53a1.72,1.72,0,0,1-.77.13,3.77,3.77,0,0,1-3.16-3.1c0-2.38,0-4.76,0-7.14a5.11,5.11,0,0,1,.37-1.94c1.25-2.86.93-6,1.57-9C31.18,102.24,30.55,100.81,30,99.23Zm13.4-7.17c-.84.74-1.73,1.2-2,2.16a32,32,0,0,0-.73,3.88,3.33,3.33,0,0,0,.66,2.62c1.13,1.27,1.7,3,3.21,4a1.77,1.77,0,0,1,.58,1,5.65,5.65,0,0,0,1,1.66,26,26,0,0,1,3.63,6.09c1,2.78,3.07,4.9,4.51,7.4a.49.49,0,0,0,.32.18,3.84,3.84,0,0,0,1.17,0c.17,0,.33-.36.4-.58a1.71,1.71,0,0,0,0-.78A42.49,42.49,0,0,1,55,113.47a5.16,5.16,0,0,0-.42-1.1,17.64,17.64,0,0,1-.64-2.26,4.52,4.52,0,0,0-.88-2.15,3.06,3.06,0,0,1-.49-1.46c-.13-1-.16-2.11-.24-3.16a3.5,3.5,0,0,0-.21-1.55c-1.26-1.88-1-4-1.24-6.11a18.1,18.1,0,0,0-.25-2,2.33,2.33,0,0,0-2.28-1.84C46.67,91.9,45,92,43.41,92.06ZM46.64,62a1,1,0,0,0-1.12.9,28.38,28.38,0,0,1-.58,3.48,24.47,24.47,0,0,0-.95,7,9.82,9.82,0,0,1-.68,3.46,10.48,10.48,0,0,0-.61,4.65,1.64,1.64,0,0,0,1.23,1.37c1.17.07,2.35.12,3.53.11A1.89,1.89,0,0,0,49,81a1.81,1.81,0,0,0,0-.4,30.8,30.8,0,0,1-.68-6.64A6.75,6.75,0,0,0,48,71.6a13.86,13.86,0,0,1-.59-3.47c-.2-1-.21-2.08-.34-3.12S46.79,63,46.64,62Z"/><path d="M739.69,91.94l-.51-2.41c-.81.41-.57,1.24-.94,1.78s-.53,1-.83,1.54-.82,1.15-1.12,1.78a6.85,6.85,0,0,0-.46,1.68c-.07.46,0,.94-.07,1.39a.62.62,0,0,1-.47.4c-.16,0-.49-.18-.51-.31-.16-1.51-.28-3-.4-4.55-.23-2.68-.44-5.37-.67-8a5.52,5.52,0,0,0-.15-.68,1.19,1.19,0,0,0-1.37-.77,18.69,18.69,0,0,0-3.4,2.37c-.42.65-1.09.81-1.67,1.18-1.37.86-3,1.36-4.19,2.43a4.46,4.46,0,0,1-2.19,1.09,5.16,5.16,0,0,0-2.52,1.12c-1.65.28-2.92,1.39-4.45,2a15.72,15.72,0,0,1-3,1A5.62,5.62,0,0,0,707,97.15a1,1,0,0,0-.08,1.27,2.78,2.78,0,0,1,.53,1.65c.06,1.05.09,2.1.21,3.15a4.77,4.77,0,0,0,.46,1.67,11.16,11.16,0,0,1,1.06,3.69c.62,3.82,1.23,7.63,1.64,11.48a6.65,6.65,0,0,1-1.17,4.3,3,3,0,0,1-3.73,1c-.84-.4-1.71-.79-2.5-1.24a3.8,3.8,0,0,1-2-2.35c-.43-1.94-1.26-3.78-1.27-5.82a6.08,6.08,0,0,0-.35-2.07,14,14,0,0,1-.64-4.85c0-1,0-2.11,0-3.16a11,11,0,0,0-.87-4.09c-.63-1.64-1.56-3.12-2.23-4.73-.75-1.81-2.42-2.79-4.08-3.64a21.77,21.77,0,0,0-3.5-1.59A8.64,8.64,0,0,1,685,89.64c-1.4-1.4-2.91-2.69-4.26-4.14a4.37,4.37,0,0,1-1-1.4,15.5,15.5,0,0,0-2.15-4,4.83,4.83,0,0,1-.81-2.28c-.09-.82-.24-1.63-.33-2.44A2.56,2.56,0,0,1,678,72.51c2.7-1.32,2.72-1.28,5.64-.27a11.5,11.5,0,0,1,2.78,1.45,29,29,0,0,1,5.72,5.06,4,4,0,0,1,.62.82c1.31,2.82,3.75,4.77,5.55,7.21.18.24.6.32.92.45a.79.79,0,0,0,.84-.45,7.15,7.15,0,0,0,.24-1.37c0-7.38.06-14.77.05-22.15,0-7-.09-14.07-.15-21.1a8.34,8.34,0,0,0-.43-3.46,1.84,1.84,0,0,1-.13-1,17.45,17.45,0,0,0,0-3.15,15.15,15.15,0,0,1,.4-2.41,2.82,2.82,0,0,1,3-2,16.09,16.09,0,0,1,2.07.4,3.12,3.12,0,0,1,2.46,2.63,9.32,9.32,0,0,1,.1,1,22.23,22.23,0,0,1,0,3.16c-.31,2.59.76,5.11.26,7.7a30.81,30.81,0,0,0-.17,7.37,131.69,131.69,0,0,1-.11,14c-.18,3.39-.11,6.8-.15,10.2a5,5,0,0,1,0,1.74c-.59,1.42-.23,2.76,0,4.15A3.1,3.1,0,0,1,707,85c-.48.71-.14,1.33.28,1.92a1.31,1.31,0,0,0,1.19.63,16,16,0,0,0,4.46-.88c1.6-.69,3.31-1.14,4.95-1.75,1.08-.41,2-1.14,3-1.65a27.63,27.63,0,0,0,3.5-2.33c1.16-.79,2-2,3.23-2.65a41.84,41.84,0,0,0,6-7.29,7.94,7.94,0,0,1,1.68-2.22,1.53,1.53,0,0,0,.51-.88A13.66,13.66,0,0,1,737.71,63a8.88,8.88,0,0,0,1-4.36c0-3.75,0-7.5,0-11.26a23.24,23.24,0,0,1,1-8,2.59,2.59,0,0,0,.16-.68c.25-4.2,1.33-8.31,1.29-12.56a20.61,20.61,0,0,1,.9-6.59,9,9,0,0,0,.21-2.44,42.26,42.26,0,0,1,.71-6.64c.26-1.5.46-3,.63-4.52a2.77,2.77,0,0,1,1.56-2.21,4.78,4.78,0,0,1,4.05-.44,2.2,2.2,0,0,1,1.45,1.4,28.25,28.25,0,0,1,1.39,8.64c0,3.88.06,7.74.29,11.61.1,1.62-.15,3.27-.2,4.91-.07,2.34-.1,4.68-.16,7a3.39,3.39,0,0,1-.8,2.6,2.28,2.28,0,0,0-.39,1.31c-.37,2.91-.69,5.82-1,8.73a13,13,0,0,1-.36,2.07c-.51,1.69-.85,3.4-1.2,5.12A23.6,23.6,0,0,1,746.36,62a96,96,0,0,0-3.79,10.19,7.93,7.93,0,0,0-.34,2.07,15.25,15.25,0,0,1-.92,4.81,6.71,6.71,0,0,0-.35,2.07c-.14,1.63-.23,3.27-.33,4.91a8.61,8.61,0,0,1-.51,2.73A14.76,14.76,0,0,0,739.69,91.94Z"/><path d="M862.88,85.62c.22.49.48,1,.67,1.52a1.4,1.4,0,0,1-.59,1.77,3.37,3.37,0,0,1-.83.56A10.4,10.4,0,0,0,858.75,91a2.27,2.27,0,0,1-1.3.26c-1.58,0-3.17,0-4.76.07a4,4,0,0,0-1.94.54,3.64,3.64,0,0,0-1.86,4.62,45.65,45.65,0,0,0,1.92,5.06.9.9,0,0,0,.17.3c1.63,1.89,2.62,4.21,4,6.26a37.5,37.5,0,0,0,3.29,3.86,2.38,2.38,0,0,0,.55.39c1.62,1,3.26,2,4.87,3a4.68,4.68,0,0,0,2.22.76c1.13.09,2.25.3,3.38.28a12.38,12.38,0,0,0,6.2-1.48c2.07-.91,4.13-1.82,5.6-3.65a3.33,3.33,0,0,1,.83-.58c3-2.12,5.34-4.84,7.89-7.39a8.5,8.5,0,0,0,1.39-1.91c1.41-2.57,2.8-5.15,4.11-7.77a20,20,0,0,0,1-2.89c.32-1,.64-1.93.93-2.9a6.64,6.64,0,0,0,.3-1.32,33.73,33.73,0,0,0-.08-8.46,12.63,12.63,0,0,0-1.52-4.46,30.52,30.52,0,0,0-1.82-2.85,62.76,62.76,0,0,0-6-7.37c-1.26-1.28-2.16-2.89-3.63-4a1.82,1.82,0,0,1-.42-.53c-1.83-2.85-3.86-5.62-5-8.83a17.64,17.64,0,0,1-1.27-5.59c0-.9,0-1.81-.08-2.71s-.49-1.4-1.51-1.41a10.38,10.38,0,0,0-4.36.4c-3.49.11-7,.84-10.46-.3a8.33,8.33,0,0,0-1.34-.23,2.12,2.12,0,0,1-1.4-.88,11.33,11.33,0,0,1-1.75-2.88,5.1,5.1,0,0,1,.92-5.4,5.8,5.8,0,0,1,1.33-1,8.48,8.48,0,0,1,4.26-.92,3.19,3.19,0,0,1,1.91.63c.82.6,1.67,1.14,2.52,1.7,1.24.05,2.48.15,3.72.14,2.27,0,4.54,0,6.8-.15a25.76,25.76,0,0,0,3.71-.46,36.15,36.15,0,0,1,6-.68l6.79-.2c3.05-.09,6.11.18,9.17.31a2.16,2.16,0,0,1,1,.19c1.65,1,3.48.88,5.28,1,.34,0,.68,0,1,.05a3.21,3.21,0,0,1,1.91.6,3,3,0,0,0,1.89.65,10,10,0,0,1,3.26.89c1.36.54,2.79.91,4.18,1.4a7.15,7.15,0,0,1,3.29,2.31.87.87,0,0,1-.34,1.14,8.7,8.7,0,0,1-1.3.37,14.67,14.67,0,0,0-2,.25,7.46,7.46,0,0,1-4.34,0,12.37,12.37,0,0,0-2.36-.28c-1.91-.11-3.85,0-5.73-.57a3.09,3.09,0,0,0-1,0,56.49,56.49,0,0,1-8.12-.4,16.35,16.35,0,0,0-6.08.35,18.26,18.26,0,0,1-4.69.58c-.8,0-1.59.06-2.38.11-1.26.07-1.44.42-1.95,1.56a3.89,3.89,0,0,0-.28,1.32c0,.9,0,1.81,0,2.71a7.29,7.29,0,0,0,1.6,5.06c1.22,1.61,2.1,3.45,3.54,4.93s2.53,3.16,3.91,4.67,2.77,3.26,4.24,4.83a9.14,9.14,0,0,1,2.07,3.08,3.16,3.16,0,0,0,.63,1.19c1.32,1.22,1.66,2.91,2.22,4.49A20.7,20.7,0,0,1,905,81.52c-.06.79,0,1.58,0,2.38,0,3.5,0,3.5-1.17,6.94a9.8,9.8,0,0,0-.63,1.92,7.27,7.27,0,0,1-1.37,3.77,4.45,4.45,0,0,0-.7,2.25,5.58,5.58,0,0,1-1,2.48c-.64.93-1.17,1.94-1.76,2.91s-1.35,2.08-1.93,3.18a13,13,0,0,1-2.52,2.71,23.12,23.12,0,0,1-2.2,2.55c-1,.76-1.78,1.73-2.69,2.58s-1.77,1.42-2.51,2.26a8.83,8.83,0,0,1-2.15,1.61c-.86.54-1.71,1.09-2.52,1.7a14.73,14.73,0,0,1-6.47,2.78,4.91,4.91,0,0,0-1.65.37,9.1,9.1,0,0,1-4.62.85c-.79,0-1.59-.06-2.38,0a9.21,9.21,0,0,1-5.76-1.65,30,30,0,0,1-4.9-3.62,3.91,3.91,0,0,0-1.32-1,2.06,2.06,0,0,1-1-.89c-1.79-2.74-3.82-5.31-5.71-8a23.2,23.2,0,0,1-4.11-8.44c-.94-1.86-1-3.92-1.41-5.92a12.38,12.38,0,0,1,1.31-7.55A7,7,0,0,1,847,84.36a4.19,4.19,0,0,1,2-.53l9.52,0a4.77,4.77,0,0,1,2.88.87A16.06,16.06,0,0,0,862.88,85.62Z"/><path d="M433.1,299.5c.43,0,1,.19,1.48,0a2.86,2.86,0,0,1,2.79.09,8.42,8.42,0,0,0,3.79.74c1.82,0,3.65,0,5.47,0,4.62,0,9.23.25,13.84.58,2.24.16,4.5.15,6.74.52a3.07,3.07,0,0,0,1.28,0,9.09,9.09,0,0,1,4.15.13,46.41,46.41,0,0,0,7.71.6c2.68,0,5.37,0,8,.05a3.2,3.2,0,0,0,2.4-.89,2.35,2.35,0,0,1,3.32-.13,5.08,5.08,0,0,0,3.37,1c1.5,0,3,.12,4.51,0a5.85,5.85,0,0,1,5,2.2,4,4,0,0,0,2.22,1.34c2,.55,3.94,1.22,5.9,1.88a.78.78,0,0,1,.4.55.73.73,0,0,1-.37.52c-.5.2-1,.32-1.55.48a11.19,11.19,0,0,0-2.47.82,7.09,7.09,0,0,1-3.08,1,3.14,3.14,0,0,0-1.83.58,4.29,4.29,0,0,1-3.05,1c-1.4,0-2.79,0-4.19.09-1.09,0-1.6.64-1.66,1.9,0,.78-.06,1.57,0,2.36.05,1.44.13,2.88.2,4.33a4.45,4.45,0,0,0,.09,1.17c.81,2.25.57,4.64.69,7,.1,2.1.28,4.19.41,6.29.4,6.69.59,13.39.72,20.09.06,2.88.35,5.76.62,8.63.24,2.62.42,5.24.4,7.87a11,11,0,0,0,.42,3.49,18.59,18.59,0,0,1,.69,5.81,23.19,23.19,0,0,0,.71,5.82,22.09,22.09,0,0,1,.58,4.25,3,3,0,0,1-1.06,2.71c-.35.29-.65.68-1,1a2.06,2.06,0,0,1-2.72-.09,7.43,7.43,0,0,1-1.54-2,12.16,12.16,0,0,1-1.36-4.78,10,10,0,0,0-.56-2.64,49.71,49.71,0,0,0-1.68-5.09c-.83-2-1.2-4.17-1.93-6.21a112.1,112.1,0,0,0-4.27-11.37c-.81-1.69-1.58-3.42-2.28-5.18s-1.76-3.28-2.2-5.21a7.5,7.5,0,0,0-.9-1.6,60.44,60.44,0,0,0-4.85-7.71c-1.76-2.46-3.42-5-5.09-7.6a10,10,0,0,0-3.62-3.72,4,4,0,0,1-1-.9c-1.13-1.19-2.31-2.29-3.49-3.42a39.43,39.43,0,0,1-3.08-3.34c-.15-.18-.28-.46-.47-.52-1.49-.53-2.19-2.46-3.65-3a3.9,3.9,0,0,0-1.88-1.4c-.57-.24-1-1-1.55-1.29s-1.36-.24-1.83-.68c-1.29-1.22-3.09-1.15-4.24-2.7-.25-.34-.77-.41-1.18-.54a2.16,2.16,0,0,1-1.4-.87,1.57,1.57,0,0,0-1.4-.78l-1.29-.07a3.49,3.49,0,0,1-2.72-1,1,1,0,0,0-.57-.34c-1.74-.15-3.25-1.25-4.9-1.75a11.48,11.48,0,0,0-2.56-.28,2.86,2.86,0,0,1-2.06-.93c-.32-.36-.68-.64-1-1a2,2,0,0,1-.63-1.32c0-1-.08-2.1,0-3.14a2.32,2.32,0,0,1,1-1.9C429.42,300.06,431.08,299,433.1,299.5ZM472,311v0H458.15c-.75,0-1.5,0-2.25.05a4.4,4.4,0,0,0-.94.21.37.37,0,0,0-.2.24,1.41,1.41,0,0,0,.06.73,5,5,0,0,0,2.91,2.27c.81.13,1.08,1.23,1.79,1.6a24.85,24.85,0,0,1,3.46,2.06c1.16.89,2.09,2.27,3.29,3a12.25,12.25,0,0,1,2.77,2.61c.53.62.89,1.44,1.66,1.7.41,1.11,1.49,1.39,2,2.51a6.52,6.52,0,0,0,1.68,2.32,10.9,10.9,0,0,1,2.18,2.83c.3.51.81.84,1.13,1.34s.45,1.21.79,1.68c2.26,3.11,4.25,6.48,6.31,9.77a21.51,21.51,0,0,1,2.1,3.91c.31.82.87,1.49,1.25,2.27a20.48,20.48,0,0,0,1.26,2.71,9.31,9.31,0,0,1,1.44,3,5.11,5.11,0,0,0,.64,1.33c.25.38.38.94.91.94.29,0,.54-.48.53-1.28,0-1.57-.09-3.14-.16-4.72a13,13,0,0,1-.15-1.95,30.54,30.54,0,0,0-.25-6.27c-.23-2.47-.29-5-.38-7.46-.05-1.58,0-3.16-.06-4.74a11,11,0,0,0-.24-2.72,24.93,24.93,0,0,1-.74-6.61c-.05-2,0-3.95-.13-5.91a40.89,40.89,0,0,0-.4-4.3,11.15,11.15,0,0,0-.69-2.19,1.34,1.34,0,0,0-1.27-1c-1.29,0-2.58,0-3.86,0Z"/><path d="M962.8,67.75a5.72,5.72,0,0,0,.86-.78c2.26-2.94,4.56-5.85,6.72-8.88a53.82,53.82,0,0,0,3.23-5.42c.88-1.6,1.75-3.23,2.57-4.87,1.65-3.29,3.47-6.46,5.09-9.77s3.11-6.38,4.74-9.53a23.76,23.76,0,0,0,1-2.38,41.15,41.15,0,0,1,3.11-6.52,41.66,41.66,0,0,0,3.08-7.06c.15-.4.19-.86.36-1.25.69-1.56,1.5-3.06,2.1-4.67S996.47,3.53,997,2A7.22,7.22,0,0,1,998,.2a.64.64,0,0,1,.67-.16A.87.87,0,0,1,999,.7a15.57,15.57,0,0,1-.27,3.51,15.28,15.28,0,0,0-.38,5.25,10.57,10.57,0,0,1-.48,4.35,29.43,29.43,0,0,0-1.41,6.87,3.3,3.3,0,0,1-.29,1.27c-1.73,2.77-2.21,6.22-3.58,9.19C990.8,35,989.18,39,987.47,42.93c-.85,2-1.76,3.87-2.72,5.77-2.61,5.19-5.45,10.2-8.08,15.37A47.76,47.76,0,0,1,974,68.36c-1,1.5-2,2.93-3.06,4.42a1.9,1.9,0,0,0,.13,2.39c.87,1,1.78,2,2.64,3.11a19.2,19.2,0,0,1,3.45,5.18A18.2,18.2,0,0,0,979,86.28a29.55,29.55,0,0,1,3,7.06c1,3.5,1.91,7,2.62,10.61a29.37,29.37,0,0,1,.72,4.77,6.42,6.42,0,0,0,.13,1.32c1,4.29,1,8.77,1.75,13.12.19,1.15.27,2.34.35,3.51.46,6.34.56,12.7.72,19,.11,4.13.1,8.27.23,12.41a74.35,74.35,0,0,1-.89,10.56c-.13,1.17-.35,2.32-.55,3.48a2.21,2.21,0,0,1-1.89,1.82,1.32,1.32,0,0,1-1.21-.83c-.28-1.59-.53-3.18-.82-4.76a8.43,8.43,0,0,0-.5-2.12c-1.7-3.47-2-7.25-1.74-11.13.14-2.37.05-4.72,0-7.08a87.52,87.52,0,0,1,.09-10.62,20.78,20.78,0,0,0-.26-5.72c-.38-2.31-.43-4.7-.63-7a8.38,8.38,0,0,0-.26-2.17c-.78-1.92-.76-4-1.2-6-.78-3.56-1.18-7.24-2.3-10.7a18.74,18.74,0,0,1-.41-2.16,4.15,4.15,0,0,0-.29-1.27c-1.22-2.12-1.56-4.65-2.27-7s-1.73-4.24-2.54-6.39a7.48,7.48,0,0,0-1.3-2.14c-1.24-1.44-2.55-2.8-3.84-4.18a2.6,2.6,0,0,0-.64-.44,1.81,1.81,0,0,0-2.1.33,4.77,4.77,0,0,0-1.39,3,46,46,0,0,0-.1,8,23,23,0,0,1,.17,3.09,75.08,75.08,0,0,0,.39,7.51,54.23,54.23,0,0,0,1.83,9.48,12.2,12.2,0,0,0,.83,2c.17.39.4.75.54,1.16.71,2.11-.28,4.67-2.11,5.41a3.35,3.35,0,0,1-2.56.13,9,9,0,0,1-4.66-4.17c-.67-1.24-1.27-2.53-1.88-3.82a8.47,8.47,0,0,1-.8-2,38.8,38.8,0,0,0-1.69-5.39A43.91,43.91,0,0,1,949.43,98a16.91,16.91,0,0,0-.3-1.73c-1.12-5.06-1.19-10.23-1.26-15.4a3.65,3.65,0,0,1,1-2.73,4,4,0,0,0,1-3.17c-.13-5.76-.22-11.52-.36-17.28-.13-5,0-10-.34-15.05-.1-1.47-.08-3-.05-4.43a4.09,4.09,0,0,1,.73-2.47,13.47,13.47,0,0,0,1.8-3.83,3.05,3.05,0,0,1,.67-1,4.61,4.61,0,0,1,6.22.06c.46.51.87,1.06,1.31,1.59a3.8,3.8,0,0,1,.79,2c.29,2,.65,4.07.83,6.12s.2,4.12.27,6.18a29.73,29.73,0,0,0,.09,3.54,69,69,0,0,1,.29,11.94c0,1.33-.09,2.66-.08,4a3.78,3.78,0,0,0,.39,1.19C962.52,67.57,962.66,67.63,962.8,67.75Z"/><path d="M1227.78,115c.11-.69.23-1.86.5-3,.44-1.85,1-3.68,1.49-5.5.32-1.09.72-2.14,1.08-3.22s.71-2.15,1.06-3.22a15,15,0,0,1,.47-1.43,36.29,36.29,0,0,0,2-5.66c.54-1.95,1.25-3.82,1.68-5.83a31,31,0,0,1,1.82-5.36,39.13,39.13,0,0,0,1.9-5.72,27.68,27.68,0,0,1,1.3-4,33.41,33.41,0,0,0,1.87-6.52c.26-1.39,1-2.49,1.2-4a21,21,0,0,1,1.29-3.93,12.48,12.48,0,0,0,.4-1.45c.17-.83-.27-1.64-.91-1.7s-1.47-.06-2.2-.14a.74.74,0,0,1-.47-.46,4,4,0,0,1,.7-4.19c.32-.34.58-.92.93-1,1.08-.29,1.7-1.45,2.67-2a13.89,13.89,0,0,1,3.76-1.77,15,15,0,0,0,4.21-1.58,7.6,7.6,0,0,1,2.9-1.35.76.76,0,0,0,.57-.31c.61-1.22,1.61-1.08,2.54-1.15a3,3,0,0,0,2.26-1.06c.59-.67,1.55-.76,2.13-1.58a.79.79,0,0,1,.55-.33c1.94-.07,3.51-1.77,5.44-1.86a1.8,1.8,0,0,0,.89-.35,7.89,7.89,0,0,1,3.63-1.22,2.71,2.71,0,0,0,1.49-.52,4.54,4.54,0,0,1,2.64-1.14,4.08,4.08,0,0,0,1.21-.39,10.94,10.94,0,0,1,5.26-1.15,7.15,7.15,0,0,0,3.05-.86c1.11-.46,2.11.09,2.63,1.41a9.56,9.56,0,0,1,.77,5.61,21.25,21.25,0,0,0-.14,6.17,60.15,60.15,0,0,1-.12,12c-.18,1.66-.24,3.35-.31,5a27,27,0,0,1-.59,5.75,7,7,0,0,0-.16,1.53q-.12,4.66-.2,9.31c0,3.5-.07,7-.12,10.48a22.58,22.58,0,0,0,.42,5,15.93,15.93,0,0,1,.4,2.67c.2,4.26,1,8.45,1.12,12.72.05,1.4-.06,2.89.9,4,.37,1.34.74,2.68,1.09,4,.57,2.19-.31,3.36-1.38,4.76a4.25,4.25,0,0,1-1.3,1.06.88.88,0,0,1-.89,0,3.39,3.39,0,0,0-1.71-.92,1.7,1.7,0,0,1-.92-.22c-1.9-1.5-4-1.27-6.13-1.35l-8.21-.3c-.42,0-.84,0-1.26,0-7.48.43-15,.19-22.43.12-2.73,0-5.47.15-8.21.25a1.32,1.32,0,0,0-.91.24c-1.29,1.52-3.28.85-4.62,2.25a2,2,0,0,1-1.2.43c-.94.11-1.89.11-2.83.21a4,4,0,0,1-3.6-2,6.56,6.56,0,0,1-1.44-4.56C1227.79,115.7,1227.78,115.57,1227.78,115Zm37.31-5.14c6.47.14,13.21-.47,19.94,0a4.27,4.27,0,0,0,.94-.08,1.12,1.12,0,0,0,.85-1c0-1.42.08-2.85,0-4.25-.43-4.63-.37-9.3-.83-13.93a4,4,0,0,1,0-.77c.16-2.71.06-5.42,0-8.13-.11-4.27,0-8.54.11-12.81a8.31,8.31,0,0,1,.17-2.31c.8-2.48.7-5.07.73-7.65q.08-5.43.07-10.87c0-2.07-.07-4.14-.12-6.2,0-.69-.45-1.29-1-1.31-1.16,0-2.32,0-3.47,0a6.37,6.37,0,0,0-3.68.85,9.82,9.82,0,0,1-2.12.72,7,7,0,0,0-1.79.7,3.92,3.92,0,0,1-2.41.78,5.92,5.92,0,0,0-3.32,1,5,5,0,0,1-2.15.51,34.65,34.65,0,0,0-4.37.73,62,62,0,0,0-7.26,2.56,1.86,1.86,0,0,0-1.18,1.66,9.57,9.57,0,0,1-.83,3.69c-.1,1.58-1,2.88-1.1,4.42a10.56,10.56,0,0,1-1.33,3.89,3.73,3.73,0,0,0-.62,1.74,10.51,10.51,0,0,1-1.28,4.32,11.34,11.34,0,0,0-1,3.22,30.26,30.26,0,0,1-1.71,6.22c-1.1,1.5-1.34,3.49-2,5.24-.48,1.28-.62,2.76-1.35,3.9-.82,1.3-.74,2.94-1.19,4.38-.11.36-.32.67-.45,1a31.93,31.93,0,0,0-1.1,3.21,60.88,60.88,0,0,1-2.47,7.93c-.73,1.86-.81,4-1.81,5.73-.16.27-.06.76-.06,1.15a1.09,1.09,0,0,0,1,1.21,20.6,20.6,0,0,0,5.27-.87,5.86,5.86,0,0,1,2.47-.57c1.58,0,3.16-.07,4.73-.08C1254.51,109.83,1259.67,109.84,1265.09,109.84Z"/><path d="M1108.23,122.12c-.61.57-1.17,1.13-1.77,1.64a1.94,1.94,0,0,1-.88.49,7.15,7.15,0,0,1-3.7-.17,2.31,2.31,0,0,1-1.69-2.3,30.65,30.65,0,0,1,.68-6.4,8,8,0,0,0,.28-1.67c.16-3.86.31-7.72.4-11.58,0-1.59-.07-3.18-.12-4.77q-.14-4.26-.28-8.52a7.39,7.39,0,0,0-.2-2.37,8.65,8.65,0,0,1-.17-4,34.58,34.58,0,0,0,0-5.09c-.14-2-.09-4.08-.07-6.12a56.78,56.78,0,0,0-.42-8.83,52.68,52.68,0,0,0-1.09-7,9.08,9.08,0,0,1-.18-2,21.52,21.52,0,0,0-.66-5.4,7.44,7.44,0,0,1-.17-2.37c.08-3.29.15-6.59.32-9.88a20.14,20.14,0,0,1,.6-3.69,3.57,3.57,0,0,1,2.66-2.82,2.83,2.83,0,0,1,2,.06,9.14,9.14,0,0,1,1.21.61,2.55,2.55,0,0,1,1.3,1.91c.14,1.58.27,3.17.29,4.75a33,33,0,0,0,.27,6.12,14.49,14.49,0,0,1,.07,2.72,16.67,16.67,0,0,0,.23,3.73,11,11,0,0,1,.13,2.38c0,2,0,4.09,0,6.13a18.12,18.12,0,0,0,.38,3.37c.37,1.66.76,3.32,1.13,5,.32,1.44.56,2.89.88,4.32.39,1.76,1.13,3.45,1.65,5.18a13.77,13.77,0,0,0,2.5,4.41,1.27,1.27,0,0,0,2.23-.17,9.27,9.27,0,0,0,1.3-2.75,9.82,9.82,0,0,1,.86-2.21,18.48,18.48,0,0,0,1.23-3.51A30.8,30.8,0,0,1,1121,67a4.23,4.23,0,0,0,.44-1.28c.06-2,.88-3.74,1.24-5.63.24-1.23,1-2.27,1.09-3.57a10.25,10.25,0,0,1,.77-3.29,9.08,9.08,0,0,0,.36-2.35,4.53,4.53,0,0,1,.62-2.27,1.25,1.25,0,0,0,.26-.62c.09-2.52,1.24-4.84,1.39-7.34a2.93,2.93,0,0,1,.09-.67,25.69,25.69,0,0,0,.85-7.09,3.21,3.21,0,0,1,1.93-3,4.2,4.2,0,0,1,3.93,0,2.7,2.7,0,0,1,1.5,2.16,13,13,0,0,1,.1,3.05c-.24,2.25-.1,4.55-1,6.72a5.15,5.15,0,0,0-.14,1.68,47.3,47.3,0,0,1-1,8.8c-.46,2-.7,4-1,6.05-.13.9-.17,1.81-.21,2.72-.08,2-.17,4.09-.2,6.13a11.22,11.22,0,0,1-.56,3.68,8,8,0,0,0-.32,2.34c-.09,2.28-.1,4.55-.2,6.82a13.64,13.64,0,0,1-.39,2.69,16,16,0,0,0-.46,3.71c-.09,4-.21,8-.27,11.93,0,1.7.08,3.41.11,5.11,0,3.52,0,7,.35,10.56.06.56,0,1.14.14,1.69a40.58,40.58,0,0,1,.67,7.12,6.5,6.5,0,0,0,.22,2c1,2.51.84,5.13,1,7.73.12,1.7.14,3.42.41,5.09a5.66,5.66,0,0,1-1.11,4.14c-.14.22-.72.15-.91-.11-.74-1-1.06-2.27-2.17-3-.15-.1-.16-.41-.23-.62-.35-1.07-.66-2.17-1.08-3.22a21.91,21.91,0,0,1-1.36-9,8.33,8.33,0,0,0-.41-4,37.89,37.89,0,0,0-1.26-7,10.66,10.66,0,0,1,0-1.7c-.49-5.67-.36-11.35-.49-17-.11-4.43.08-8.86,0-13.29a4.7,4.7,0,0,0-.35-1.28.42.42,0,0,0-.31,0,1.12,1.12,0,0,0-.36.49,5.59,5.59,0,0,1-2.68,3.75,8.15,8.15,0,0,1-5.42,1.68,5,5,0,0,0-1,0,5.62,5.62,0,0,1-3.83-1.15,6.91,6.91,0,0,0-1.15-.72c-.15-.07-.4,0-.58.1s-.12.19-.15.3a.74.74,0,0,0,0,.33,40.64,40.64,0,0,1,.7,8.8c0,7.84,0,15.68-.09,23.53C1108.47,119.84,1108.32,121,1108.23,122.12Z"/><path d="M336.08,331.55c-.1-.46-.2-.86-.28-1.27A3,3,0,0,1,337,327c2.6-2,5.32-3.9,7.79-6.1a11.55,11.55,0,0,0,3.68-2.78,10.19,10.19,0,0,1,1.3-.82,5.1,5.1,0,0,0,1-.66c.75-.71,1.38-1.56,2.19-2.19s1.84-1,2.67-1.56a31.52,31.52,0,0,1,3.37-2.21c1.18-.62,2.26-1.4,3.5-2a21.07,21.07,0,0,0,3.19-1.89,50.57,50.57,0,0,1,7.2-3.63c1.3-.62,2.7-1,4.06-1.54a3.71,3.71,0,0,0,1.14-.44,3.56,3.56,0,0,1,2.32-.74c1.86-.12,3.73-.23,5.59-.37a4,4,0,0,1,1.81.33,2.27,2.27,0,0,1,1.11,3.11,1.85,1.85,0,0,1-1.69,1.17c-.93,0-1.86,0-2.79,0a3.08,3.08,0,0,0-1.76.5,21.19,21.19,0,0,1-6.25,2.61,2.1,2.1,0,0,0-.86.34c-1.22,1-3,.89-4.11,2.08a2.06,2.06,0,0,1-1.06.6,9.1,9.1,0,0,0-3,1.5c-1.67,1-3.36,2-5,3.06-1.14.71-2.26,1.46-3.38,2.21a48.9,48.9,0,0,0-4.51,3.24c-.84.72-1.86,1.25-2.72,2-1.35,1.13-2.67,2.29-4,3.44a2.78,2.78,0,0,0-.35.52c-.23.33,0,1,.33,1,.82.07,1.64.16,2.47.15,1.76,0,3.52-.09,5.29-.13l9.32-.22c3.84-.09,7.68-.3,11.51-.22,2.9.06,5.81.05,8.71.22s5.59.21,8.39.28a6.57,6.57,0,0,1,2.74.5,6.88,6.88,0,0,0,3,.59c2.53,0,4.91.8,7.35,1.25a4.28,4.28,0,0,1,1.44.58,41.85,41.85,0,0,0,5.21,2.66,4.35,4.35,0,0,1,2.34,3.12,1.4,1.4,0,0,1-.1.9,6.25,6.25,0,0,1-1,1.58,37.06,37.06,0,0,0-3.07,3.07,1.41,1.41,0,0,1-.83.36,4.31,4.31,0,0,0-2,.84,6.49,6.49,0,0,1-2.39,1.39,15.19,15.19,0,0,0-2.4,1.35c-1.14.53-2.41.64-3.5,1.25s-1.89,1.28-2.91,1.77c-1.95.95-3.95,1.81-5.94,2.66a8.8,8.8,0,0,0-2.23,1.07,3.51,3.51,0,0,1-1.46.42,1.92,1.92,0,0,0-1.31.75,2.34,2.34,0,0,1-1.74,1.17,4.57,4.57,0,0,0-2,.85,15.08,15.08,0,0,1-4.73,2.31,2.57,2.57,0,0,0-.83.41,62.14,62.14,0,0,1-9.53,5.16,22.4,22.4,0,0,0-2.41,1.39c-1,.57-1.93,1.2-3,1.7a23.06,23.06,0,0,0-3.09,2.06c-.33.23-.56.63-.9.85-1.11.74-2.23,1.48-3.39,2.15a16.46,16.46,0,0,0-2.55,1.75c-1.11.93-2.33,1.73-3.49,2.59a3.81,3.81,0,0,0-.5.37c-2.83,2.87-6.05,5.34-8.39,8.69a10.49,10.49,0,0,1-1.74,1.61,11.86,11.86,0,0,0-.2,1.39c0,1.23-.82,2.09-1.4,3.06,0,.08-.17.12-.25.18a2.65,2.65,0,0,1-3.42-1.13,7.84,7.84,0,0,1,1.58-7.84,43.2,43.2,0,0,1,3.79-4.1,26.82,26.82,0,0,1,3.28-3.29,29.18,29.18,0,0,0,3.24-2.87c1.55-.43,2.27-2.15,3.88-2.47a1,1,0,0,0,.54-.3c1.7-2,4-3.25,6-4.83a54,54,0,0,1,5.2-3.33c2.83-1.71,5.83-3.09,8.64-4.85,2.1-1.31,4.41-2.26,6.63-3.37a3.49,3.49,0,0,0,2.11-1.21,3.18,3.18,0,0,1,1.62-.87,8.5,8.5,0,0,0,3.07-1.44,37,37,0,0,1,5-2.53,13.1,13.1,0,0,0,2.43-1.35,11.05,11.05,0,0,1,2.69-1.5,14.88,14.88,0,0,0,2.15-1.23,8.58,8.58,0,0,1,1.12-.48,5.27,5.27,0,0,0,1.16-.39c2.64-1.82,5.53-3.22,8.21-5a.62.62,0,0,0,0-1,5.7,5.7,0,0,0-2.24-1,10.75,10.75,0,0,1-3-.86,4.18,4.18,0,0,0-1.51-.29,39.06,39.06,0,0,1-4.31-.55,24.19,24.19,0,0,0-4.34-.32q-12.78-.06-25.54,0c-2.08,0-4.15.15-6.23.22-1.35.05-2.7.08-4,.14-1,0-2.07.15-3.11.2-1.65.08-3.31.17-5,.18-1.34,0-2.69-.09-4-.18A9.42,9.42,0,0,1,336.08,331.55Z"/><path d="M245.49,58.28a4.2,4.2,0,0,1-2.52.56c-.63,0-1.25-.15-1.88-.22s-1.27-.08-1.89-.2-.89-.85-1.35-1.26a13.89,13.89,0,0,0-3.16-2.07c-1.7-.85-3.42-1.65-5.12-2.48-1.26-1.26-3.2-1.57-4.29-3.07a1.16,1.16,0,0,0-.79-.43,2.09,2.09,0,0,1-1.85-1,23.88,23.88,0,0,1-4-2.49c-.53-.46-1.38-.37-2-.8-1.4-.93-3-1.51-4.35-2.57a7.47,7.47,0,0,0-1.71-.81,1.57,1.57,0,0,0-1.94,1.48,5.16,5.16,0,0,0,.16,1.25,22.87,22.87,0,0,1,.82,6.89q0,5.39,0,10.77c0,4.43-.07,8.87-.1,13.3a12.61,12.61,0,0,1-.42,3.44,14.17,14.17,0,0,0-.44,3.44q-.19,6.16-.28,12.35a62.92,62.92,0,0,1-.58,9.79,11.85,11.85,0,0,0-.11,1.89,18.42,18.42,0,0,1-.22,3.78,3.59,3.59,0,0,0,.16,1.24,1.1,1.1,0,0,0,.88.79,4.21,4.21,0,0,0,2.72-.64c.81-.66,2.06-.56,2.71-1.53a.81.81,0,0,1,.57-.23,9.8,9.8,0,0,0,3.81-1.4c1.13-.52,2.13-1.33,3.47-1.37a1.91,1.91,0,0,0,1.08-.59,12.34,12.34,0,0,1,4.94-2.73,3.74,3.74,0,0,0,1.91-1.06c1.07-1.3,2.62-1.72,4-2.39a8.06,8.06,0,0,0,1.92-1,10.23,10.23,0,0,1,2.07-1.41,10.31,10.31,0,0,0,1.94-1,3.1,3.1,0,0,1,2.11-.56,2.82,2.82,0,0,1,1.73.65,3.38,3.38,0,0,1,1.43,3,16.48,16.48,0,0,1-.25,1.87,1.91,1.91,0,0,1-.82,1.31,29,29,0,0,1-3.64,2.46,39.63,39.63,0,0,0-3.49,2.08,20,20,0,0,1-4.59,2,4.38,4.38,0,0,0-1.42.65,32.24,32.24,0,0,1-8.67,4.41,10.9,10.9,0,0,0-3.43,1.57,1.64,1.64,0,0,1-.87.36c-1.22,0-2.16.8-3.23,1.19-1.28.47-2.35,1.39-3.78,1.57-.56.07-1.05.64-1.61.91a8.25,8.25,0,0,0-1.75.66,4.29,4.29,0,0,1-2.36.76,3.18,3.18,0,0,0-1.69.74,13.5,13.5,0,0,1-2.35,1.56,12.43,12.43,0,0,1-8.31,1.08,1.16,1.16,0,0,1-1-1.37c0-.52,0-1,0-1.53A4.69,4.69,0,0,1,193.5,120a7.38,7.38,0,0,1,2.16-1.22,22.19,22.19,0,0,0,5.93-3.47c1.86-1.7,2.54-1.34,1.22-4.47a3.57,3.57,0,0,1-.32-1.21c-.09-3.59-.8-7.13-.94-10.71-.07-1.69-.1-3.38-.12-5.07,0-3.69.34-7.37.66-11,.43-5,.54-9.91.53-14.87,0-3.16,0-6.32-.34-9.48a32.74,32.74,0,0,1,0-4.43,51.91,51.91,0,0,0-.67-10.41,55,55,0,0,1-.37-10.42,5.58,5.58,0,0,1,1.23-2.87,1.39,1.39,0,0,1,.83-.4,10.11,10.11,0,0,1,3.47,0,2.87,2.87,0,0,1,1.17.44,32,32,0,0,0,4,2.48,4.77,4.77,0,0,1,1.18,1c.29.32.58.67,1,.68a4.75,4.75,0,0,1,2.27,1c.27.17.56.31.81.5.76.54,1.54,1.07,2.26,1.67,1.21,1,2.76,1.52,3.83,2.71a16.38,16.38,0,0,1,3.13,1.43,13.69,13.69,0,0,1,1.6,1c1.58,1,3.19,2,4.76,3.08a4.31,4.31,0,0,0,1.72.74,4.15,4.15,0,0,1,1.72.78,12.14,12.14,0,0,0,2.06,1.41,7.81,7.81,0,0,1,1.92,1c.71.58,1.8.48,2.47,1.3.2.26.78.31,1.18.31,1.38,0,2.09.94,2.7,1.9a2.86,2.86,0,0,1,.11,2.75C246.35,56.92,245.87,57.62,245.49,58.28Z"/><path d="M693.17,389.43c-.91.72-1.59,1.32-2.33,1.83a5.53,5.53,0,0,1-1.51.77,1.8,1.8,0,0,1-1.64-.17,9.1,9.1,0,0,1-2.35-2.44,1.87,1.87,0,0,1-.37-.93c0-1.74-.93-3.28-1-5s-.25-3.39-.3-5.09c-.07-2.16-.11-4.32-.07-6.48.08-4.08-.29-8.16-.16-12.25a6.18,6.18,0,0,0-.19-1.34,43,43,0,0,1-.9-9.13,53.28,53.28,0,0,0-.39-7.46c-.3-2.13-.4-4.28-.79-6.4A18.33,18.33,0,0,1,681,332a11,11,0,0,0-.5-3.69,17.48,17.48,0,0,1-.75-4.36,12,12,0,0,0,0-1.35,39.91,39.91,0,0,1-1-3.93A19.07,19.07,0,0,0,678,315a23.55,23.55,0,0,1-.57-2.65c0-.22,0-.52-.12-.66-1-1.18-.94-2.77-1.57-4.07a9.34,9.34,0,0,1-.88-2.54,2.81,2.81,0,0,0-.53-1.21c-1.25-1.51-1.84-3.37-2.76-5.06a2.69,2.69,0,0,1,1.75-3.52,8.17,8.17,0,0,1,4.05,0,2.42,2.42,0,0,1,.89.45c.71.57,1.4,1.16,2.07,1.78a2,2,0,0,1,.55.84,22.23,22.23,0,0,0,2.08,4.24,4.9,4.9,0,0,1,.64,1.56c.17,1.37,1.13,2.45,1.29,3.85a24.55,24.55,0,0,0,.93,3.61l.69,2.62a7.09,7.09,0,0,1,.4,1.65c.09,3.43,1.51,6.64,1.59,10.07a2.51,2.51,0,0,0,.08.67,16.31,16.31,0,0,1,.9,5.31,56,56,0,0,0,.5,5.75c.11,1.81.08,3.63.11,5.45a7.42,7.42,0,0,0,.09,1.34,2.32,2.32,0,0,0,.41.92.89.89,0,0,0,.61.22c.2,0,.53-.12.56-.24a16.62,16.62,0,0,1,1.93-3.92c.64-1.18,1-2.56,2-3.52.54-2.14,2.27-3.62,3.17-5.57.43-.93,1.41-1.43,2-2.27a9.8,9.8,0,0,1,1.45-2.27c1.76-1.44,2.91-3.46,4.83-4.74a14.83,14.83,0,0,0,1.83-1.95c.65-.62,1.37-1.17,2.05-1.77.34-.3.59-.73,1-.94,2.37-1.35,4.33-3.26,6.6-4.76a81.29,81.29,0,0,0,6.7-5.17,4.16,4.16,0,0,1,1.71-1,1.16,1.16,0,0,0,.62-.25c.73-.95,2-1,2.87-1.76a20.55,20.55,0,0,1,2.91-1.71,6.26,6.26,0,0,0,.89-.47c2.11-1.77,4.72-2.66,7.07-4a8.57,8.57,0,0,1,4-.81,1.58,1.58,0,0,1,.93.37,1.39,1.39,0,0,1,.57.78,3.56,3.56,0,0,1-1.41,3.61,20,20,0,0,0-4,3.17,6.45,6.45,0,0,1-2.31,1.41,29.64,29.64,0,0,0-6.58,4.14,11.86,11.86,0,0,1-2.82,1.88A8.76,8.76,0,0,0,728,315l-1.62,1.22a8.56,8.56,0,0,0-1.33,1c-1.49,1.69-3.53,2.81-4.87,4.66-.25.35-.72.54-1.05.85-.6.55-1.52.48-2,1.16s-1.07,1.17-1.58,1.77a39,39,0,0,1-2.9,2.85,20.25,20.25,0,0,0-1.85,2,9.22,9.22,0,0,1-1.71,1.65,7.94,7.94,0,0,0-2,2.23c-.6,1-1.08,2-1.76,2.9a33,33,0,0,0-4.68,8.59c-.39,1-1.06,1.92-1.4,3a17,17,0,0,0-1,3.24,2.61,2.61,0,0,1-.33,1,7.05,7.05,0,0,0-.85,2.92,3.47,3.47,0,0,1-.28,1.32c-.92,1.89-1,3.95-1.27,6a4.82,4.82,0,0,1-.2,1.34c-.77,1.58-.74,3.3-1,5a13.38,13.38,0,0,1-.33,2,24.07,24.07,0,0,0-.7,6.76q0,4.25,0,8.51C693.34,387.7,693.24,388.49,693.17,389.43Z"/><path d="M601.56,54a6.59,6.59,0,0,1-.25,1.28c-.17.4-.53.72-.71,1.11-.45,1-.75,2.09-1.28,3s-1.45,1.63-2,2.63a17.46,17.46,0,0,1-3.63,4.63,41.17,41.17,0,0,0-3.27,3.7A30,30,0,0,0,588,74.31c-.4.65-.78,1.33-1.24,1.94a25.94,25.94,0,0,0-3.3,6,37.84,37.84,0,0,1-2.09,4.86,10.09,10.09,0,0,0-1,2.46c-.62,2.35-1.53,4.6-2.28,6.9a4.92,4.92,0,0,0-.31.94c-.28,2.19-1.37,4.2-1.48,6.43a1.53,1.53,0,0,1-.13.64c-1.3,2.3-1.14,4.93-1.62,7.4-.37,1.87.62,3.42,2.14,4.55a2.36,2.36,0,0,0,.92.33,16.29,16.29,0,0,0,3.63.15,16.75,16.75,0,0,0,6.66-1.71c1.68-.82,3.53-1.24,5.24-2a29.1,29.1,0,0,0,3.81-2,12.52,12.52,0,0,1,1.49-.67,7.16,7.16,0,0,0,1.45-.77c.51-.41.84-1.06,1.37-1.42a11.51,11.51,0,0,1,2.07-1c1.33-.56,2.36-1.58,3.63-2.24s2.32-1.28,3.47-1.94a15.39,15.39,0,0,0,1.39-.87,17.5,17.5,0,0,1,3.31-2.17A10.92,10.92,0,0,0,617,98.83a3.24,3.24,0,0,1,1.11-.65A5,5,0,0,0,621,96.83a21.66,21.66,0,0,0,5.3-3.29,5.07,5.07,0,0,1,1.45-.73,16.14,16.14,0,0,0,5.07-2.34,9.75,9.75,0,0,1,1.75-.93c2.29-1.1,4.6-2.16,6.85-3.31,1.57-.81,3.08-1.71,4.58-2.64a4.58,4.58,0,0,0,1.14-1.18.79.79,0,0,0,0-.93,2.5,2.5,0,0,0-1.54-1.18,13,13,0,0,1-3.15-1,3.88,3.88,0,0,0-1.6-.33,80.78,80.78,0,0,1-8.91-.8,16.77,16.77,0,0,0-4.3.11,52,52,0,0,1-5.29.37,25.21,25.21,0,0,0-6.19,1A32.28,32.28,0,0,1,608,81c.08-.54.13-1.08.26-1.6a2.34,2.34,0,0,1,2.15-1.73,2.09,2.09,0,0,1,.66.06,3.19,3.19,0,0,0,2.25-.24c.91-.41,1.8-.85,2.73-1.21a12.4,12.4,0,0,1,2.51-.79,6.65,6.65,0,0,0,2.49-.82,3.17,3.17,0,0,1,1.27-.31c1-.09,2-.16,3-.19,3.75-.09,7.51-.13,11.27-.26,2.44-.08,4.85.32,7.28.41a7.81,7.81,0,0,1,1.92.47c2.11.66,4.22,1.31,6.3,2.06a26.66,26.66,0,0,0,3.5,1c1.62.33,3.12,1.08,4.77,1.33.16,0,.36.3.39.49a8.28,8.28,0,0,1,.28,2c0,1-.21,2-.33,3-1.58.64-3.07,1.34-4.63,1.82a20.14,20.14,0,0,0-2.45,1,24.66,24.66,0,0,1-4.31,1.67,16.32,16.32,0,0,0-3.55,1.71,21,21,0,0,1-4.14,2,1.74,1.74,0,0,0-.73.6,5.77,5.77,0,0,1-2.36,1.72,11.13,11.13,0,0,0-2.26,1.34,26.86,26.86,0,0,1-3.7,2.16,25.15,25.15,0,0,0-5,3.2,13.14,13.14,0,0,1-3.94,2.34,5.34,5.34,0,0,0-3.26,2.09c-1.05.58-2.08,1.2-3.17,1.71a8.3,8.3,0,0,0-3.13,2.32,4.66,4.66,0,0,1-2.49,1.5,9.56,9.56,0,0,0-3.24,1.57c-2.29,1.75-4.95,2.84-7.37,4.38a18.42,18.42,0,0,1-2.28,1.31,6.49,6.49,0,0,0-2,1.11c-1.73.38-3.08,1.65-4.85,2-1.5.29-2.88,1.13-4.48,1.09a2.62,2.62,0,0,0-1,.27c-3.66,1.41-7.36,1.11-11.07.22-.64-.16-1.25-.47-1.89-.61a5,5,0,0,1-3.53-2.22c-2.17-1.06-2.5-3.22-3.09-5.21a3.19,3.19,0,0,1,0-1.3c.33-1.74.66-3.47,1-5.2a21.3,21.3,0,0,1,.78-2.87,44.15,44.15,0,0,1,2.33-6.17,5.23,5.23,0,0,0,.36-1.26,23.28,23.28,0,0,1,2.38-6.14,9.55,9.55,0,0,0,1.23-2.34c.7-2.81,2.43-5.16,3.44-7.83.59-1.56,1.84-2.72,2.46-4.27a34.8,34.8,0,0,1,2-4.18c.87-1.53,1.85-3,2.84-4.47a20.75,20.75,0,0,0,2.29-4,16.21,16.21,0,0,1,2.87-4c1.5-.83,2.33-2.34,3.55-3.44a2.43,2.43,0,0,1,1.08-.7,5.46,5.46,0,0,0,2.35-1.12c1.24-.9,2.69-1.48,3.88-2.46Z"/><path d="M815.06,47c1,.31,2.26.64,3.45,1.06a21.24,21.24,0,0,1,2.55,1.09,1.94,1.94,0,0,1,1,1.39c.07.29-.22.75-.5.76l-5.22.22a1.76,1.76,0,0,0-1.74,1.42,4.21,4.21,0,0,0-.18,2.05,29.18,29.18,0,0,1,.12,5.91c-.1,2.31,0,4.63,0,6.94a17.93,17.93,0,0,1,0,2.43c-.54,3.58-.27,7.19-.45,10.78-.1,2-.14,3.94-.22,5.92,0,.46,0,.93-.07,1.39a71.16,71.16,0,0,0-.92,9,34.89,34.89,0,0,0-.94,5.83c-1.16,2.79-1.36,5.89-2.87,8.56a6.25,6.25,0,0,0-.49,1.29,30.33,30.33,0,0,1-3.91,7.35A9.71,9.71,0,0,1,798,124.5a12.26,12.26,0,0,0-1.37.25A3.9,3.9,0,0,1,793,124a10.52,10.52,0,0,1-3-2.9,30.23,30.23,0,0,1-3.07-5.82c-.15-.43-.36-.85-.53-1.28a44.73,44.73,0,0,1-2.06-5.16c-.47-1.67-.93-3.34-1.43-5s-.57-3.42-1.29-5a5.87,5.87,0,0,1-.19-2.07,10.06,10.06,0,0,0-.48-3.08,8.12,8.12,0,0,1-.23-4.12c.42-2.34,2.84-2.87,4.62-1.79a1.46,1.46,0,0,1,.58.83,17.72,17.72,0,0,1,.42,2.4c.19,1.73.24,3.48.53,5.19a37,37,0,0,0,1.2,4.71,11.32,11.32,0,0,1,.65,2.7,2.94,2.94,0,0,0,.2,1c1.15,2.53,1.63,5.32,2.95,7.79a11.23,11.23,0,0,1,.93,1.87,12,12,0,0,0,2.68,4,2.37,2.37,0,0,0,3.16.11c1.23-1.23,2.56-2.39,2.9-4.23a1.52,1.52,0,0,1,.33-.61c1.37-1.64,1.86-3.71,2.62-5.63.68-1.72,1.2-3.51,1.78-5.27a2.66,2.66,0,0,0,.18-.67c.14-2.8,1.17-5.41,1.8-8.1a2,2,0,0,0,0-.69c0-.42-.76-.8-1-.52-1.45,1.42-3.17,1.13-4.88.75a1.47,1.47,0,0,1-.76-.66,3.8,3.8,0,0,1-.54-1.28,34.84,34.84,0,0,1-.62-3.77,82.52,82.52,0,0,1-.24-10.43,19,19,0,0,0-.35-5.53,9,9,0,0,1-.24-2.07c0-2.58-.91-5-1.34-7.52a30.79,30.79,0,0,0-1.26-3.6,18.63,18.63,0,0,0-4-6.48A10.75,10.75,0,0,0,790.27,50a3.44,3.44,0,0,0-1.68-.31c-1.74,0-3.49,0-5.23,0a13.94,13.94,0,0,1-4.1-.65,5.69,5.69,0,0,1-3.77-3.33,1.25,1.25,0,0,1,.21-1.3c.41-.41.83-.81,1.25-1.2a2.92,2.92,0,0,1,1.54-.76A15.71,15.71,0,0,1,788,43.56a22,22,0,0,0,9,2.22c2,0,3.94.35,5.9.51.7.06,1.39.07,2.09.07a1.81,1.81,0,0,0,1.55-1.21,8.76,8.76,0,0,0,.25-1,46.37,46.37,0,0,0,.77-10c0-.92,0-1.85,0-2.78a1.56,1.56,0,0,1,1.16-1.55c.34-.1.66-.23,1-.32a2.94,2.94,0,0,1,2.94,1.35,7.93,7.93,0,0,1,.89,4,56.47,56.47,0,0,0,.45,9.37A4.68,4.68,0,0,0,815.06,47ZM804.79,64.65a7.5,7.5,0,0,0,1-4,25.9,25.9,0,0,1,.43-5.89,15,15,0,0,0,.16-2.77,1.62,1.62,0,0,0-1.24-1.49A18.44,18.44,0,0,0,800,50a2.07,2.07,0,0,0-.91.48.66.66,0,0,0-.3.88,33.25,33.25,0,0,0,1.63,3.06,19.65,19.65,0,0,1,2.72,7.1,8.54,8.54,0,0,0,1.08,2.9C804.26,64.59,804.58,64.59,804.79,64.65Z"/><path d="M1068.92,97a2.34,2.34,0,0,1-.79,3c-1.05.71-1.64,1.9-2.73,2.5a13.56,13.56,0,0,0-2.89,2.33,4.63,4.63,0,0,1-2.5,1.18,11.55,11.55,0,0,0-4.79,2.11,29.88,29.88,0,0,1-2.69,1.56,2.6,2.6,0,0,1-1.14.44c-1.22,0-2.13.74-3.2,1.09s-1.7,1.15-2.75,1.41a5.39,5.39,0,0,0-2.36,1.46c-1.35.26-2.32,1.28-3.58,1.74-2.9,1.08-5.48,2.81-8.26,4.16-.27.13-.51.48-.77.49-1.33,0-2.23,1.08-3.45,1.34a11.09,11.09,0,0,0-4.54,1.93,2.49,2.49,0,0,1-2.65.28,6.94,6.94,0,0,0-1.21-.32c-1-.25-1.46-1.11-2-1.82a1.43,1.43,0,0,1-.16-.9,7.26,7.26,0,0,1,.34-1.52,53.49,53.49,0,0,1,2.34-5.39c.61-1.27,1.67-2.35,1.69-3.92,0-.56.53-1.1.75-1.68a22.82,22.82,0,0,0,1.22-3.17,17.45,17.45,0,0,1,1.5-3.38,19.27,19.27,0,0,0,1.21-2.51c.82-2.67,2.1-5.17,2.92-7.83.46-1.49,1.34-2.78,1.7-4.32a26.75,26.75,0,0,1,1.57-4,5.15,5.15,0,0,1,1-1.92,1.8,1.8,0,0,0,.34-.85,6,6,0,0,1,.36-1.81c.71-1.17.93-2.53,1.59-3.71a49.77,49.77,0,0,0,2.3-5.42,21.26,21.26,0,0,1,1.72-4,1,1,0,0,0,.22-.57c-.08-1.44.86-2.5,1.37-3.72a6.23,6.23,0,0,0,.78-2.34,1.39,1.39,0,0,1,.31-.86,7.36,7.36,0,0,0,1.08-2.55c.5-1.25,1.12-2.45,1.57-3.71s1.37-2.09,1.54-3.36c.63-.61.56-1.6,1.05-2.2a5.62,5.62,0,0,0,.76-2.32,3.74,3.74,0,0,1,.36-.85,18.48,18.48,0,0,0,2.09-4.45c.43-1.48,1.1-2.9,1.67-4.34a4.9,4.9,0,0,1,.35-.85,23.66,23.66,0,0,1,3.58-3.4,1.48,1.48,0,0,1,2.17,1,33.92,33.92,0,0,1-.13,6.21,25.51,25.51,0,0,0-1.29,3.48,54.91,54.91,0,0,0-1.67,5.62,1.89,1.89,0,0,1-.24.89c-.86,1-.82,2.33-1.37,3.44a29.28,29.28,0,0,1-1.26,3.16,6.2,6.2,0,0,0-.31,1.2,3.59,3.59,0,0,1-.52,1.1,7.39,7.39,0,0,0-1.53,2.67c-.22.88-1,1.56-1,2.55a1.63,1.63,0,0,1-.33.86,27.2,27.2,0,0,0-1.9,3.87c-.56,1.08-.75,2.39-1.77,3.23-.28,1-1,1.78-1.14,2.86a3.61,3.61,0,0,1-.4,1.17,17.52,17.52,0,0,0-1.6,3.33c-.28,1.22-.85,2.33-1.13,3.54a8.29,8.29,0,0,1-.89,2,22.71,22.71,0,0,0-2.16,5.43,4.71,4.71,0,0,1-.53,1.46c-.53.77-.63,1.72-1.22,2.49a9.83,9.83,0,0,0-.85,2.3,20.42,20.42,0,0,0-1.11,2.56c-.41,1.71-1.48,3.19-1.67,5a6.78,6.78,0,0,1-.51,1.45c-.69,2-1.4,3.91-2.07,5.87a1,1,0,0,0,.28,1.13,1,1,0,0,0,1.15.27,20.45,20.45,0,0,1,3.21-1.06c1-.35,1.82-1,2.76-1.38a22,22,0,0,1,3.18-1.24,51.19,51.19,0,0,0,8.87-3.64c.37-.18.73-.57,1.09-.56,1.35,0,2.26-1,3.43-1.32a11.88,11.88,0,0,0,3-1.51,2.88,2.88,0,0,1,1.15-.41,39.2,39.2,0,0,0,8.16-1.91A6.36,6.36,0,0,1,1068.92,97Z"/><path d="M632,34.63c1,0,2,0,3,0,1.84,0,3.31,1.09,4.92,1.77a1.45,1.45,0,0,1,.54.37,34.22,34.22,0,0,1,3,3.49,24.52,24.52,0,0,1,1.68,3.59,3,3,0,0,1,.1.32,5.29,5.29,0,0,1,.14,2.62c-.5,2.36-1.43,3.09-3.91,3.08-.33,0-.66,0-1,0a2.15,2.15,0,0,1-1.88-1.19c-.5-1.21-1.5-2.2-1.62-3.59a2.65,2.65,0,0,0-.81-1.39,20.15,20.15,0,0,0-3-2.54,5.86,5.86,0,0,0-4.61-1.44c-.87.11-1.77.06-2.65.09a7.06,7.06,0,0,0-2.24.54c-1.75.65-3.31,1.69-5,2.44a4.83,4.83,0,0,0-1.36.93c-1.72,1.64-3.93,2.38-6,3.32-.07,0-.26,0-.28-.09s-.16-.43-.09-.57a3.34,3.34,0,0,1,.79-1c1.4-1.05,2.49-2.52,4.31-3a2.85,2.85,0,0,0,1.28-1,11.33,11.33,0,0,1,4.43-2.77,17.6,17.6,0,0,0,3-1.46c.36-.25.72-.51,1.09-.75a7.88,7.88,0,0,1,5-1.5,8.43,8.43,0,0,0,1.32-.08Z"/><path d="M817.38,14.71a15.82,15.82,0,0,1-2,6.93,2.52,2.52,0,0,1-1.37,1,5.63,5.63,0,0,1-2,.28c-2.77-.1-3.22-.44-4.19-3.23a2.6,2.6,0,0,1,1.79-3.31A2.38,2.38,0,0,0,811.05,15a3.92,3.92,0,0,1,.44-.95c1.33-1.77,1.34-2.17,4-2,1.25.06,1.84.7,1.88,2C817.38,14.25,817.38,14.48,817.38,14.71Z"/><path d="M1217,312.4c-.32-.09-.56-.25-.58-.61a.76.76,0,0,1,1-.79.66.66,0,0,1,.59.58A.83.83,0,0,1,1217,312.4Z"/><path d="M407.58,326.22c0-.06,0-.18,0-.19s.23,0,.24,0C407.91,326.25,407.81,326.31,407.58,326.22Z"/><path d="M615.56,53.27l-.07.17c.19,0,.17-.09-.06-.11Z"/><path d="M637.08,319.08l.07.21-.12-.15S637.08,319.08,637.08,319.08Z"/><polygon points="406.29 376.05 406.28 375.85 406.51 375.94 406.29 376.05"/><path d="M1268.58,79c0,1.16,0,1.81,0,2.45a23.26,23.26,0,0,1-1.25,8.28,8.75,8.75,0,0,1-1.22,2.22,1.55,1.55,0,0,1-2,0,1.41,1.41,0,0,1-.37-.59c-.41-2-.83-4-1.17-6a13.76,13.76,0,0,1-.06-2.32c0-1.54.15-3.09.12-4.63a12.44,12.44,0,0,1,1.19-5.15,1.85,1.85,0,0,1,1.48-1.28,11.79,11.79,0,0,1,1.88,0,1.62,1.62,0,0,1,1.34,1.4,18.54,18.54,0,0,1,.24,2.68C1268.72,77.2,1268.62,78.36,1268.58,79Z"/></svg>